<svg width="21" height="20" viewBox="0 0 21 20" fill="none" xmlns="http://www.w3.org/2000/svg">
<g clip-path="url(#clip0_2_570)">
<path d="M10.7468 0C5.25484 0 0.801758 4.4511 0.801758 9.94064C0.801758 14.0101 3.25251 17.5071 6.75548 19.047C6.72885 18.3547 6.75104 17.5204 6.92863 16.766C7.11954 15.9583 8.20729 11.3474 8.20729 11.3474C8.20729 11.3474 7.88762 10.7128 7.88762 9.77644C7.88762 8.3031 8.74006 7.20253 9.8056 7.20253C10.7113 7.20253 11.1464 7.88151 11.1464 8.69362C11.1464 9.60337 10.5648 10.9613 10.2673 12.2217C10.0187 13.2779 10.7957 14.1343 11.839 14.1343C13.7215 14.1343 14.9913 11.7158 14.9913 8.84894C14.9913 6.66999 13.5217 5.04132 10.8534 5.04132C7.83879 5.04132 5.95633 7.29128 5.95633 9.80307C5.95633 10.6684 6.21383 11.2808 6.61341 11.7513C6.79544 11.9687 6.82208 12.0575 6.75548 12.306C6.70665 12.4879 6.60009 12.9273 6.55125 13.1048C6.48466 13.3577 6.28043 13.4465 6.054 13.3533C4.66435 12.7853 4.01615 11.2675 4.01615 9.55455C4.01615 6.73212 6.4003 3.34609 11.1242 3.34609C14.9202 3.34609 17.4198 6.09308 17.4198 9.03977C17.4198 12.9406 15.2488 15.8518 12.0521 15.8518C10.9777 15.8518 9.96987 15.2704 9.62357 14.6136C9.62357 14.6136 9.0464 16.9035 8.92209 17.3473C8.71342 18.115 8.30052 18.8783 7.92314 19.4774C8.83857 19.7474 9.78796 19.8849 10.7424 19.8857C16.2344 19.8857 20.6875 15.4346 20.6875 9.94508C20.6875 4.45554 16.2388 0 10.7468 0Z" fill="#1F2732"/>
</g>
<defs>
<clipPath id="clip0_2_570">
<rect width="21" height="20" fill="white"/>
</clipPath>
</defs>
</svg>
