<svg width="20" height="20" viewBox="0 0 20 20" fill="none" xmlns="http://www.w3.org/2000/svg">
<g clip-path="url(#clip0_2_567)">
<path d="M13.8655 2.39931C14.9461 2.40241 15.9816 2.81719 16.7458 3.55304C17.5099 4.28889 17.9407 5.28602 17.9439 6.32667V14.1806C17.9407 15.2212 17.5099 16.2183 16.7458 16.9542C15.9816 17.69 14.9461 18.1048 13.8655 18.1079H5.70952C4.62885 18.1048 3.59336 17.69 2.82921 16.9542C2.06506 16.2183 1.63433 15.2212 1.6311 14.1806V6.32667C1.63433 5.28602 2.06506 4.28889 2.82921 3.55304C3.59336 2.81719 4.62885 2.40241 5.70952 2.39931H13.8655ZM13.8655 0.828613H5.70952C2.56922 0.828613 0 3.30268 0 6.32667V14.1806C0 17.2046 2.56922 19.6786 5.70952 19.6786H13.8655C17.0058 19.6786 19.575 17.2046 19.575 14.1806V6.32667C19.575 3.30268 17.0058 0.828613 13.8655 0.828613Z" fill="#1F2732"/>
<path d="M15.0889 6.32695C14.8469 6.32695 14.6104 6.25785 14.4092 6.1284C14.208 5.99895 14.0512 5.81495 13.9586 5.59967C13.866 5.3844 13.8418 5.14752 13.889 4.91898C13.9362 4.69045 14.0527 4.48053 14.2238 4.31576C14.3949 4.151 14.6129 4.0388 14.8502 3.99334C15.0875 3.94788 15.3335 3.97121 15.5571 4.06038C15.7806 4.14955 15.9717 4.30055 16.1062 4.49429C16.2406 4.68804 16.3123 4.91581 16.3123 5.14882C16.3127 5.30363 16.2813 5.45698 16.2199 5.60007C16.1586 5.74315 16.0685 5.87316 15.9548 5.98263C15.8411 6.09209 15.7061 6.17886 15.5575 6.23795C15.4089 6.29704 15.2497 6.32728 15.0889 6.32695ZM9.78749 7.11209C10.4328 7.11209 11.0636 7.29635 11.6001 7.64158C12.1367 7.9868 12.5548 8.47749 12.8018 9.05158C13.0487 9.62567 13.1133 10.2573 12.9874 10.8668C12.8616 11.4762 12.5508 12.0361 12.0945 12.4754C11.6382 12.9148 11.0569 13.2141 10.424 13.3353C9.79111 13.4565 9.1351 13.3943 8.53893 13.1565C7.94276 12.9187 7.4332 12.516 7.0747 11.9993C6.71619 11.4827 6.52484 10.8752 6.52484 10.2539C6.52577 9.42091 6.86981 8.62229 7.48147 8.03328C8.09314 7.44427 8.92247 7.11298 9.78749 7.11209ZM9.78749 5.54139C8.8196 5.54139 7.87344 5.81778 7.06867 6.33559C6.26389 6.85341 5.63665 7.5894 5.26625 8.4505C4.89586 9.31159 4.79895 10.2591 4.98777 11.1732C5.1766 12.0874 5.64268 12.927 6.32709 13.5861C7.01149 14.2451 7.88347 14.694 8.83277 14.8758C9.78206 15.0576 10.766 14.9643 11.6602 14.6076C12.5545 14.251 13.3188 13.6469 13.8565 12.872C14.3942 12.097 14.6812 11.1859 14.6812 10.2539C14.6812 9.00406 14.1656 7.80542 13.2479 6.92165C12.3301 6.03789 11.0854 5.54139 9.78749 5.54139Z" fill="#1F2732"/>
</g>
<defs>
<clipPath id="clip0_2_567">
<rect width="20" height="20" fill="white"/>
</clipPath>
</defs>
</svg>
