<svg width="22" height="18" viewBox="0 0 22 18" fill="none" xmlns="http://www.w3.org/2000/svg">
<path d="M21.3598 2.64532C20.5731 2.98716 19.7407 3.21237 18.8889 3.31384C19.7841 2.78968 20.4572 1.95695 20.7822 0.971832C19.9359 1.46671 19.0115 1.81394 18.0487 1.99865C17.6432 1.57373 17.1556 1.2357 16.6155 1.0051C16.0753 0.774503 15.4939 0.656148 14.9066 0.657234C12.5288 0.657234 10.6045 2.55356 10.6045 4.8912C10.6028 5.21636 10.6401 5.54055 10.7155 5.85684C9.01038 5.77691 7.34076 5.34194 5.81341 4.57977C4.28606 3.8176 2.93462 2.74501 1.84555 1.43062C1.46347 2.07473 1.26141 2.80963 1.26048 3.55853C1.26048 5.02665 2.02644 6.32437 3.18303 7.08465C2.49778 7.06839 1.82658 6.88702 1.2264 6.55595V6.60838C1.2264 8.66201 2.712 10.3705 4.67824 10.7593C4.30849 10.8579 3.92747 10.9078 3.54481 10.9079C3.27329 10.9084 3.00238 10.882 2.73603 10.8292C3.28265 12.5115 4.87355 13.7349 6.75808 13.7699C5.22677 14.95 3.34671 15.5879 1.41341 15.5832C1.07024 15.5827 0.727396 15.5622 0.386597 15.522C2.35335 16.7779 4.63955 17.4422 6.97306 17.4358C14.8974 17.4358 19.2267 10.9822 19.2267 5.38494C19.2267 5.20143 19.2219 5.01791 19.2131 4.83877C20.0534 4.24106 20.7803 3.49828 21.3598 2.64532Z" fill="#1F2732"/>
</svg>
