<svg width="137" height="45" viewBox="0 0 137 45" fill="none" xmlns="http://www.w3.org/2000/svg">
<g clip-path="url(#clip0_2_313)">
<path d="M12.1372 0.985352V1.17702L11.333 1.36868V9.86083L12.1372 10.0525V10.2442H8.32476V10.0525L9.12895 9.86083V2.62186L5.9718 10.3768H5.56968L1.47432 2.62186V9.65442L2.54656 10.0525V10.2442H0V10.0525L1.07224 9.65442V1.36868L0.268049 1.17702V0.985352H1.93597C2.18914 0.985352 2.41253 1.01484 2.59124 1.07381C2.76994 1.13278 2.94867 1.2065 3.0827 1.3097C3.23163 1.41291 3.35076 1.53086 3.45501 1.66355C3.55926 1.79624 3.64861 1.95841 3.73797 2.12059L6.65683 7.64933L8.89067 2.12059C8.96513 1.92892 9.03961 1.76675 9.14386 1.63406C9.23321 1.50137 9.35232 1.38342 9.48635 1.28022C9.62038 1.17702 9.78422 1.1033 9.97782 1.05907C10.1714 1.01484 10.4097 0.985352 10.7075 0.985352H12.1372Z" fill="#B1B1B1"/>
<path d="M16.9028 3.44775C17.4538 3.44775 17.9601 3.52147 18.392 3.68364C18.8239 3.84582 19.1962 4.08171 19.5089 4.37658C19.8216 4.68619 20.045 5.05477 20.2088 5.48233C20.3727 5.90988 20.4471 6.41116 20.4471 6.95666C20.4471 7.50216 20.3727 8.00343 20.2088 8.43099C20.045 8.85855 19.8067 9.22713 19.5089 9.53674C19.1962 9.84635 18.8239 10.0675 18.392 10.2297C17.9601 10.3918 17.4538 10.4656 16.9028 10.4656C16.3517 10.4656 15.8454 10.3918 15.4135 10.2297C14.9817 10.0675 14.6094 9.83161 14.2966 9.53674C13.9839 9.22713 13.7605 8.85855 13.5967 8.43099C13.4329 8.00343 13.3584 7.50216 13.3584 6.95666C13.3584 6.41116 13.4329 5.90988 13.5967 5.48233C13.7605 5.05477 13.9988 4.68619 14.2966 4.37658C14.6094 4.06697 14.9817 3.84582 15.4135 3.68364C15.8454 3.52147 16.3369 3.44775 16.9028 3.44775ZM16.9028 10.2149C17.0517 10.2149 17.2006 10.1707 17.3644 10.0675C17.5133 9.9643 17.6474 9.80212 17.7665 9.55148C17.8856 9.30085 17.9899 8.97649 18.0644 8.56368C18.1388 8.13612 18.1835 7.60536 18.1835 6.9714C18.1835 6.3227 18.1388 5.79194 18.0644 5.37912C17.9899 4.96631 17.8856 4.62721 17.7665 4.39132C17.6474 4.15543 17.5133 3.97851 17.3644 3.87531C17.2155 3.7721 17.0666 3.72787 16.9028 3.72787C16.7538 3.72787 16.6049 3.7721 16.4411 3.87531C16.2922 3.97851 16.1581 4.14069 16.039 4.39132C15.9198 4.64196 15.8156 4.96631 15.7412 5.37912C15.6667 5.80668 15.622 6.33744 15.622 6.9714C15.622 7.62011 15.6667 8.15087 15.7412 8.56368C15.8156 8.97649 15.9198 9.31559 16.039 9.55148C16.1581 9.78738 16.2922 9.9643 16.4411 10.0675C16.59 10.1559 16.7389 10.2149 16.9028 10.2149Z" fill="#B1B1B1"/>
<path d="M26.9551 0.985352C27.7593 0.985352 28.1614 1.38343 28.1614 2.17956V9.87558L28.9656 10.0672V10.2589H27.7593C27.4317 10.2589 27.1785 10.2147 26.9849 10.1115C26.7913 10.0082 26.6275 9.89032 26.5233 9.77237C26.3892 9.62494 26.285 9.44802 26.2254 9.2711C26.1063 9.50699 25.9574 9.69866 25.7786 9.87558C25.6297 10.023 25.4212 10.1557 25.1681 10.2884C24.9149 10.4211 24.617 10.48 24.2745 10.48C23.8873 10.48 23.5299 10.4063 23.2023 10.2589C22.8598 10.1115 22.5768 9.89032 22.3385 9.59545C22.1003 9.30059 21.8918 8.932 21.7578 8.50445C21.6088 8.06215 21.5493 7.56087 21.5493 6.97114C21.5493 6.38141 21.6237 5.88014 21.7578 5.43784C21.9067 4.99554 22.1003 4.6417 22.3683 4.34683C22.6215 4.05197 22.9343 3.83082 23.2917 3.68338C23.6491 3.53595 24.0512 3.46223 24.4979 3.46223C24.7362 3.46223 24.9447 3.49172 25.1383 3.53595C25.3319 3.59492 25.4957 3.6539 25.6297 3.72761C25.7935 3.80133 25.9276 3.88979 26.0467 3.99299V1.41291L25.2425 1.22125V1.02959H26.9551V0.985352ZM26.0169 4.37632C25.9127 4.27311 25.8233 4.18466 25.7042 4.11094C25.6 4.03722 25.4957 3.97825 25.3766 3.91928C25.2574 3.8603 25.1383 3.84556 25.0043 3.84556C24.8405 3.84556 24.6766 3.88979 24.5277 3.97825C24.3788 4.06671 24.2596 4.21414 24.1405 4.43529C24.0362 4.65644 23.9469 4.98079 23.8873 5.37886C23.8278 5.79168 23.798 6.30769 23.798 6.9564C23.798 7.59036 23.8278 8.09163 23.8873 8.4897C23.9469 8.88777 24.0214 9.19738 24.1256 9.41853C24.215 9.63968 24.3192 9.80186 24.4533 9.87558C24.5724 9.94929 24.6915 9.99352 24.8107 9.99352C25.0192 9.99352 25.1978 9.93455 25.3468 9.83135C25.4957 9.72814 25.6148 9.59545 25.7191 9.46276C25.8382 9.30058 25.9425 9.12367 26.0318 8.932V4.37632H26.0169Z" fill="#B1B1B1"/>
<path d="M33.4479 10.4802C32.3012 10.4802 31.4077 10.1706 30.7822 9.55139C30.1419 8.93217 29.8291 8.06232 29.8291 6.97131C29.8291 6.42581 29.9036 5.92454 30.0674 5.49698C30.2312 5.06942 30.4546 4.70084 30.7376 4.39123C31.0205 4.08162 31.363 3.86047 31.78 3.6983C32.1821 3.53612 32.6288 3.4624 33.1203 3.4624C33.6266 3.4624 34.0734 3.53612 34.4606 3.66881C34.8627 3.81624 35.1903 4.00791 35.4733 4.2438C35.7562 4.47969 35.9647 4.75981 36.1136 5.08417C36.2626 5.40852 36.337 5.74762 36.337 6.1162C36.337 6.23414 36.337 6.35209 36.3221 6.44055C36.3072 6.52901 36.2924 6.61747 36.2775 6.69119C36.2477 6.77965 36.2328 6.85337 36.203 6.91234C35.8158 6.98606 35.3988 7.05977 34.952 7.104C34.5797 7.16297 34.1479 7.2072 33.6564 7.23669C33.165 7.26618 32.6586 7.29567 32.1225 7.29567C32.1225 7.84117 32.1672 8.29821 32.2416 8.66679C32.3161 9.03538 32.4352 9.33024 32.5693 9.53665C32.7182 9.7578 32.882 9.90523 33.0756 9.99369C33.2692 10.0822 33.4926 10.1264 33.716 10.1264C33.9841 10.1264 34.2372 10.0822 34.4755 9.97895C34.7137 9.87575 34.9222 9.7578 35.0861 9.59562C35.2648 9.43345 35.3988 9.24178 35.503 9.03538C35.6073 8.82897 35.652 8.62256 35.652 8.40141H35.9796C35.9796 8.66679 35.92 8.91743 35.8009 9.16806C35.6818 9.4187 35.5031 9.63985 35.2797 9.83151C35.0563 10.0232 34.7882 10.1706 34.4755 10.2886C34.1776 10.4212 33.8351 10.4802 33.4479 10.4802ZM32.1076 6.95657C32.4055 6.95657 32.6735 6.95657 32.9118 6.94183C33.1501 6.92708 33.3437 6.91234 33.5075 6.8976C33.7011 6.88285 33.85 6.85336 33.984 6.83862C33.9989 6.75016 34.0287 6.64696 34.0436 6.54376C34.0585 6.44055 34.0734 6.33735 34.0883 6.2194C34.1032 6.10145 34.1032 5.96877 34.1032 5.83608C34.1032 5.43801 34.0734 5.09891 34.0138 4.83353C33.9542 4.56815 33.8798 4.347 33.7755 4.17008C33.6862 4.0079 33.5819 3.87521 33.4479 3.81624C33.3139 3.75727 33.2096 3.71304 33.0905 3.71304C32.9714 3.71304 32.8522 3.75727 32.7331 3.84573C32.614 3.93419 32.5097 4.09636 32.4055 4.31751C32.3161 4.55341 32.2268 4.87776 32.1672 5.30532C32.1076 5.73287 32.1076 6.27837 32.1076 6.95657Z" fill="#B1B1B1"/>
<path d="M41.9663 3.90443C41.6982 3.90443 41.46 3.96341 41.2515 4.06661C41.043 4.16981 40.8643 4.3025 40.7154 4.43519C40.5515 4.59737 40.4175 4.77429 40.2835 4.96595V9.87548L41.0877 10.0671V10.2588H37.3348V10.0671L38.139 9.87548V4.03712L37.3348 3.84546V3.6538H38.5411C38.8538 3.6538 39.107 3.71277 39.3155 3.81597C39.5091 3.91918 39.6729 4.03712 39.792 4.15507C39.9261 4.3025 40.0303 4.46468 40.0899 4.6416C40.2239 4.44993 40.3877 4.27302 40.5813 4.11084C40.7452 3.97815 40.9537 3.8602 41.2068 3.74226C41.46 3.62431 41.7429 3.58008 42.0855 3.58008C42.562 3.58008 42.9194 3.69803 43.1577 3.90443C43.396 4.12558 43.5002 4.43519 43.5002 4.83326C43.5002 5.12813 43.4109 5.37876 43.2322 5.55568C43.0534 5.7326 42.8003 5.82106 42.5024 5.82106C42.428 5.82106 42.3684 5.82106 42.2939 5.82106C42.2195 5.82106 42.1748 5.80632 42.1301 5.80632C42.0706 5.79158 42.011 5.79158 41.9663 5.76209V3.90443Z" fill="#B1B1B1"/>
<path d="M49.2635 5.62937C49.2635 5.3345 49.2337 5.06912 49.1742 4.84798C49.1146 4.62683 49.0402 4.4499 48.9359 4.31721C48.8466 4.16978 48.7423 4.06658 48.6083 4.0076C48.4892 3.94863 48.37 3.9044 48.2508 3.9044C48.0424 3.9044 47.8637 3.96337 47.7148 4.06658C47.5658 4.16978 47.4318 4.30247 47.3424 4.43516C47.2233 4.59734 47.1339 4.77426 47.0446 4.96592V9.87545L47.8488 10.0671V10.2587H44.0959V10.0671L44.9001 9.87545V4.03709L44.0959 3.84543V3.65376H45.3022C45.615 3.65376 45.8681 3.71274 46.0766 3.81594C46.2702 3.91914 46.434 4.03709 46.5532 4.15504C46.6872 4.30247 46.7914 4.46465 46.851 4.64157C46.9701 4.42042 47.1191 4.21401 47.2978 4.03709C47.4467 3.88966 47.6552 3.75697 47.8935 3.62428C48.1317 3.49159 48.4444 3.43262 48.8019 3.43262C49.1891 3.43262 49.5465 3.49159 49.8592 3.62428C50.1869 3.74223 50.4549 3.91915 50.6783 4.11081C50.9017 4.31722 51.0804 4.53836 51.2144 4.80374C51.3485 5.06912 51.408 5.3345 51.408 5.61463V9.8607L52.2122 10.0523V10.244H50.4698C49.6656 10.244 49.2635 9.84596 49.2635 9.04982V5.62937Z" fill="#B1B1B1"/>
<path d="M1.41492 19.5767V19.0312H11.765V19.5767L9.59074 20.1222V31.2535H17.3943V20.1222L15.22 19.5767V19.0312H25.5701V19.5767L23.3958 20.1222V43.1218L25.5701 43.6674V44.2128H15.22V43.6525L17.3943 43.107V32.1527H9.59074V43.107L11.765 43.6525V44.1981H1.41492V43.6525L3.58917 43.107V20.1075L1.41492 19.5767Z" fill="#B1B1B1"/>
<path d="M38.4368 25.6807C39.9409 25.6807 41.2812 25.9018 42.4726 26.3294C43.6639 26.7569 44.6617 27.3909 45.4957 28.2165C46.3297 29.0421 46.97 30.0447 47.4019 31.2241C47.8338 32.4036 48.0572 33.7305 48.0572 35.2196C48.0572 36.7087 47.8338 38.0355 47.4019 39.215C46.97 40.3945 46.3297 41.3823 45.4957 42.2079C44.6617 43.0335 43.6491 43.6675 42.4726 44.0951C41.2812 44.5226 39.9409 44.7438 38.4368 44.7438C36.9327 44.7438 35.5924 44.5226 34.401 44.0951C33.2096 43.6675 32.2118 43.0335 31.3779 42.2079C30.5439 41.3823 29.9035 40.3797 29.4717 39.215C29.0398 38.0355 28.8164 36.7087 28.8164 35.2196C28.8164 33.7305 29.0398 32.4036 29.4717 31.2241C29.9035 30.0447 30.5439 29.0569 31.3779 28.2165C32.2118 27.3761 33.2245 26.7569 34.401 26.3294C35.5924 25.9018 36.9327 25.6807 38.4368 25.6807ZM38.4368 44.0066C38.8538 44.0066 39.2559 43.8739 39.6729 43.6085C40.0898 43.3431 40.4472 42.8861 40.7749 42.2227C41.1025 41.5592 41.3706 40.6599 41.5791 39.5246C41.7876 38.3894 41.8918 36.9445 41.8918 35.1901C41.8918 33.4356 41.7876 31.9908 41.5791 30.8556C41.3706 29.7203 41.1025 28.821 40.7749 28.1575C40.4472 27.4941 40.075 27.037 39.6729 26.7717C39.2708 26.5063 38.8538 26.3736 38.4368 26.3736C38.0198 26.3736 37.6177 26.5063 37.2007 26.7717C36.7838 27.037 36.4263 27.4941 36.0987 28.1575C35.7711 28.821 35.503 29.7203 35.2945 30.8556C35.086 31.9908 34.9818 33.4356 34.9818 35.1901C34.9818 36.9445 35.086 38.3894 35.2945 39.5246C35.503 40.6599 35.7711 41.5592 36.0987 42.2227C36.4263 42.8861 36.7987 43.3431 37.2007 43.6085C37.6177 43.8739 38.0198 44.0066 38.4368 44.0066Z" fill="#B1B1B1"/>
<path d="M75.2654 31.6072C75.2654 30.7521 75.191 30.0149 75.042 29.4399C74.8931 28.8649 74.7144 28.3784 74.4761 28.0098C74.2378 27.6412 73.9847 27.3758 73.7166 27.1989C73.4336 27.0367 73.1656 26.9483 72.8975 26.9483C72.4359 26.9483 72.0338 27.0957 71.6764 27.3906C71.319 27.6854 71.0211 28.0245 70.7531 28.3784C70.4701 28.8059 70.202 29.2925 69.9935 29.8085V43.107L72.1827 43.6525V44.198H62.0262V43.6525L64.2005 43.107V31.6072C64.2005 30.7521 64.126 30.0149 63.9771 29.4399C63.8281 28.8649 63.6494 28.3784 63.4111 28.0098C63.1729 27.6412 62.9197 27.3758 62.6517 27.1989C62.3687 27.0367 62.1006 26.9483 61.8326 26.9483C61.3709 26.9483 60.9689 27.0957 60.6114 27.3906C60.254 27.6854 59.9561 28.0245 59.6881 28.3784C59.3902 28.8059 59.1371 29.2925 58.9286 29.8085V43.107L61.1029 43.6525V44.198H50.9464V43.6525L53.1207 43.107V27.3021L50.9464 26.7566V26.2111H54.2078C55.0566 26.2111 55.7565 26.3586 56.2927 26.6387C56.8437 26.9188 57.2607 27.2431 57.5883 27.5675C57.9457 27.9803 58.2138 28.4226 58.3925 28.8944C58.7052 28.2899 59.0924 27.7592 59.5541 27.2726C59.971 26.8598 60.4774 26.4912 61.0731 26.1521C61.6837 25.813 62.4134 25.6509 63.292 25.6509C64.7366 25.6509 66.0024 25.9752 67.0449 26.6092C68.1022 27.2432 68.9064 28.0688 69.4574 29.0713C69.7702 28.4521 70.1574 27.8919 70.619 27.3758C71.036 26.9483 71.5423 26.5502 72.138 26.1964C72.7486 25.8425 73.4783 25.6509 74.357 25.6509C75.3547 25.6509 76.2483 25.813 77.0823 26.1227C77.9013 26.4323 78.6161 26.8598 79.2118 27.4053C79.8075 27.9508 80.2692 28.57 80.5968 29.2925C80.9244 30.0149 81.0883 30.7815 81.0883 31.5924V43.0922L83.2625 43.6377V44.1832H78.5417C76.3674 44.1832 75.2803 43.107 75.2803 40.9544V31.6072H75.2654Z" fill="#B1B1B1"/>
<path d="M95.2359 44.7286C92.1384 44.7286 89.7258 43.8882 88.0132 42.1928C86.3006 40.4973 85.4368 38.1826 85.4368 35.2044C85.4368 33.7154 85.6602 32.3885 86.0921 31.209C86.524 30.0295 87.1345 29.0417 87.9089 28.2014C88.6833 27.3757 89.6216 26.7418 90.7236 26.3142C91.8256 25.8867 93.0319 25.6655 94.3275 25.6655C95.6827 25.6655 96.9039 25.8572 97.9761 26.2405C99.0484 26.6238 99.9717 27.1398 100.716 27.7885C101.461 28.4373 102.042 29.2039 102.444 30.0738C102.846 30.9436 103.039 31.8724 103.039 32.8602C103.039 33.1993 103.025 33.4942 102.98 33.7448C102.935 33.9955 102.905 34.2166 102.846 34.4083C102.771 34.6442 102.712 34.8506 102.667 35.0128C101.595 35.2339 100.478 35.4108 99.2866 35.5583C98.274 35.7057 97.0975 35.8237 95.772 35.9416C94.4466 36.0448 93.0468 36.1038 91.6022 36.1038C91.6022 37.5929 91.7065 38.8313 91.9299 39.8191C92.1533 40.8069 92.4511 41.603 92.8383 42.1928C93.2255 42.7825 93.6871 43.1953 94.2232 43.4459C94.7594 43.6966 95.3402 43.8293 95.9657 43.8293C96.6954 43.8293 97.3804 43.6966 98.0208 43.4312C98.6612 43.1658 99.2122 42.812 99.6887 42.3697C100.165 41.9274 100.538 41.4261 100.821 40.8659C101.103 40.3056 101.238 39.7306 101.238 39.1556H102.146C102.146 39.8781 101.982 40.571 101.654 41.2344C101.327 41.9126 100.865 42.5024 100.255 43.0184C99.644 43.5344 98.9292 43.9472 98.0804 44.2568C97.2166 44.5664 96.2635 44.7286 95.2359 44.7286ZM91.6022 35.2044C92.4213 35.2044 93.151 35.1897 93.7765 35.1455C94.402 35.1012 94.9381 35.0717 95.37 35.0275C95.8763 34.9833 96.3082 34.9243 96.6805 34.8506C96.7252 34.6147 96.7847 34.3493 96.8592 34.0545C96.9039 33.7891 96.9485 33.4942 96.9783 33.1699C97.0081 32.8455 97.0379 32.5064 97.0379 32.1526C97.0379 31.0763 96.9485 30.177 96.7847 29.4398C96.6209 28.7026 96.3975 28.1129 96.1444 27.6559C95.8912 27.1988 95.5934 26.8745 95.2806 26.6828C94.953 26.4911 94.6253 26.3879 94.3126 26.3879C93.9999 26.3879 93.6722 26.5059 93.3446 26.727C93.017 26.9629 92.734 27.3905 92.4809 28.0244C92.2277 28.6584 92.0192 29.5577 91.8405 30.7077C91.6916 31.8577 91.6022 33.3615 91.6022 35.2044Z" fill="#B1B1B1"/>
<path d="M120.865 43.8295V29.2483L107.85 19.0459V43.8295H120.865Z" fill="#B1B1B1"/>
<path d="M136.964 43.8295V29.2483L124.157 19.0459V43.8295H136.964Z" fill="#B1B1B1"/>
</g>
<defs>
<clipPath id="clip0_2_313">
<rect width="137" height="45" fill="white"/>
</clipPath>
</defs>
</svg>
