<svg width="108" height="106" viewBox="0 0 108 106" fill="none" xmlns="http://www.w3.org/2000/svg">
<g clip-path="url(#clip0_2_366)">
<g style="mix-blend-mode:multiply">
<g style="mix-blend-mode:multiply">
<path d="M54.3212 104.943C83.3875 104.943 106.95 81.6158 106.95 52.8402C106.95 24.0646 83.3875 0.737305 54.3212 0.737305C25.2549 0.737305 1.69202 24.0646 1.69202 52.8402C1.69202 81.6158 25.2549 104.943 54.3212 104.943Z" fill="white"/>
</g>
<g style="mix-blend-mode:multiply">
<path d="M54.3213 105.68C24.8942 105.68 0.94751 81.9728 0.94751 52.84C0.94751 23.7073 24.8942 0 54.3213 0C83.7484 0 107.695 23.7073 107.695 52.84C107.695 81.9728 83.7484 105.68 54.3213 105.68ZM54.3213 1.47433C25.7133 1.47433 2.43673 24.5181 2.43673 52.84C2.43673 81.162 25.7133 104.206 54.3213 104.206C82.9293 104.206 106.206 81.162 106.206 52.84C106.206 24.5181 82.9293 1.47433 54.3213 1.47433Z" fill="#B1B1B1"/>
</g>
<g style="mix-blend-mode:multiply">
<path d="M61.827 6.03024C62.1844 6.05973 62.4971 6.07447 62.7503 6.07447L62.7205 6.31036C62.3035 6.36934 61.9461 6.67894 61.6632 7.26868L58.1188 14.2865L58.0146 14.2717L57.9252 14.257L55.6765 6.42831C55.5276 5.91229 55.2744 5.63217 54.917 5.58794L54.9468 5.35205C55.2744 5.41102 55.7063 5.45525 56.2424 5.51422C56.9423 5.5732 57.4636 5.61743 57.8061 5.61743L57.7763 5.85332C57.4636 5.83858 57.2402 5.85332 57.1061 5.89755C56.9721 5.94178 56.8977 6.05973 56.8828 6.20716C56.8679 6.33985 56.8977 6.53151 56.9721 6.78215L58.6252 12.7679L61.0824 7.87315C61.2909 7.47508 61.3951 7.15073 61.4249 6.91484C61.4547 6.6642 61.3802 6.47254 61.2164 6.33985C61.0526 6.20716 60.7845 6.13344 60.4271 6.08921L60.4569 5.85332C60.8888 5.92704 61.3504 5.98601 61.827 6.03024Z" fill="#B1B1B1"/>
</g>
<g style="mix-blend-mode:multiply">
<path d="M71.8348 9.14089C71.6859 9.14089 71.5668 9.19986 71.4774 9.31781C71.3881 9.43576 71.2838 9.62742 71.1796 9.90754L69.05 15.51C68.9457 15.7901 68.8862 16.0112 68.8862 16.1587C68.8862 16.3061 68.9309 16.4241 69.0351 16.5125C69.1393 16.601 69.3329 16.7042 69.601 16.8221L69.5117 17.0433C69.1691 16.8958 68.6926 16.7042 68.082 16.4683C67.4267 16.2177 66.9353 16.0555 66.6077 15.9523L66.697 15.7311C66.98 15.8196 67.1885 15.8638 67.3225 15.8638C67.4565 15.8638 67.5906 15.8048 67.6799 15.6869C67.7693 15.5689 67.8735 15.3773 67.9777 15.0972L70.1073 9.49473C70.2116 9.21461 70.2712 8.99346 70.2712 8.84602C70.2712 8.69859 70.2265 8.58064 70.1222 8.49218C70.018 8.40373 69.8244 8.30052 69.5563 8.18258L69.6457 7.96143C69.9584 8.09412 70.435 8.28578 71.0902 8.53641C71.7008 8.77231 72.1923 8.93448 72.5497 9.03769L72.4603 9.25884C72.1923 9.17038 71.9838 9.12615 71.8348 9.14089Z" fill="#B1B1B1"/>
</g>
<g style="mix-blend-mode:multiply">
<path d="M85.0887 16.9401C84.9398 16.9106 84.7909 16.9549 84.6569 17.0433C84.5228 17.1318 84.359 17.3087 84.1803 17.5593L79.8616 23.3535L79.6382 23.1913L80.219 13.8735L76.3917 19.0042C76.213 19.2548 76.0938 19.4612 76.0343 19.6234C75.9747 19.7856 76.0045 19.933 76.0789 20.0804C76.1534 20.2279 76.3321 20.39 76.5853 20.5965L76.4364 20.7881C76.213 20.5965 75.8853 20.3458 75.4535 20.0215C75.0663 19.7413 74.7535 19.5202 74.5153 19.3875L74.6642 19.1958C74.9025 19.358 75.0961 19.4465 75.245 19.4612C75.3939 19.4907 75.5428 19.4465 75.6769 19.358C75.8109 19.2548 75.9747 19.0926 76.1534 18.842L79.668 14.1241C79.8467 13.8735 79.9658 13.6818 80.0105 13.5491C80.0552 13.4165 80.0403 13.2838 79.9658 13.1658C79.8914 13.0479 79.7424 12.9004 79.5042 12.7088L79.6531 12.5171C79.8467 12.694 80.1445 12.9299 80.5466 13.21C80.8445 13.4312 81.0976 13.6081 81.3359 13.7408L80.8593 21.5548L83.9569 17.3972C84.1356 17.1465 84.2697 16.9401 84.3143 16.7779C84.359 16.6158 84.3441 16.4683 84.2697 16.3209C84.1952 16.1735 84.0165 15.9965 83.7633 15.8049L83.9123 15.6132C84.1356 15.8049 84.4633 16.0555 84.8951 16.3799C85.2823 16.66 85.5951 16.8811 85.8334 17.0138L85.6844 17.2055C85.4313 17.0581 85.2377 16.9549 85.0887 16.9401Z" fill="#B1B1B1"/>
</g>
<g style="mix-blend-mode:multiply">
<path d="M90.0778 23.5893C90.465 23.3091 90.8671 22.9995 91.2989 22.6162C91.6712 23.1765 92.3265 24.1053 93.2647 25.4174C94.2029 26.7149 94.8731 27.6289 95.2752 28.1597C94.7688 28.4546 94.337 28.7199 93.9498 28.9853C93.6221 29.2212 93.3541 29.4276 93.1605 29.5898L92.9967 29.3686C93.4732 28.9558 93.8008 28.6167 93.9944 28.3661C94.188 28.1155 94.2625 27.8501 94.2476 27.57C94.2327 27.2898 94.054 26.9507 93.771 26.5379L93.3838 26.0072L87.7397 29.9879C87.4716 30.1795 87.278 30.3565 87.1887 30.4891C87.0993 30.6218 87.0695 30.784 87.1291 30.9609C87.1738 31.1231 87.3078 31.359 87.5014 31.6539L87.3078 31.8013C87.0844 31.4475 86.7419 30.9462 86.2951 30.3417C85.8186 29.6783 85.4612 29.2065 85.2229 28.9116L85.4165 28.7642C85.6399 29.0443 85.8186 29.236 85.9675 29.3392C86.1164 29.4424 86.2654 29.4719 86.4292 29.4276C86.593 29.3834 86.8164 29.2654 87.0844 29.0738L92.7286 25.0931L92.3414 24.5623C92.0435 24.1495 91.7755 23.8989 91.5223 23.7809C91.2691 23.663 90.9862 23.6482 90.6883 23.7514C90.3905 23.8547 89.9586 24.0463 89.4076 24.3559L89.2438 24.1348C89.4672 24.0168 89.7352 23.8399 90.0778 23.5893Z" fill="#B1B1B1"/>
</g>
<g style="mix-blend-mode:multiply">
<path d="M92.9367 44.0532L92.6984 44.1269C92.6091 43.8026 92.4899 43.3898 92.3112 42.8885C92.0878 42.2398 91.9091 41.7532 91.7751 41.4289L92.0134 41.3552C92.1176 41.6353 92.2368 41.8417 92.3261 41.9449C92.4304 42.0481 92.5644 42.0776 92.7133 42.0186C92.8473 41.9744 93.0112 41.8712 93.2048 41.709L94.8578 40.3674L93.9196 37.6104L92.5346 37.5514C92.0878 37.5219 91.7453 37.5514 91.5071 37.6399C91.2688 37.7283 91.1198 37.861 91.0603 38.0527C91.0156 38.2443 91.0454 38.5245 91.1496 38.8636L90.9114 38.9373C90.7922 38.495 90.6433 38.0527 90.4944 37.6104C90.3752 37.2713 90.271 36.9912 90.1667 36.77L90.405 36.6963C90.6135 37.0501 91.0603 37.2418 91.7155 37.2565L99.6382 37.6104L99.6978 37.7873L93.3835 42.9917C92.9963 43.3603 92.8474 43.6994 92.9367 44.0532ZM98.1043 37.7873L94.2025 37.6251L95.0812 40.2199L98.1043 37.7873Z" fill="#B1B1B1"/>
</g>
<g style="mix-blend-mode:multiply">
<path d="M94.0239 55.3321C94.1728 55.2731 94.2473 55.1994 94.2473 55.0962C94.2473 55.0372 94.2324 54.993 94.2026 54.9487C94.1728 54.9045 94.1132 54.816 94.0239 54.6981C93.8005 54.418 93.6367 54.1231 93.5175 53.8282C93.3984 53.5334 93.3388 53.1943 93.3388 52.8257C93.3239 52.0001 93.4877 51.2924 93.8154 50.6879C94.1579 50.0834 94.6344 49.6264 95.2897 49.302C95.9301 48.9777 96.7045 48.8155 97.6129 48.8008C98.5511 48.786 99.3702 48.9335 100.07 49.2578C100.77 49.5822 101.321 50.0245 101.708 50.6142C102.095 51.2039 102.304 51.8674 102.304 52.6045C102.304 52.9289 102.274 53.2238 102.215 53.4744C102.155 53.725 102.066 53.9462 101.961 54.1378C101.857 54.3295 101.723 54.5507 101.544 54.7866C101.47 54.8898 101.425 54.9782 101.425 55.0372C101.425 55.1846 101.678 55.2878 102.17 55.3321V55.6122C101.649 55.5827 100.71 55.5827 99.3702 55.6122V55.3321C99.802 55.2583 100.159 55.1699 100.442 55.0814C100.725 54.993 100.964 54.8603 101.172 54.6981C101.455 54.4622 101.693 54.1526 101.857 53.7693C102.021 53.3859 102.095 53.0026 102.095 52.5898C102.081 52.059 101.902 51.602 101.544 51.2039C101.187 50.8059 100.681 50.511 100.04 50.2898C99.3851 50.0834 98.6405 49.9802 97.7767 49.995C96.7938 50.0097 96.0045 50.1277 95.3791 50.3488C94.7536 50.57 94.3068 50.8943 94.009 51.3219C93.7111 51.7494 93.5771 52.2949 93.592 52.9584C93.6069 53.4449 93.7409 53.8577 93.9941 54.2116C94.0983 54.359 94.1877 54.4475 94.2919 54.4917C94.3813 54.5359 94.5153 54.5507 94.6791 54.5507L95.8556 54.5359C96.1981 54.5359 96.4364 54.4917 96.6002 54.4327C96.7491 54.3737 96.8683 54.2558 96.913 54.0789C96.9725 53.9167 97.0023 53.6513 97.0023 53.2975H97.2406C97.2257 53.6956 97.2108 54.2558 97.2257 55.0077C97.2406 55.568 97.2555 55.9955 97.2853 56.2609H97.047C97.0321 56.0692 96.9874 55.9365 96.9427 55.8628C96.8981 55.7891 96.7938 55.7301 96.6598 55.7006C96.5258 55.6712 96.3024 55.6564 95.9896 55.6711L93.5771 55.7154V55.4795C93.7111 55.4205 93.8749 55.391 94.0239 55.3321Z" fill="#B1B1B1"/>
</g>
<g style="mix-blend-mode:multiply">
<path d="M92.2522 67.8782C91.8203 67.7455 91.314 67.6129 90.7332 67.4949C90.9268 66.9789 91.2097 66.109 91.6118 64.8706C92.0883 63.3963 92.4309 62.2758 92.6394 61.5239L92.8776 61.5976C92.8032 61.8777 92.7734 62.0841 92.7734 62.2315C92.7883 62.379 92.8479 62.4822 92.967 62.5706C93.0861 62.6591 93.2946 62.7476 93.5776 62.836L99.3409 64.6347C99.6387 64.7232 99.8472 64.7674 99.9961 64.7674C100.145 64.7674 100.264 64.7084 100.354 64.5905C100.443 64.4725 100.532 64.2809 100.636 64.0155L100.875 64.0892C100.607 64.8411 100.249 65.9469 99.7727 67.4212C99.4153 68.5417 99.1622 69.3526 99.043 69.8391C98.5516 69.6327 98.1048 69.4558 97.6878 69.3378C97.39 69.2494 97.1368 69.1756 96.9581 69.1462L97.0475 68.8808C97.5687 68.984 97.9708 69.0282 98.2388 69.0282C98.5069 69.0282 98.7303 68.9398 98.909 68.7628C99.0877 68.6007 99.2366 68.3058 99.3706 67.9077L99.6685 66.9494C99.7579 66.6693 99.8025 66.4629 99.7876 66.3302C99.7727 66.1975 99.7281 66.0795 99.6089 65.9911C99.4898 65.9026 99.2962 65.8142 98.9983 65.7257L96.2582 64.8706L96.0199 65.6373C95.9008 66.0206 95.9305 66.3154 96.1241 66.5218C96.3177 66.7283 96.5262 66.8757 96.7645 66.9789C97.0028 67.0821 97.1517 67.1558 97.2113 67.1853L97.1219 67.4507C96.7496 67.3032 96.3922 67.1706 96.0348 67.0674L95.4838 66.9052C95.0966 66.7872 94.5307 66.6251 93.8158 66.4629L93.9052 66.1975C93.9648 66.2122 94.1584 66.2417 94.486 66.3154C94.8136 66.3744 95.0966 66.3449 95.32 66.227C95.5433 66.109 95.6923 65.8879 95.7965 65.5783L96.0348 64.8116L93.2351 63.9418C92.9372 63.8533 92.7287 63.8091 92.5798 63.8091C92.4309 63.8091 92.3117 63.8681 92.2373 63.986C92.1479 64.1039 92.0586 64.2956 91.9692 64.5757L91.7011 65.4161C91.5522 65.9026 91.4927 66.286 91.5522 66.5661C91.5969 66.8609 91.7458 67.0968 91.999 67.3032C92.2522 67.4949 92.6394 67.7161 93.1606 67.952L93.0712 68.2173C92.8925 68.0846 92.6096 67.9962 92.2522 67.8782Z" fill="#B1B1B1"/>
</g>
<g style="mix-blend-mode:multiply">
<path d="M88.0074 85.9683C88.067 85.8356 88.0521 85.7029 87.9925 85.5702C87.933 85.4375 87.784 85.2753 87.5607 85.0542L83.1823 80.9113C82.959 80.7049 82.7802 80.5722 82.6462 80.5132C82.5122 80.4543 82.3782 80.4543 82.2441 80.5132C82.1101 80.5722 81.9463 80.7049 81.7378 80.9113L81.5591 80.7491C81.842 80.4985 82.1994 80.1299 82.6611 79.6729C83.1377 79.1716 83.4951 78.7883 83.7185 78.5376L83.8972 78.6998C83.7036 78.921 83.5844 79.0979 83.5249 79.2158C83.4653 79.3485 83.4802 79.4812 83.5397 79.6139C83.5993 79.7466 83.7482 79.9088 83.9716 80.1299L88.3499 84.2728C88.5733 84.4792 88.752 84.6119 88.8861 84.6709C89.0201 84.7298 89.1541 84.7298 89.2882 84.6709C89.4222 84.6119 89.586 84.4792 89.7945 84.2728L89.9732 84.435C89.72 84.6561 89.3477 85.0247 88.8712 85.526C88.4095 85.9978 88.067 86.3811 87.8287 86.6612L87.65 86.499C87.8287 86.2779 87.9478 86.101 88.0074 85.9683Z" fill="#B1B1B1"/>
</g>
<g style="mix-blend-mode:multiply">
<path d="M75.6022 94.9618C75.6916 94.8291 75.7065 94.6964 75.6767 94.5342C75.6469 94.372 75.5426 94.1656 75.3788 93.8855L71.6855 87.6786L71.9238 87.5311L80.3528 91.7035L77.0914 86.219C76.9276 85.9536 76.7936 85.7619 76.6596 85.6587C76.5255 85.5555 76.3766 85.5113 76.2128 85.526C76.049 85.5408 75.8256 85.6292 75.5426 85.7767L75.4086 85.5703C75.6767 85.4523 76.0341 85.2459 76.4957 84.9805C76.9127 84.7299 77.2255 84.5382 77.4488 84.376L77.568 84.5825C77.3297 84.7299 77.1659 84.8773 77.0914 85.01C77.0021 85.1427 76.9872 85.2754 77.017 85.4376C77.0468 85.5997 77.151 85.8061 77.3148 86.0863L80.323 91.1432C80.472 91.4086 80.606 91.5855 80.7251 91.674C80.8443 91.7624 80.9634 91.8067 81.1123 91.7772C81.2464 91.7477 81.4549 91.674 81.708 91.5413L81.8272 91.7477C81.5889 91.8657 81.2613 92.0426 80.8294 92.2932C80.5166 92.4701 80.2486 92.647 80.0252 92.7945L72.9514 89.3003L75.6022 93.7528C75.766 94.0182 75.9 94.2098 76.0341 94.313C76.1532 94.4162 76.3021 94.4605 76.4808 94.4457C76.6596 94.431 76.8829 94.3425 77.1659 94.1951L77.285 94.4015C77.017 94.5194 76.6596 94.7259 76.1979 94.9912C75.7809 95.2419 75.4682 95.4335 75.2448 95.5957L75.1257 95.3893C75.349 95.2271 75.5129 95.0797 75.6022 94.9618Z" fill="#B1B1B1"/>
</g>
<g style="mix-blend-mode:multiply">
<path d="M67.4117 96.8929C67.516 97.3499 67.65 97.8512 67.8287 98.382C67.1585 98.4999 66.0416 98.7358 64.4631 99.0602C62.8845 99.3993 61.7824 99.6499 61.1272 99.8121C61.0527 99.2371 60.9783 98.7358 60.874 98.2788C60.7847 97.8807 60.7102 97.5563 60.6208 97.3205L60.8889 97.2615C61.0825 97.866 61.2612 98.2935 61.425 98.5736C61.5888 98.8538 61.7973 99.0307 62.0654 99.1191C62.3335 99.2076 62.7207 99.1929 63.2121 99.0896L63.8525 98.957L62.393 92.2488C62.3186 91.9244 62.2441 91.6885 62.1399 91.5558C62.0356 91.4231 61.9165 91.3347 61.7378 91.3199C61.5591 91.2904 61.291 91.3199 60.9336 91.3789L60.8889 91.143C61.3059 91.084 61.9016 90.9661 62.6462 90.8039C63.4355 90.627 64.0312 90.4943 64.4035 90.3911L64.4482 90.627C64.0907 90.7154 63.8525 90.8039 63.7035 90.8924C63.5546 90.9808 63.4653 91.1135 63.4355 91.2757C63.4057 91.4379 63.4206 91.6885 63.4951 92.0129L64.9545 98.7211L65.5949 98.5884C66.0863 98.4852 66.4437 98.3377 66.6522 98.1461C66.8607 97.9544 66.9798 97.7038 67.0096 97.3942C67.0394 97.0846 67.0245 96.6128 66.9501 95.9936L67.2181 95.9346C67.2628 96.1705 67.3224 96.4948 67.4117 96.8929Z" fill="#B1B1B1"/>
</g>
<g style="mix-blend-mode:multiply">
<path d="M47.6495 92.7502C47.6942 92.2932 47.7091 91.7771 47.7091 91.2021C48.2601 91.2759 49.1834 91.3643 50.4939 91.4823C52.0427 91.615 53.2192 91.7182 54.0234 91.7624L54.0085 91.9983C53.7107 91.9835 53.5022 91.9983 53.3681 92.0425C53.2341 92.0867 53.1299 92.1605 53.0703 92.2932C53.0107 92.4258 52.9661 92.647 52.9363 92.9419L52.4001 98.9129C52.3704 99.2078 52.3853 99.4289 52.415 99.5764C52.4448 99.7238 52.5342 99.827 52.6682 99.886C52.8022 99.9449 53.0107 100.004 53.2937 100.033L53.2788 100.269C52.4895 100.181 51.313 100.063 49.7642 99.9302C48.5728 99.827 47.724 99.768 47.2177 99.7385C47.3219 99.2225 47.3964 98.7507 47.4261 98.3232C47.4559 98.0136 47.4708 97.7629 47.4559 97.5713L47.7389 97.6007C47.7538 98.1315 47.7836 98.5148 47.858 98.7802C47.9176 99.0456 48.0516 99.2373 48.2601 99.3699C48.4537 99.5026 48.7813 99.5911 49.1983 99.6206L50.211 99.709C50.5088 99.7385 50.7173 99.7238 50.8514 99.6943C50.9854 99.6648 51.0896 99.5763 51.1492 99.4437C51.2088 99.311 51.2534 99.0898 51.2832 98.795L51.5364 95.9642L50.7322 95.8905C50.3301 95.861 50.0472 95.9495 49.8834 96.1854C49.7344 96.4213 49.6153 96.6572 49.5706 96.9078C49.5111 97.1585 49.4813 97.3206 49.4664 97.3943L49.1834 97.3649C49.243 96.9668 49.2877 96.5982 49.3324 96.2296L49.377 95.6546C49.4068 95.2418 49.4366 94.6816 49.4664 93.9444L49.7493 93.9739C49.7493 94.0329 49.7642 94.2245 49.7642 94.5636C49.7791 94.9027 49.8536 95.1681 50.0323 95.345C50.1961 95.5367 50.4493 95.6399 50.7769 95.6694L51.5811 95.7431L51.8342 92.8534C51.864 92.5585 51.8491 92.3374 51.8194 92.1899C51.7896 92.0573 51.7002 91.9541 51.5662 91.8951C51.4322 91.8361 51.2237 91.7919 50.9407 91.7624L50.0472 91.6887C49.5408 91.6444 49.1536 91.6739 48.8707 91.7919C48.6026 91.8951 48.3941 92.1015 48.2452 92.3816C48.0963 92.6617 47.9772 93.0893 47.858 93.6495L47.5751 93.6201C47.5751 93.3989 47.6049 93.104 47.6495 92.7502Z" fill="#B1B1B1"/>
</g>
<g style="mix-blend-mode:multiply">
<path d="M35.9296 87.2805C36.153 87.2363 36.4062 87.2805 36.6742 87.3984C36.9869 87.5311 37.1954 87.7228 37.3146 87.9734C37.4337 88.2388 37.4486 88.6074 37.3741 89.0939L37.1508 90.3029C37.0763 90.7304 37.0316 91.0548 37.0167 91.3054C37.0018 91.5413 37.0614 91.7625 37.1657 91.9541C37.2699 92.1458 37.4635 92.2932 37.7465 92.4112L38.8187 92.8535L39.9058 90.2881C40.025 90.008 40.0845 89.8016 40.0994 89.6542C40.1143 89.5067 40.0547 89.3888 39.9505 89.2856C39.8463 89.1824 39.6676 89.0792 39.3995 88.9612L39.4888 88.7401C39.8314 88.9023 40.293 89.1087 40.9036 89.3593C41.544 89.6247 42.0354 89.8163 42.363 89.9196L42.2737 90.1407C41.9907 90.0375 41.7822 89.9933 41.6482 89.9785C41.4993 89.9785 41.3802 90.0228 41.2908 90.1407C41.1866 90.2439 41.0823 90.4356 40.9632 90.7157L38.6251 96.2444C38.506 96.5246 38.4464 96.731 38.4315 96.8784C38.4166 97.0258 38.4762 97.1438 38.5804 97.247C38.6847 97.3502 38.8634 97.4534 39.1314 97.5861L39.0421 97.8072C38.7293 97.6598 38.2826 97.4534 37.6869 97.2027C37.389 97.0848 37.0763 96.9521 36.7189 96.8047C36.3615 96.6573 36.1232 96.5688 35.9892 96.5098C35.4084 96.2592 34.9467 95.9791 34.6042 95.64C34.2617 95.3009 34.0681 94.947 33.9787 94.5637C33.8894 94.1804 33.934 93.8118 34.0979 93.4432C34.217 93.1483 34.4106 92.883 34.6787 92.6471C34.9467 92.4112 35.2892 92.2343 35.7062 92.1458C36.1232 92.0573 36.6295 92.0721 37.1805 92.2048L37.0465 92.131C36.7338 91.9394 36.4955 91.7477 36.3466 91.5413C36.1977 91.3497 36.0934 91.1285 36.0636 90.8926C36.019 90.6567 36.0338 90.3618 36.0934 90.008L36.3019 88.7548C36.3466 88.5042 36.3764 88.3125 36.3764 88.1651C36.3764 88.0177 36.3615 87.8997 36.3168 87.8113C36.2721 87.7228 36.1977 87.6491 36.0934 87.6196C35.9743 87.5606 35.8551 87.5606 35.7509 87.5901C35.6466 87.6196 35.4977 87.6933 35.3041 87.7965L35.185 87.6048C35.453 87.4427 35.7062 87.3247 35.9296 87.2805ZM36.6742 92.5291C36.3168 92.5733 36.0338 92.706 35.8105 92.9272C35.5871 93.1483 35.3935 93.4432 35.2297 93.8265C34.9765 94.431 34.9169 94.9618 35.0807 95.3893C35.2446 95.8169 35.6466 96.1707 36.3168 96.4508C36.5551 96.554 36.7338 96.5983 36.8827 96.5835C37.0167 96.5835 37.1359 96.5246 37.2401 96.4066C37.3444 96.2887 37.4486 96.097 37.5529 95.8316L38.7144 93.0894L37.9549 92.7798C37.4635 92.5733 37.0316 92.4849 36.6742 92.5291Z" fill="#B1B1B1"/>
</g>
<g style="mix-blend-mode:multiply">
<path d="M24.3133 89.2854C24.4474 89.3296 24.5814 89.3001 24.7005 89.2264C24.8197 89.1527 24.9835 88.9905 25.1771 88.7546L28.915 84.0368C29.1086 83.8009 29.2278 83.6092 29.2725 83.4765C29.3171 83.3438 29.3022 83.2111 29.2278 83.0932C29.1533 82.9752 29.0044 82.8131 28.781 82.6214L28.9299 82.4297C29.2129 82.6804 29.6001 83.0047 30.1213 83.4028C30.6723 83.8303 31.0893 84.14 31.3723 84.3316L31.2233 84.5233C30.9851 84.3464 30.7915 84.2432 30.6574 84.2137C30.5234 84.1694 30.3894 84.1842 30.2702 84.2726C30.1511 84.3464 29.9873 84.5085 29.7937 84.7444L26.0557 89.4623C25.8621 89.6982 25.743 89.8899 25.6983 90.0225C25.6536 90.1552 25.6685 90.2879 25.743 90.4059C25.8175 90.5238 25.9664 90.686 26.1898 90.8777L26.0408 91.0693C25.7877 90.8482 25.3856 90.5238 24.8346 90.0815C24.3133 89.6834 23.8964 89.3738 23.5985 89.1674L23.7474 88.9758C24.0006 89.1379 24.1793 89.2411 24.3133 89.2854Z" fill="#B1B1B1"/>
</g>
<g style="mix-blend-mode:multiply">
<path d="M14.6932 78.7886C14.6337 78.1251 14.7826 77.4617 15.1251 76.8277C15.4825 76.179 16.0186 75.604 16.7633 75.0585C17.493 74.5425 18.2227 74.2034 18.9822 74.0707C19.7417 73.938 20.4416 73.9823 21.0969 74.2329C21.7522 74.4835 22.3032 74.9111 22.735 75.5156C23.1967 76.1348 23.4499 76.7835 23.5094 77.4469C23.569 78.1104 23.4201 78.7738 23.0776 79.4078C22.7201 80.0565 22.184 80.6315 21.4394 81.177C20.7097 81.693 19.98 82.0321 19.2205 82.1648C18.4759 82.2975 17.761 82.2533 17.1058 82.0026C16.4505 81.752 15.8995 81.3244 15.4676 80.7347C15.006 80.1007 14.7528 79.452 14.6932 78.7886ZM16.9271 81.4129C17.4483 81.5161 18.044 81.4719 18.6992 81.2655C19.3545 81.0591 20.0098 80.72 20.6948 80.2187C21.3798 79.7322 21.916 79.2014 22.2883 78.6412C22.6755 78.0809 22.884 77.5207 22.9137 76.9899C22.9584 76.4591 22.8244 75.9874 22.5414 75.5893C22.2287 75.1765 21.8266 74.9111 21.2905 74.8079C20.7693 74.7047 20.1736 74.7489 19.5183 74.9553C18.8631 75.1617 18.2078 75.5008 17.5228 75.9874C16.8377 76.4739 16.3016 77.0046 15.9293 77.5796C15.5421 78.1399 15.3336 78.6854 15.2889 79.2309C15.2442 79.7616 15.3783 80.2334 15.6612 80.6315C15.974 81.0443 16.3909 81.3097 16.9271 81.4129Z" fill="#B1B1B1"/>
</g>
<g style="mix-blend-mode:multiply">
<path d="M15.8398 61.0375C16.0185 61.1702 16.1526 61.3913 16.2419 61.6862C16.3462 61.9958 16.3313 62.2907 16.2121 62.5413C16.093 62.8067 15.8101 63.0573 15.3782 63.3079L14.291 63.9124C13.9187 64.1336 13.6358 64.3105 13.4422 64.4579C13.2486 64.6054 13.1146 64.7823 13.0401 64.9887C12.9656 65.1951 12.9656 65.431 13.055 65.7258L13.3975 66.8316L16.0781 66.006C16.376 65.9175 16.5696 65.8291 16.6887 65.7406C16.8078 65.6521 16.8674 65.5342 16.8823 65.4015C16.8972 65.2688 16.8525 65.0477 16.7781 64.7675L17.0163 64.6938C17.1057 65.0477 17.2397 65.5489 17.4482 66.1681C17.6567 66.8316 17.8205 67.3181 17.9396 67.6277L17.7014 67.7014C17.5971 67.4213 17.5078 67.2297 17.4184 67.1265C17.3291 67.0233 17.2099 66.9495 17.061 66.9495C16.9121 66.9495 16.6887 66.979 16.4057 67.0822L10.6276 68.8514C10.3297 68.9399 10.1361 69.0284 10.017 69.1168C9.89784 69.2053 9.83827 69.3232 9.82338 69.4559C9.80848 69.6033 9.85316 69.8097 9.92762 70.0899L9.68935 70.1636C9.61488 69.8392 9.48085 69.3674 9.28725 68.7482C9.1979 68.4534 9.07876 68.1143 8.95963 67.7604C8.84049 67.4066 8.75113 67.1559 8.70646 67.0233C8.51286 66.4188 8.45329 65.888 8.49797 65.4162C8.54264 64.9445 8.69157 64.5611 8.92984 64.2515C9.16812 63.9419 9.48085 63.7355 9.86805 63.6176C10.1659 63.5291 10.4935 63.4996 10.8509 63.5438C11.2084 63.5881 11.5509 63.7355 11.9083 64.0009C12.2657 64.2663 12.5635 64.6496 12.8167 65.1656L12.8018 65.0182C12.7571 64.6496 12.7423 64.3547 12.8018 64.1041C12.8614 63.8534 12.9656 63.647 13.1146 63.4701C13.2784 63.2932 13.5167 63.1015 13.8294 62.9246L14.9314 62.2759C15.1548 62.158 15.3335 62.04 15.4377 61.9516C15.542 61.8631 15.6313 61.7746 15.676 61.6862C15.7207 61.5977 15.7207 61.4945 15.6909 61.3913C15.6462 61.2586 15.5867 61.1702 15.4973 61.1112C15.408 61.0522 15.259 60.9785 15.0506 60.9048L15.125 60.6836C15.4229 60.7868 15.676 60.9048 15.8398 61.0375ZM12.2806 64.9887C12.0274 64.7528 11.7296 64.6201 11.4168 64.5906C11.1041 64.5611 10.7467 64.6054 10.3446 64.738C9.70424 64.9297 9.27236 65.2393 9.03409 65.6374C8.79581 66.0355 8.79581 66.581 9.0043 67.2444C9.07876 67.4803 9.16812 67.6572 9.25747 67.7604C9.34682 67.8636 9.48085 67.9226 9.62978 67.9226C9.7787 67.9226 10.0021 67.8784 10.2701 67.8047L13.1295 66.9201L12.8912 66.1387C12.7423 65.6079 12.5338 65.2246 12.2806 64.9887Z" fill="#B1B1B1"/>
</g>
<g style="mix-blend-mode:multiply">
<path d="M14.6931 47.046C15.259 46.7953 15.6015 46.3236 15.7504 45.6159C15.7951 45.3505 15.7951 45.0851 15.7207 44.8345C15.6462 44.5838 15.5122 44.3627 15.3037 44.171C15.0952 43.9794 14.8122 43.8467 14.4399 43.7877C14.1272 43.7287 13.8442 43.7582 13.5762 43.8614C13.3081 43.9646 13.0401 44.1268 12.7869 44.348C12.5337 44.5691 12.2359 44.864 11.9083 45.2326C11.5359 45.6454 11.2083 45.9845 10.9254 46.2204C10.6424 46.471 10.3297 46.6479 9.98715 46.7806C9.64463 46.9133 9.25743 46.928 8.82556 46.8543C8.37879 46.7659 8.00649 46.6037 7.73842 46.3383C7.47036 46.0729 7.27677 45.7633 7.18741 45.3947C7.09806 45.0262 7.09806 44.6428 7.17252 44.23C7.2172 43.9794 7.27677 43.7877 7.35123 43.6108C7.42569 43.4339 7.50015 43.3012 7.5895 43.198C7.67886 43.0948 7.76821 42.9768 7.88735 42.8589C8.03627 42.6967 8.11073 42.5788 8.14052 42.4903C8.15541 42.4166 8.12562 42.3576 8.05116 42.2986C7.9767 42.2397 7.84267 42.1954 7.66396 42.1365L7.70864 41.8711C8.1703 41.989 8.97448 42.1659 10.151 42.3871L10.1063 42.6525C9.68931 42.6082 9.30211 42.623 8.91491 42.7114C8.54261 42.7852 8.21498 42.9473 7.94692 43.198C7.67886 43.4339 7.50015 43.773 7.42569 44.1858C7.36612 44.4659 7.38101 44.7165 7.45547 44.9672C7.52993 45.2178 7.66396 45.4095 7.84267 45.5717C8.03627 45.7338 8.25965 45.837 8.52771 45.896C8.95959 45.9697 9.33189 45.9107 9.64463 45.7043C9.95737 45.4979 10.2552 45.2326 10.5382 44.9229C10.8211 44.6133 10.9998 44.4069 11.1041 44.3037C11.5211 43.8614 11.8636 43.5223 12.1465 43.2717C12.4295 43.0211 12.7422 42.8441 13.0847 42.7262C13.4273 42.6082 13.7996 42.5935 14.2017 42.6672C14.6931 42.7557 15.0952 42.9473 15.393 43.2275C15.6909 43.5223 15.8845 43.8614 15.9887 44.2742C16.093 44.6871 16.093 45.1294 16.0036 45.6011C15.9292 45.9845 15.8398 46.2793 15.7058 46.5152C15.5866 46.7511 15.4228 46.9575 15.2441 47.1492C15.0952 47.3114 15.0207 47.4293 14.9909 47.5178C14.9761 47.5915 15.0058 47.6505 15.0803 47.7094C15.1548 47.7684 15.2888 47.8274 15.4675 47.8716L15.4228 48.137C14.9909 48.019 14.0378 47.8274 12.5635 47.562L12.6082 47.2966C13.4422 47.3703 14.1272 47.2966 14.6931 47.046Z" fill="#B1B1B1"/>
</g>
<g style="mix-blend-mode:multiply">
<path d="M11.7445 34.6175C11.3275 34.3964 10.8509 34.19 10.3148 33.9836C10.6424 33.4086 11.1935 32.4061 11.9381 30.976C12.6827 29.5606 13.2039 28.558 13.4869 27.9536C13.9783 28.2632 14.4251 28.5286 14.8272 28.735C15.1846 28.9266 15.4973 29.0593 15.7356 29.1625L15.6016 29.4132C15.0059 29.1773 14.5591 29.0298 14.2464 28.9856C13.9336 28.9266 13.6507 28.9856 13.4124 29.133C13.1741 29.2805 12.9359 29.5753 12.7125 30.0176L12.4146 30.6074L18.5651 33.7772C18.863 33.9394 19.1012 34.0131 19.2651 34.0278C19.4289 34.0426 19.5778 33.9983 19.7118 33.8804C19.8459 33.7624 19.9948 33.5413 20.1735 33.2317L20.3969 33.3496C20.1735 33.7182 19.8905 34.2342 19.5331 34.9124C19.1608 35.6201 18.8927 36.1656 18.7289 36.5047L18.5056 36.3867C18.6545 36.0624 18.7587 35.8118 18.7736 35.6496C18.8034 35.4727 18.7587 35.3252 18.6396 35.1925C18.5204 35.0599 18.3268 34.9272 18.029 34.765L11.8785 31.5804L11.5658 32.1554C11.3275 32.5977 11.2232 32.9516 11.2381 33.2317C11.253 33.5118 11.3722 33.7624 11.5956 33.9836C11.8189 34.2047 12.1912 34.4996 12.7274 34.8387L12.5933 35.0893C12.3997 34.9714 12.1019 34.8092 11.7445 34.6175Z" fill="#B1B1B1"/>
</g>
<g style="mix-blend-mode:multiply">
<path d="M22.2582 17.6771C22.5114 17.4265 22.7199 17.1906 22.8688 17.0137L23.0475 17.1906C22.9581 17.3233 22.9135 17.515 22.9284 17.7361C22.9432 17.9573 23.0028 18.2669 23.122 18.6355L24.4771 22.6309L26.0557 24.1789C26.2791 24.3853 26.4429 24.5328 26.5769 24.5918C26.711 24.6507 26.845 24.6507 26.979 24.5918C27.1131 24.5328 27.2769 24.4001 27.5003 24.2084L27.679 24.3853C27.396 24.636 27.0237 24.9898 26.5621 25.4469C26.0706 25.9334 25.7132 26.3167 25.4898 26.5674L25.3111 26.3904C25.5047 26.1693 25.6387 26.0071 25.6983 25.8744C25.7579 25.7417 25.7579 25.609 25.6834 25.4764C25.6238 25.3437 25.4749 25.1667 25.2664 24.9603L23.9559 23.6777L18.9819 22.2328C18.6841 22.1444 18.4607 22.1149 18.3118 22.1296C18.1628 22.1444 18.0586 22.1886 17.9841 22.2623L17.8054 22.0854C18.0437 21.879 18.3118 21.6431 18.5798 21.363C19.1308 20.8027 19.5329 20.4046 19.7563 20.1393L19.935 20.3162C19.5329 20.7143 19.4436 21.0239 19.6669 21.245C19.7563 21.3335 19.8754 21.3925 20.0541 21.4514L24.2389 22.7341L23.1368 19.4758C22.973 19.004 22.8092 18.6797 22.6305 18.5175C22.4667 18.3553 22.288 18.3111 22.0944 18.3701C21.9008 18.429 21.6774 18.5765 21.4093 18.8271L21.2306 18.6502C21.588 18.3258 21.9157 18.0015 22.2582 17.6771Z" fill="#B1B1B1"/>
</g>
<g style="mix-blend-mode:multiply">
<path d="M31.2684 11.7358C31.179 11.839 31.1344 11.9717 31.1641 12.1191C31.1939 12.2665 31.2684 12.4729 31.4173 12.7383L34.2915 18.0164C34.4404 18.2818 34.5596 18.4587 34.6787 18.5619C34.7829 18.6651 34.917 18.6946 35.051 18.6799C35.185 18.6651 35.3935 18.5767 35.6467 18.444L36.436 18.0164C36.8828 17.7805 37.1955 17.5299 37.3593 17.2792C37.5231 17.0286 37.5827 16.7485 37.538 16.4094C37.4933 16.0703 37.3593 15.6427 37.121 15.0825L37.3742 14.9498C37.4784 15.1857 37.6274 15.4806 37.821 15.8344C38.0444 16.2325 38.3124 16.6748 38.64 17.1613C38.1486 17.3972 37.3146 17.8247 36.1679 18.444C34.7978 19.1811 33.7554 19.7414 33.0703 20.1395L32.9512 19.933C33.2044 19.7856 33.3831 19.6529 33.4724 19.5497C33.5618 19.4465 33.6065 19.3138 33.5767 19.1664C33.5469 19.019 33.4724 18.8126 33.3235 18.5472L30.4195 13.2691C30.2706 13.0037 30.1515 12.8268 30.0323 12.7236C29.9281 12.6204 29.7941 12.5909 29.66 12.6056C29.5111 12.6204 29.3175 12.6941 29.0494 12.8268L28.9452 12.6056C29.2579 12.4729 29.7196 12.237 30.3302 11.8979C30.911 11.5883 31.3577 11.3377 31.6705 11.146L31.7896 11.3524C31.5364 11.4999 31.3726 11.6326 31.2684 11.7358Z" fill="#B1B1B1"/>
</g>
<g style="mix-blend-mode:multiply">
<path d="M49.4071 12.6792C49.4964 13.1215 49.6304 13.6227 49.7943 14.183C49.2432 14.2714 48.3348 14.4336 47.0541 14.6843C45.5202 14.9791 44.3735 15.215 43.5842 15.3919L43.5395 15.156C43.8225 15.0823 44.031 15.0233 44.1501 14.9349C44.2692 14.8612 44.3437 14.7432 44.3586 14.6105C44.3735 14.4631 44.3586 14.242 44.299 13.9471L43.1374 8.06453C43.0779 7.76966 43.0183 7.56326 42.9289 7.43057C42.8396 7.29788 42.7502 7.22416 42.6013 7.20942C42.4673 7.17993 42.2439 7.19468 41.9609 7.23891L41.9163 7.00301C42.7055 6.87032 43.8671 6.66392 45.3862 6.36905C46.5626 6.13316 47.3966 5.97098 47.8732 5.85303C47.9178 6.38379 47.9923 6.85558 48.0668 7.26839C48.1263 7.578 48.1859 7.81389 48.2455 7.99081L47.9774 8.04979C47.8136 7.54852 47.6647 7.17993 47.5306 6.94404C47.3966 6.70815 47.203 6.56071 46.9796 6.487C46.7413 6.41328 46.4286 6.41328 45.9967 6.50174L44.999 6.6934C44.716 6.75238 44.5075 6.81135 44.3884 6.88507C44.2692 6.95878 44.1948 7.06199 44.165 7.20942C44.1501 7.35685 44.165 7.578 44.2246 7.87287L44.7756 10.6741L45.5649 10.5119C45.9669 10.4382 46.2052 10.2613 46.2946 9.99591C46.3839 9.73053 46.4137 9.47989 46.3988 9.22925C46.3839 8.97862 46.369 8.81644 46.369 8.74272L46.6371 8.68375C46.6818 9.08182 46.7413 9.4504 46.8158 9.80424L46.9349 10.3645C47.0094 10.7625 47.1434 11.3228 47.337 12.0305L47.069 12.0894C47.0541 12.0305 46.9945 11.8535 46.8903 11.5292C46.786 11.2048 46.6371 10.9837 46.4137 10.851C46.1903 10.7183 45.9372 10.6888 45.6095 10.7478L44.8202 10.8952L45.3862 13.7407C45.4457 14.0355 45.5053 14.242 45.5797 14.3746C45.6542 14.4926 45.7585 14.5663 45.9074 14.5958C46.0414 14.6105 46.2648 14.5958 46.5477 14.5368L47.4264 14.3599C47.9178 14.2567 48.2901 14.124 48.5284 13.9471C48.7667 13.7702 48.9007 13.5195 48.9603 13.2099C49.0199 12.9003 49.0199 12.458 48.9752 11.883L49.2432 11.824C49.2879 12.0452 49.3326 12.3253 49.4071 12.6792Z" fill="#B1B1B1"/>
</g>
<g style="mix-blend-mode:multiply">
<path d="M39.3693 68.984C38.6843 68.0699 38.0886 67.0674 37.5673 65.9616C37.0461 64.8559 36.6291 63.7354 36.3164 62.5854C35.6313 57.5285 35.6165 52.6189 36.2568 47.8568C36.8972 43.0947 37.9396 38.4064 39.3693 33.777C39.6076 33.2609 40.1288 33.0103 40.933 33.0103C41.7372 33.0103 42.5265 33.1872 43.3306 33.5411C44.1348 33.8949 44.7901 34.3667 45.3113 34.9564C45.8325 35.5462 45.9517 36.1654 45.6687 36.7993C45.222 37.7429 44.7901 39.0256 44.3582 40.6179C43.9263 42.2249 43.4944 43.9941 43.1073 45.9255C42.7052 47.8568 42.3626 49.8914 42.0648 51.9997C41.767 54.108 41.5436 56.1426 41.4095 58.074C41.2755 60.0053 41.2457 61.7598 41.3202 63.3226C41.3946 64.8854 41.6329 66.1238 42.035 67.0231C43.9114 64.5315 45.624 61.9514 47.1877 59.2829C48.7514 56.6144 50.2108 53.9163 51.5809 51.1593C52.951 48.4171 54.2615 45.6453 55.4976 42.8294C56.7337 40.0281 57.9548 37.2564 59.1462 34.5289C59.7419 33.143 60.3376 31.6834 60.9184 30.1501C61.4992 28.6021 62.2587 27.2899 63.2267 26.1842C63.6288 25.8303 63.9415 25.7124 64.15 25.8303C64.3734 25.9483 64.5223 26.1694 64.5968 26.5085C64.6712 26.8476 64.7159 27.2014 64.7159 27.57C64.7159 27.9386 64.7159 28.2335 64.7159 28.4251C64.4329 30.2386 64.1947 32.0373 64.0011 33.8212C63.8075 35.6051 63.3756 37.3154 62.7501 38.9814C61.7077 41.5909 60.6503 44.171 59.5483 46.7511C58.4463 49.3164 57.2698 51.8523 56.0188 54.3439C54.7679 56.8355 53.3978 59.2534 51.9532 61.5976C50.4938 63.9565 48.9152 66.1975 47.1877 68.3206C45.8325 70.016 44.4773 70.9154 43.1519 71.0186C41.767 71.1365 40.5309 70.4436 39.3693 68.984Z" fill="#B1B1B1"/>
<path d="M39.3693 68.984C38.6843 68.0699 38.0886 67.0674 37.5673 65.9616C37.0461 64.8559 36.6291 63.7354 36.3164 62.5854C35.6313 57.5285 35.6165 52.6189 36.2568 47.8568C36.8972 43.0947 37.9396 38.4064 39.3693 33.777C39.6076 33.2609 40.1288 33.0103 40.933 33.0103C41.7372 33.0103 42.5265 33.1872 43.3306 33.5411C44.1348 33.8949 44.7901 34.3667 45.3113 34.9564C45.8325 35.5462 45.9517 36.1654 45.6687 36.7993C45.222 37.7429 44.7901 39.0256 44.3582 40.6179C43.9263 42.2249 43.4944 43.9941 43.1073 45.9255C42.7052 47.8568 42.3626 49.8914 42.0648 51.9997C41.767 54.108 41.5436 56.1426 41.4095 58.074C41.2755 60.0053 41.2457 61.7598 41.3202 63.3226C41.3946 64.8854 41.6329 66.1238 42.035 67.0231C43.9114 64.5315 45.624 61.9514 47.1877 59.2829C48.7514 56.6144 50.2108 53.9163 51.5809 51.1593C52.951 48.4171 54.2615 45.6453 55.4976 42.8294C56.7337 40.0281 57.9548 37.2564 59.1462 34.5289C59.7419 33.143 60.3376 31.6834 60.9184 30.1501C61.4992 28.6021 62.2587 27.2899 63.2267 26.1842C63.6288 25.8303 63.9415 25.7124 64.15 25.8303C64.3734 25.9483 64.5223 26.1694 64.5968 26.5085C64.6712 26.8476 64.7159 27.2014 64.7159 27.57C64.7159 27.9386 64.7159 28.2335 64.7159 28.4251C64.4329 30.2386 64.1947 32.0373 64.0011 33.8212C63.8075 35.6051 63.3756 37.3154 62.7501 38.9814C61.7077 41.5909 60.6503 44.171 59.5483 46.7511C58.4463 49.3164 57.2698 51.8523 56.0188 54.3439C54.7679 56.8355 53.3978 59.2534 51.9532 61.5976C50.4938 63.9565 48.9152 66.1975 47.1877 68.3206C45.8325 70.016 44.4773 70.9154 43.1519 71.0186C41.767 71.1365 40.5309 70.4436 39.3693 68.984Z" stroke="white" stroke-miterlimit="10"/>
</g>
<g style="mix-blend-mode:multiply">
<path d="M64.0312 62.2904C63.227 61.1847 62.4377 60.0642 61.6633 58.9142C60.8889 57.7642 60.5017 56.5111 60.5017 55.1252C60.5017 53.5919 60.9485 52.1323 61.842 50.7612C62.7355 49.4048 63.7631 48.299 64.9247 47.4734C65.4013 47.1638 65.8927 46.8984 66.3841 46.7067C66.8756 46.5151 67.4117 46.5298 67.9776 46.7657C68.2159 46.8837 68.4691 46.9721 68.7222 47.0311C68.9754 47.0901 69.2137 47.1638 69.4073 47.2375C69.6009 47.3112 69.8243 47.4292 70.0625 47.5913C70.3008 47.7535 70.4199 47.9599 70.4199 48.2401C70.4199 49.3458 70.4497 50.2451 70.5093 50.9381C70.5689 51.631 70.6582 52.2207 70.7774 52.722C70.8965 53.2233 71.0156 53.6508 71.1348 54.0194C71.2539 54.4028 71.373 54.8008 71.4922 55.2284C71.5666 55.6265 71.5518 55.9655 71.4326 56.2309C71.3135 56.5111 71.0156 56.5405 70.5391 56.3489C69.6604 56.0393 69.0052 55.4053 68.5882 54.447C68.1712 53.4887 67.8585 52.6336 67.6649 51.8374C67.6202 51.6752 67.5308 51.4099 67.367 51.0118C67.2032 50.6137 67.1139 50.3336 67.0692 50.1862C66.7565 50.1125 66.3693 50.2157 65.9374 50.5105C65.5055 50.8054 65.1034 51.2182 64.7758 51.7195C64.4333 52.2355 64.2099 52.8252 64.1205 53.5034C64.0163 54.1816 64.1503 54.8451 64.5077 55.5232C64.6715 55.7591 64.8949 56.054 65.1928 56.3784C65.4906 56.7175 65.7885 57.0566 66.0863 57.4104C66.3841 57.7642 66.682 58.1181 66.9798 58.4424C67.2777 58.7668 67.5309 59.0469 67.7244 59.2386C67.9627 59.4745 68.1265 59.6071 68.201 59.6219C68.2755 59.6366 68.484 59.5924 68.7967 59.4745C69.1988 59.2828 69.8094 59.0174 70.6284 58.7078C71.4475 58.3982 72.3113 58.0738 73.2048 57.7642C74.0983 57.4546 74.9621 57.1892 75.7812 56.9681C76.6002 56.7469 77.2257 56.6437 77.6725 56.6437C77.9554 56.6437 78.149 56.7469 78.2682 56.9386C78.3873 57.0566 78.3724 57.2187 78.2086 57.4104C78.0448 57.6021 77.8363 57.8085 77.5831 58.0001C77.3299 58.1918 77.047 58.3687 76.7789 58.5309C76.496 58.6931 76.3173 58.7815 76.2428 58.8258C75.5578 59.2238 74.7089 59.6661 73.6665 60.1674C72.624 60.6539 71.7305 61.1405 70.971 61.6122C70.8965 61.686 70.7476 61.7744 70.5242 61.8481C70.3008 61.9219 70.137 62.0103 70.0179 62.084C70.4944 63.1455 70.8369 64.0744 71.0305 64.841C71.2241 65.6077 71.2986 66.3448 71.239 67.0673C71.1795 67.775 71.0305 68.4974 70.7923 69.2345C70.554 69.9717 70.2263 70.8121 69.8391 71.7556C69.2732 72.6697 68.7073 73.5396 68.1265 74.3652C67.5457 75.1908 66.9054 75.9427 66.1757 76.6209C65.4608 77.2991 64.6715 77.8299 63.8376 78.2132C63.0036 78.6113 62.0803 78.803 61.0825 78.803C60.5166 78.803 59.9805 78.7292 59.4593 78.5965C58.938 78.4639 58.5062 78.169 58.1487 77.7414C57.2254 76.7536 56.7191 75.6774 56.5999 74.5126C56.4808 73.3479 56.5851 72.1979 56.8978 71.048C57.1361 70.3403 57.4339 69.6916 57.7913 69.0871C58.67 67.5833 59.638 66.3154 60.6953 65.2686C61.7676 64.2366 62.8696 63.234 64.0312 62.2904ZM66.0714 64.959C65.6246 65.4013 65.029 66.0205 64.2694 66.8314C63.5099 67.6423 62.81 68.5269 62.1399 69.4704C61.4846 70.414 60.9485 71.3576 60.5315 72.2864C60.1145 73.2152 60.0103 74.0114 60.2039 74.6896C61.008 74.3357 61.8271 73.746 62.6611 72.9351C63.4951 72.1242 64.2397 71.2396 64.88 70.2666C65.5204 69.2935 65.9672 68.3352 66.2203 67.3916C66.4735 66.4333 66.4288 65.6224 66.0714 64.959Z" fill="#B1B1B1"/>
<path d="M64.0312 62.2904C63.227 61.1847 62.4377 60.0642 61.6633 58.9142C60.8889 57.7642 60.5017 56.5111 60.5017 55.1252C60.5017 53.5919 60.9485 52.1323 61.842 50.7612C62.7355 49.4048 63.7631 48.299 64.9247 47.4734C65.4013 47.1638 65.8927 46.8984 66.3841 46.7067C66.8756 46.5151 67.4117 46.5298 67.9776 46.7657C68.2159 46.8837 68.4691 46.9721 68.7222 47.0311C68.9754 47.0901 69.2137 47.1638 69.4073 47.2375C69.6009 47.3112 69.8243 47.4292 70.0625 47.5913C70.3008 47.7535 70.4199 47.9599 70.4199 48.2401C70.4199 49.3458 70.4497 50.2451 70.5093 50.9381C70.5689 51.631 70.6582 52.2207 70.7774 52.722C70.8965 53.2233 71.0156 53.6508 71.1348 54.0194C71.2539 54.4028 71.373 54.8008 71.4922 55.2284C71.5666 55.6265 71.5518 55.9655 71.4326 56.2309C71.3135 56.5111 71.0156 56.5405 70.5391 56.3489C69.6604 56.0393 69.0052 55.4053 68.5882 54.447C68.1712 53.4887 67.8585 52.6336 67.6649 51.8374C67.6202 51.6752 67.5308 51.4099 67.367 51.0118C67.2032 50.6137 67.1139 50.3336 67.0692 50.1862C66.7565 50.1125 66.3693 50.2157 65.9374 50.5105C65.5055 50.8054 65.1034 51.2182 64.7758 51.7195C64.4333 52.2355 64.2099 52.8252 64.1205 53.5034C64.0163 54.1816 64.1503 54.8451 64.5077 55.5232C64.6715 55.7591 64.8949 56.054 65.1928 56.3784C65.4906 56.7175 65.7885 57.0566 66.0863 57.4104C66.3841 57.7642 66.682 58.1181 66.9798 58.4424C67.2777 58.7668 67.5309 59.0469 67.7244 59.2386C67.9627 59.4745 68.1265 59.6071 68.201 59.6219C68.2755 59.6366 68.484 59.5924 68.7967 59.4745C69.1988 59.2828 69.8094 59.0174 70.6284 58.7078C71.4475 58.3982 72.3113 58.0738 73.2048 57.7642C74.0983 57.4546 74.9621 57.1892 75.7812 56.9681C76.6002 56.7469 77.2257 56.6437 77.6725 56.6437C77.9554 56.6437 78.149 56.7469 78.2682 56.9386C78.3873 57.0566 78.3724 57.2187 78.2086 57.4104C78.0448 57.6021 77.8363 57.8085 77.5831 58.0001C77.3299 58.1918 77.047 58.3687 76.7789 58.5309C76.496 58.6931 76.3173 58.7815 76.2428 58.8258C75.5578 59.2238 74.7089 59.6661 73.6665 60.1674C72.624 60.6539 71.7305 61.1405 70.971 61.6122C70.8965 61.686 70.7476 61.7744 70.5242 61.8481C70.3008 61.9219 70.137 62.0103 70.0179 62.084C70.4944 63.1455 70.8369 64.0744 71.0305 64.841C71.2241 65.6077 71.2986 66.3448 71.239 67.0673C71.1795 67.775 71.0305 68.4974 70.7923 69.2345C70.554 69.9717 70.2263 70.8121 69.8391 71.7556C69.2732 72.6697 68.7073 73.5396 68.1265 74.3652C67.5457 75.1908 66.9054 75.9427 66.1757 76.6209C65.4608 77.2991 64.6715 77.8299 63.8376 78.2132C63.0036 78.6113 62.0803 78.803 61.0825 78.803C60.5166 78.803 59.9805 78.7292 59.4593 78.5965C58.938 78.4639 58.5062 78.169 58.1487 77.7414C57.2254 76.7536 56.7191 75.6774 56.5999 74.5126C56.4808 73.3479 56.5851 72.1979 56.8978 71.048C57.1361 70.3403 57.4339 69.6916 57.7913 69.0871C58.67 67.5833 59.638 66.3154 60.6953 65.2686C61.7676 64.2366 62.8696 63.234 64.0312 62.2904ZM66.0714 64.959C65.6246 65.4013 65.029 66.0205 64.2694 66.8314C63.5099 67.6423 62.81 68.5269 62.1399 69.4704C61.4846 70.414 60.9485 71.3576 60.5315 72.2864C60.1145 73.2152 60.0103 74.0114 60.2039 74.6896C61.008 74.3357 61.8271 73.746 62.6611 72.9351C63.4951 72.1242 64.2397 71.2396 64.88 70.2666C65.5204 69.2935 65.9672 68.3352 66.2203 67.3916C66.4735 66.4333 66.4288 65.6224 66.0714 64.959Z" stroke="white" stroke-miterlimit="10"/>
</g>
<g style="mix-blend-mode:multiply">
<path d="M54.3211 86.2928C35.6909 86.2928 20.5306 71.2841 20.5306 52.8402C20.5306 34.3963 35.6909 19.3877 54.3211 19.3877C72.9513 19.3877 88.1116 34.3963 88.1116 52.8402C88.1116 71.2841 72.9513 86.2928 54.3211 86.2928ZM54.3211 20.862C36.51 20.862 22.0199 35.2072 22.0199 52.8402C22.0199 70.4732 36.51 84.8185 54.3211 84.8185C72.1323 84.8185 86.6224 70.4732 86.6224 52.8402C86.6224 35.2072 72.1323 20.862 54.3211 20.862Z" fill="#B1B1B1"/>
</g>
</g>
</g>
<defs>
<clipPath id="clip0_2_366">
<rect width="108" height="106" fill="white"/>
</clipPath>
</defs>
</svg>
