<svg width="152" height="47" viewBox="0 0 152 47" fill="none" xmlns="http://www.w3.org/2000/svg">
<g clip-path="url(#clip0_2_353)">
<path d="M22.0248 10.0714L23.1417 9.83549C23.4247 9.83549 23.6629 9.89446 23.8268 10.0124C23.9906 10.1304 24.0799 10.2483 24.0799 10.3515C24.0799 10.4547 24.0501 10.6169 24.0055 10.8086C23.9608 11.0002 23.5438 12.9758 22.7694 16.7059C21.995 20.436 21.4291 23.2224 21.0717 25.0506C22.7992 22.7212 24.8245 19.861 27.1328 16.4553C29.4411 13.0496 30.7963 10.7938 31.1835 9.67331C31.3027 9.31947 31.4665 9.05409 31.6601 8.86243C31.8537 8.67076 32.0324 8.55282 32.1813 8.52333C32.3302 8.49385 32.5685 8.46436 32.8812 8.46436C33.194 8.46436 33.5663 8.53808 33.9982 8.67077C34.43 8.80346 34.6534 9.0246 34.6534 9.34896C34.6534 9.93869 33.7599 11.6637 31.9877 14.4944C30.2155 17.3251 28.1753 20.3328 25.8819 23.5173C23.5885 26.7019 21.6823 29.223 20.1484 31.0806C19.8803 31.405 19.5378 31.5819 19.1506 31.5819C18.7634 31.5819 18.3464 31.5082 17.9145 31.3755C17.4827 31.2428 17.2593 31.0069 17.2593 30.6531C17.2593 29.5473 18.2422 24.2103 20.2079 14.6713C18.5251 16.8239 16.4849 19.8315 14.0872 23.6795C11.5853 27.6602 10.1706 30.1371 9.84294 31.0806C9.66424 31.6556 9.45575 31.9947 9.21747 32.0832C9.05366 32.1569 8.87494 32.1864 8.69624 32.1864L7.48997 32.3191C7.25169 32.3191 7.0432 32.2601 6.83471 32.1274C6.64111 31.9947 6.53687 31.862 6.53687 31.7146C6.53687 31.3165 7.10278 30.1076 8.2197 28.1025C9.33661 26.0974 10.662 23.9154 12.1661 21.5565C13.6702 19.1975 15.2339 16.9123 16.8721 14.6861C18.5102 12.4598 19.7761 10.956 20.6696 10.2041C20.8483 10.0419 21.0568 9.96818 21.2951 9.96818L22.0248 10.0714Z" fill="#B1B1B1"/>
<path d="M39.925 20.0674C40.6994 20.0674 41.0866 20.3328 41.0866 20.8488C41.0866 21.1289 41.027 21.3353 40.893 21.468C40.759 21.6007 40.476 22.0283 40.0442 22.7802C39.6123 23.5174 39.1357 24.4609 38.6145 25.6257C38.0933 26.7756 37.7508 27.7634 37.6018 28.5743C37.572 28.6775 37.5572 28.8102 37.5572 29.0019C37.5572 29.5621 37.7061 29.8275 38.0188 29.8275C38.3315 29.8275 38.689 29.6801 39.1059 29.3999C39.5229 29.1051 39.8952 28.8102 40.2229 28.4711C40.5505 28.1468 40.8632 27.8077 41.176 27.4686C41.4887 27.1295 41.6674 26.9231 41.727 26.8788C41.7866 26.8346 41.8759 26.8051 41.995 26.8051C42.1886 26.8051 42.3078 26.9526 42.3525 27.2474C42.3971 27.5423 42.412 27.8372 42.412 28.1615C42.412 28.4859 42.3822 28.6923 42.3227 28.8102C42.0248 29.3852 41.3845 30.0781 40.3718 30.889C39.374 31.6999 38.4507 32.098 37.6316 32.098C36.8125 32.098 36.202 31.8473 35.8296 31.3608C35.4573 30.8743 35.2489 30.314 35.2489 29.7243C35.2489 29.1198 35.3531 28.6038 35.5616 28.1468C34.7127 29.2378 33.7447 30.1519 32.6576 30.9185C31.5556 31.6704 30.6769 32.0537 29.977 32.0537C29.2771 32.0537 28.7261 31.8473 28.2793 31.4345C27.7134 30.9185 27.4453 30.2108 27.4453 29.2967C27.4453 28.3827 27.6538 27.4686 28.0708 26.5397C28.4878 25.6257 29.0239 24.7705 29.6941 24.0186C30.3642 23.252 31.1088 22.559 31.913 21.9398C33.5958 20.6277 35.1595 19.979 36.5891 19.979C37.1402 19.979 37.5869 20.0674 37.9295 20.2443C38.272 20.4213 38.4954 20.6572 38.5847 20.9225C38.823 20.554 39.0315 20.3328 39.2102 20.2296C39.3442 20.1117 39.5974 20.0674 39.925 20.0674ZM37.8997 21.7482C36.1573 21.7482 34.3553 22.7065 32.4938 24.6231C31.8385 25.316 31.2279 26.1269 30.662 27.0852C30.0961 28.0436 29.8281 28.6923 29.8281 29.0461C29.8281 29.3999 29.9323 29.5769 30.1408 29.5769C30.4238 29.5769 31.2131 29.0166 32.5236 27.9109C33.8341 26.8051 34.6978 25.9795 35.1148 25.4487C35.5914 24.859 36.5147 23.6206 37.8997 21.7482Z" fill="#B1B1B1"/>
<path d="M51.5113 12.0762L52.1368 12.2237C52.2262 12.2237 52.3155 12.2679 52.3751 12.3564C52.4496 12.4448 52.4794 12.5333 52.4794 12.607C52.4794 12.6807 52.3751 12.9019 52.1517 13.2557C51.9283 13.6095 51.69 14.0076 51.3922 14.4499C51.0944 14.8922 50.9454 15.1428 50.9305 15.1871C51.7198 15.1281 52.2857 15.0986 52.6134 15.0986C52.941 15.0986 53.1644 15.1281 53.2984 15.1723C53.4175 15.2166 53.5665 15.3493 53.7154 15.5557C53.8792 15.7621 54.0132 15.9242 54.1473 16.0274C54.2813 16.1306 54.3409 16.2928 54.3409 16.4992C54.3409 16.7056 54.2068 16.8973 53.9537 17.03C53.7005 17.1774 53.4176 17.2659 53.1197 17.2954C50.7518 17.5313 49.4562 17.6492 49.2179 17.664C48.3989 18.9171 47.2373 20.8633 45.7629 23.5023C44.2886 26.1414 43.4993 27.8074 43.41 28.4708C43.3653 28.7804 43.3504 29.0163 43.3504 29.208C43.3504 29.606 43.5589 29.7977 43.9759 29.7977C44.3929 29.7977 44.8545 29.6355 45.3608 29.3259C45.8672 29.0016 46.3437 28.6625 46.7607 28.2939C47.9074 27.2913 48.518 26.7753 48.5925 26.7753C48.8605 26.7753 48.9946 27.2324 48.9946 28.1317C48.9946 28.6182 48.7712 29.0605 48.3095 29.4586C47.282 30.3285 46.4182 30.9919 45.7183 31.4342C45.0183 31.8765 44.3184 32.0977 43.6036 32.0977C43.4546 32.0977 43.3057 32.0829 43.1717 32.0534C42.3526 31.906 41.7569 31.6111 41.3846 31.1688C40.9974 30.7265 40.8187 30.1368 40.8187 29.3996C40.8187 28.6625 41.0421 27.7484 41.4889 26.6869C41.9356 25.6253 42.4866 24.4901 43.1568 23.2959C44.2588 21.335 45.3609 19.5069 46.448 17.7966L45.8672 17.8704C44.6907 18.003 44.0057 18.062 43.8121 18.062H43.678C43.3802 18.062 43.0972 18.003 42.8292 17.8851C42.5611 17.7672 42.4122 17.6197 42.4122 17.4575C42.4122 17.2806 42.4867 17.1184 42.6356 16.9563C42.7845 16.7941 42.8738 16.6614 42.9036 16.5729C42.9781 16.3518 43.2461 16.1012 43.7078 15.8358C44.1695 15.5704 44.512 15.423 44.7503 15.4082C44.9886 15.3935 45.2119 15.3787 45.4353 15.364C45.6587 15.3492 45.897 15.3492 46.165 15.3345C46.4331 15.3198 46.6416 15.3198 46.7905 15.305L48.1606 15.246C49.0094 13.9781 49.6051 13.1525 49.9179 12.7987C50.2455 12.4301 50.4242 12.2384 50.4689 12.2089C50.5136 12.1794 50.6178 12.1499 50.7816 12.1499L51.5113 12.0762Z" fill="#B1B1B1"/>
<path d="M60.67 26.8049C60.8636 26.8049 60.9827 26.9523 61.0274 27.2472C61.0721 27.542 61.087 27.8369 61.087 28.1613C61.087 28.4856 61.0572 28.692 60.9976 28.81C60.6997 29.3702 60.0594 30.0632 59.0616 30.874C58.0638 31.6849 57.1107 32.0977 56.2172 32.0977C55.6662 32.0977 55.1598 31.9356 54.6833 31.6112C54.2216 31.2869 53.9834 30.7119 53.9834 29.901C53.9834 29.0901 54.2067 28.2792 54.6386 27.4978C52.1069 30.6381 50.1412 32.2009 48.6966 32.2009C48.1307 32.2009 47.6691 31.9945 47.3116 31.5965C46.9542 31.1984 46.7904 30.7856 46.7904 30.3433C46.7904 29.9157 46.85 29.4734 46.9691 29.0164C47.0882 28.5593 47.2223 28.1465 47.3563 27.7779C47.4903 27.4094 47.6988 26.9671 47.9669 26.4363C48.2349 25.9055 48.4434 25.5222 48.5626 25.2716C48.6817 25.0209 48.9051 24.6671 49.2029 24.1806C49.5008 23.694 49.8731 23.0306 50.3496 22.205C50.8262 21.3793 51.2134 20.7601 51.5261 20.3621C51.8389 19.964 52.1367 19.7576 52.4346 19.7576C52.7324 19.7576 52.9856 19.8755 53.209 20.1114C53.4323 20.3473 53.5515 20.5537 53.5515 20.7011C53.5515 20.8486 53.209 21.5268 52.5239 22.7357C50.5135 26.3478 49.5008 28.4414 49.5008 29.0459C49.5008 29.1933 49.5604 29.267 49.6646 29.267C50.156 29.267 51.3772 28.2202 53.3132 26.1267C55.2492 24.0331 56.381 22.6915 56.6937 22.1018C57.0065 21.512 57.2894 21.0108 57.5873 20.6127C57.8702 20.2146 58.0936 19.964 58.2425 19.8755C58.6744 19.5954 59.2403 19.448 59.9403 19.4185C60.0594 19.4185 60.1339 19.4185 60.1934 19.4332C60.253 19.448 60.3274 19.5364 60.4019 19.6839C60.4764 19.8313 60.5211 19.964 60.5211 20.0672C60.4317 20.3473 60.0296 21.0992 59.2999 22.3229C58.585 23.5466 58.183 24.2395 58.1085 24.387C56.9022 26.8491 56.3065 28.4561 56.3065 29.1933C56.3065 29.6209 56.4704 29.8273 56.798 29.8273C57.3937 29.7535 58.1085 29.2818 58.9425 28.4266C59.2552 28.117 59.5531 27.7927 59.8509 27.4683C60.1488 27.144 60.3423 26.9523 60.4019 26.9081C60.4764 26.8344 60.5657 26.8049 60.67 26.8049Z" fill="#B1B1B1"/>
<path d="M65.093 23.311C67.4906 20.613 69.5458 19.2566 71.2286 19.2566C71.6456 19.2566 71.9881 19.3745 72.2562 19.6252C72.5242 19.8758 72.6582 20.1854 72.6582 20.5835C72.6582 20.9816 72.3753 21.6303 71.8094 22.5591C71.2435 23.4732 70.7223 24.2546 70.2457 24.8885C69.9925 25.2129 69.7096 25.3751 69.3819 25.3751C69.0692 25.3751 68.816 25.2571 68.6373 25.0212C68.4586 24.7853 68.3693 24.52 68.3693 24.2104C68.3693 23.5174 68.7416 22.7213 69.5011 21.8514L69.4713 21.8219C69.1288 21.8514 68.3097 22.5149 66.9694 23.7828C65.644 25.0655 64.5122 26.2154 63.574 27.218C62.6507 28.2353 61.638 29.459 60.536 30.9186C60.2232 31.3461 59.9552 31.5673 59.7318 31.5673C59.5084 31.5673 59.2254 31.4936 58.868 31.3609C58.5106 31.2282 58.2872 31.125 58.2128 31.066C58.1383 31.007 58.0936 30.9038 58.0936 30.7564C58.0936 30.6237 58.1383 30.4468 58.2128 30.2699C58.2872 30.0782 58.451 29.8128 58.6595 29.4737C58.868 29.1346 59.2106 28.5744 59.6573 27.8077C60.1041 27.0411 60.7891 25.8764 61.7273 24.3283C62.6655 22.7803 63.2166 21.8367 63.4102 21.5123C63.7974 20.8489 64.1101 20.3623 64.3633 20.0675C64.8249 19.4925 65.5993 19.2124 66.6865 19.2124C66.9247 19.2124 67.0588 19.3598 67.0588 19.6694C67.0588 20.1412 66.612 21.0405 65.7334 22.338L65.093 23.311Z" fill="#B1B1B1"/>
<path d="M81.5193 20.2442C81.5193 20.9076 81.2512 21.4973 80.7002 21.9986C80.1492 22.4999 79.5386 22.7505 78.8387 22.7505C78.6153 22.7505 78.4664 22.6915 78.3919 22.5883C78.3174 22.4851 78.2877 22.3377 78.2877 22.1755C78.2877 22.0133 78.3026 21.8364 78.3472 21.6743C77.9749 21.7922 77.5728 21.9839 77.1261 22.2345C76.6793 22.4851 76.1283 22.8537 75.473 23.355C74.8178 23.8563 74.4901 24.2101 74.4901 24.4607C74.4901 24.5345 74.6093 24.5787 74.8475 24.5787C75.0858 24.5787 75.4581 24.4902 75.9496 24.3281C76.441 24.1659 76.7984 24.0774 76.992 24.0774C77.1856 24.0774 77.3197 24.0922 77.3792 24.1069C77.5133 24.1806 77.6473 24.3281 77.8111 24.5639C77.96 24.7998 78.0345 24.9915 78.0345 25.1242C78.0345 25.2569 77.9005 25.4338 77.6324 25.6549C77.3644 25.8761 77.0665 26.0383 76.7389 26.1562C76.3963 26.2742 76.173 26.3626 76.0687 26.4216C73.9242 27.6158 72.852 28.4267 72.852 28.869C72.852 29.6504 73.5221 30.0485 74.8773 30.0485C75.7411 30.0485 76.6197 29.7831 77.4835 29.2376C78.2281 28.7805 78.8983 28.3087 79.4939 27.8222C80.0896 27.3504 80.4619 27.0556 80.6257 26.9376C80.7896 26.8197 80.9087 26.7754 80.9832 26.7754C81.2512 26.7754 81.3852 27.0703 81.3852 27.66C81.3852 28.2498 81.3555 28.6331 81.281 28.81C81.2065 29.0017 81.0129 29.2228 80.6704 29.503C78.4962 31.2574 76.4261 32.142 74.4901 32.142C73.4477 32.142 72.6286 31.9946 72.0031 31.7145C70.8564 31.1984 70.2905 30.417 70.2905 29.3555C70.2905 27.9697 71.2585 26.9081 73.2094 26.2004C72.8222 26.0235 72.5691 25.8171 72.4648 25.537C72.3457 25.2716 72.301 24.8441 72.301 24.2543C72.301 23.6646 72.5839 23.0454 73.135 22.3819C73.686 21.7185 74.371 21.173 75.1752 20.7602C76.9622 19.8019 78.5706 19.3301 79.9705 19.3301C80.313 19.3301 80.6406 19.4038 80.9981 19.566C81.3555 19.7281 81.5193 19.9493 81.5193 20.2442Z" fill="#B1B1B1"/>
<path d="M116.278 9.98296H116.471C116.531 9.98296 116.575 9.98296 116.59 9.9977C116.605 10.0125 116.62 10.0125 116.65 10.0272C116.68 10.0272 116.695 10.042 116.724 10.0714C116.769 10.1157 116.843 10.1599 116.933 10.2041C117.052 10.2926 117.112 10.3958 117.112 10.5137C117.112 10.6317 116.992 10.8823 116.754 11.2656C116.516 11.649 115.905 12.5778 114.907 14.0816C112.629 17.5316 110.589 20.7456 108.787 23.6943C105.674 28.8249 104.096 31.405 104.066 31.4345C104.036 31.464 104.021 31.4935 104.006 31.523C103.991 31.5819 103.962 31.6114 103.887 31.6114L103.679 31.5672L103.262 31.6704L103.023 31.6262L102.77 31.6704H102.681L101.832 31.7883C101.326 31.7883 101.073 31.6114 101.073 31.2723C101.073 31.1249 101.117 30.948 101.207 30.7416C101.519 30.0044 103.113 27.3359 105.972 22.7065C104.096 22.7507 102.234 22.7802 100.402 22.7802L97.1262 22.7654C96.59 23.6205 95.8454 24.8295 94.9072 26.407C92.8819 29.8422 91.8096 31.5672 91.6756 31.5967C91.5416 31.6262 91.4373 31.6557 91.348 31.6557C91.2586 31.6557 91.1842 31.6114 91.1246 31.5082C91.0501 31.4198 91.0054 31.3608 90.9757 31.3608C90.9459 31.3608 90.9012 31.3755 90.8118 31.4198C90.7374 31.464 90.6183 31.4787 90.4544 31.4787L90.097 31.464L89.963 31.3755C89.9481 31.3755 89.9332 31.3903 89.9183 31.4198C89.9034 31.4492 89.8588 31.464 89.7992 31.464C89.3673 31.464 89.1439 31.2871 89.1439 30.9185C89.1439 30.6826 89.2333 30.3582 89.3971 29.9602C89.5758 29.5621 89.7992 29.1345 90.0821 28.6775C90.3651 28.2205 91.0799 27.1147 92.2564 25.3897C93.418 23.6648 93.9988 22.7949 93.9988 22.7802C93.8052 22.7654 93.5818 22.7654 93.3286 22.7507C92.8074 22.7507 92.45 22.7359 92.2266 22.6917C91.6458 22.5885 91.2437 22.1167 91.0352 21.2764C90.9161 20.8635 90.8714 20.5982 90.8863 20.4655C90.8863 20.2001 91.0055 20.0527 91.2437 20.0527L91.6458 20.1559C91.8543 20.1706 92.3309 20.1854 93.1053 20.2296C93.8797 20.2738 94.4307 20.2886 94.7732 20.2886L95.6369 20.2591C96.9623 18.2097 98.5409 15.8803 100.388 13.2855C99.0473 14.3765 97.558 14.922 95.9199 14.922C95.1455 14.922 94.4753 14.7451 93.9243 14.3765C93.3584 14.0079 93.0904 13.5361 93.0904 12.9759C93.0904 12.4156 93.2989 11.9733 93.7307 11.6342C94.1626 11.3099 94.5647 11.1477 94.9519 11.1477C95.3391 11.1477 95.5327 11.2067 95.5327 11.3246C95.5327 11.3689 95.4731 11.4131 95.3689 11.4573C95.2646 11.5163 95.2051 11.5605 95.2051 11.6047C95.2051 11.7669 95.3838 11.9144 95.7412 12.0323C96.0986 12.1502 96.5007 12.224 96.9474 12.224C97.3942 12.224 97.9303 12.0913 98.5856 11.8406C99.2409 11.59 99.911 11.2509 100.611 10.8528C101.594 10.2926 102.368 9.82078 102.934 9.4522C103.262 9.29002 103.56 9.21631 103.857 9.21631C104.155 9.21631 104.349 9.24579 104.483 9.31951C104.617 9.37848 104.706 9.4522 104.766 9.51117C104.825 9.57015 104.9 9.65861 104.959 9.76181C105.034 9.86501 105.094 9.95347 105.168 9.9977C105.228 10.0567 105.272 10.1157 105.272 10.1894C105.272 10.2631 105.228 10.3663 105.153 10.5285C105.079 10.6759 104.691 11.2951 103.991 12.3714C103.292 13.4477 102.383 14.8188 101.281 16.4848C100.179 18.1508 99.3749 19.3745 98.8686 20.1706C101.594 20.1706 104.528 20.1264 107.685 20.0232C111.527 14.0226 113.552 10.8823 113.761 10.5875C113.969 10.2926 114.163 10.1009 114.342 10.0125C114.52 9.92399 114.729 9.87976 114.982 9.87976L116.278 9.98296Z" fill="#B1B1B1"/>
<path d="M121.252 20.0375C121.565 20.0375 121.877 20.1702 122.19 20.4504C122.518 20.7305 122.667 21.1433 122.667 21.7035C122.667 22.2638 122.473 22.9862 122.071 23.8855C121.669 24.7701 121.133 25.6842 120.433 26.6131C119.748 27.5272 118.973 28.397 118.154 29.2079C117.32 30.0188 116.427 30.6822 115.474 31.1982C114.506 31.7143 113.642 31.9796 112.853 31.9796C112.063 31.9796 111.438 31.729 110.961 31.2425C110.485 30.7559 110.246 30.0777 110.246 29.2079C110.246 28.338 110.47 27.365 110.902 26.3182C111.334 25.2567 111.885 24.3278 112.57 23.517C113.255 22.7061 113.984 21.9837 114.789 21.335C116.442 20.0081 117.901 19.3594 119.152 19.3594C119.718 19.3594 120.135 19.492 120.418 19.7722C120.522 19.8606 120.567 19.9491 120.567 20.0081V20.0965C120.731 20.0375 120.954 20.0375 121.252 20.0375ZM119.718 22.0426H119.614C119.256 22.0426 119.078 21.792 119.078 21.276C118.333 21.5119 117.559 21.9394 116.739 22.5439C115.92 23.1484 115.191 23.8708 114.55 24.6964C113.24 26.3477 112.585 27.7483 112.57 28.8835C112.57 29.4438 112.778 29.7239 113.195 29.7239C113.612 29.7239 114.238 29.4438 115.057 28.913C115.876 28.3823 116.695 27.6009 117.514 26.5836C118.318 25.581 118.929 24.6964 119.331 23.9593C119.733 23.2221 119.941 22.7208 119.941 22.4407C119.926 22.1753 119.852 22.0426 119.718 22.0426Z" fill="#B1B1B1"/>
<path d="M122.339 31.6408L121.594 31.6113H121.326C121.222 31.5818 121.118 31.5228 120.998 31.4343C120.879 31.3459 120.79 31.2722 120.73 31.2427C120.671 31.2132 120.641 31.1247 120.641 31.0215C120.641 30.9183 120.686 30.7267 120.76 30.476C122.741 26.1562 124.662 22.6916 126.523 20.1115C126.732 19.8314 127.06 19.6102 127.506 19.4628C127.953 19.3153 128.4 19.2416 128.832 19.2416C129.085 19.2416 129.219 19.4333 129.219 19.8314C129.219 19.9493 129.174 20.0967 129.1 20.2737C129.025 20.4653 128.817 20.7602 128.489 21.1877C128.162 21.6153 127.774 22.1018 127.328 22.6326C126.881 23.1633 126.628 23.4877 126.568 23.5762C127.968 22.1461 129.219 21.0845 130.351 20.3769C131.483 19.6839 132.287 19.3301 132.793 19.3301C133.299 19.3301 133.687 19.4775 133.955 19.7576C134.223 20.0378 134.357 20.3474 134.357 20.6717C134.357 20.9961 134.327 21.2762 134.282 21.4826C134.238 21.7038 134.148 21.9249 134.029 22.1608C133.91 22.3967 133.806 22.6031 133.716 22.7653C133.627 22.9275 133.478 23.1486 133.285 23.414C133.076 23.6794 132.942 23.871 132.868 23.9742C132.793 24.0774 132.629 24.2691 132.391 24.5492C132.153 24.8293 132.019 24.9915 132.004 25.021C132.287 24.7409 132.689 24.3281 133.195 23.7678C133.701 23.2076 134.133 22.7505 134.491 22.382C134.848 22.0134 135.28 21.5858 135.816 21.114C136.352 20.6422 136.844 20.2589 137.291 19.9788C138.393 19.3006 139.509 18.9468 140.641 18.9468C141.028 18.9468 141.356 19.0647 141.624 19.3153C141.892 19.566 142.026 19.8461 142.026 20.1852C142.026 20.5243 141.609 21.3352 140.79 22.6031C139.971 23.871 139.137 25.1537 138.318 26.4364C137.499 27.719 137.082 28.5299 137.082 28.869C137.082 29.326 137.171 29.6062 137.335 29.6946C137.514 29.7831 137.722 29.8126 137.961 29.7978C138.199 29.7831 138.556 29.6209 138.988 29.3261C139.435 29.0312 139.822 28.7363 140.165 28.412C140.731 27.9107 141.237 27.4242 141.728 26.9524C141.833 26.8639 141.937 26.8197 142.071 26.8197C142.265 26.8197 142.384 26.9671 142.428 27.262C142.473 27.5569 142.488 27.8517 142.488 28.1761C142.488 28.5004 142.458 28.7068 142.399 28.8248C142.101 29.385 141.445 30.078 140.448 30.9036C139.435 31.7145 138.467 32.1273 137.544 32.1273C137.425 32.1273 137.35 32.1273 137.305 32.1125C136.263 32.0093 135.533 31.7292 135.131 31.2574C134.729 30.7856 134.535 30.2254 134.535 29.5914C134.535 28.9575 134.759 28.1613 135.206 27.2472C135.652 26.3332 136.129 25.4928 136.665 24.7556C137.201 24.0185 137.678 23.3403 138.124 22.7358C138.571 22.1313 138.795 21.807 138.795 21.7627C138.795 21.7185 138.75 21.689 138.675 21.689C138.363 21.689 137.663 22.1903 136.561 23.2076C134.699 24.9325 133.091 26.5985 131.736 28.1908C131.378 28.6184 130.529 29.6799 129.204 31.4049C129.055 31.6113 128.802 31.7145 128.474 31.7145C128.147 31.7145 127.804 31.6555 127.447 31.5228C127.089 31.3901 126.911 31.2279 126.911 31.0363C126.911 30.9331 127.715 29.5177 129.338 26.7902C130.961 24.0627 131.765 22.5736 131.765 22.3377C131.765 22.0871 131.617 21.9691 131.319 21.9691C131.021 21.9691 130.395 22.4114 129.457 23.296C126.881 25.7287 124.885 28.1613 123.471 30.5645C123.381 30.7119 123.202 30.9331 122.934 31.2279C122.666 31.5228 122.428 31.6408 122.339 31.6408Z" fill="#B1B1B1"/>
<path d="M151.87 20.2442C151.87 20.9076 151.602 21.4973 151.051 21.9986C150.5 22.4999 149.89 22.7505 149.19 22.7505C148.966 22.7505 148.817 22.6915 148.743 22.5883C148.669 22.4851 148.639 22.3377 148.639 22.1755C148.639 22.0133 148.654 21.8364 148.698 21.6743C148.326 21.7922 147.924 21.9839 147.477 22.2345C147.03 22.4851 146.479 22.8537 145.824 23.355C145.169 23.8563 144.841 24.2101 144.841 24.4607C144.841 24.5345 144.96 24.5787 145.199 24.5787C145.437 24.5787 145.809 24.4902 146.301 24.3281C146.792 24.1659 147.15 24.0774 147.343 24.0774C147.537 24.0774 147.671 24.0922 147.73 24.1069C147.864 24.1806 147.998 24.3281 148.162 24.5639C148.311 24.7998 148.386 24.9915 148.386 25.1242C148.386 25.2569 148.252 25.4338 147.983 25.6549C147.715 25.8761 147.418 26.0383 147.09 26.1562C146.747 26.2742 146.524 26.3626 146.42 26.4216C144.275 27.6158 143.203 28.4267 143.203 28.869C143.203 29.6504 143.873 30.0485 145.228 30.0485C146.092 30.0485 146.971 29.7831 147.835 29.2376C148.579 28.7805 149.249 28.3087 149.845 27.8222C150.441 27.3504 150.813 27.0556 150.977 26.9376C151.141 26.8197 151.26 26.7754 151.334 26.7754C151.602 26.7754 151.736 27.0703 151.736 27.66C151.736 28.2498 151.707 28.6331 151.632 28.81C151.558 29.0017 151.364 29.2228 151.021 29.503C148.847 31.2574 146.777 32.142 144.841 32.142C143.799 32.142 142.98 31.9946 142.354 31.7145C141.207 31.1984 140.642 30.417 140.642 29.3555C140.642 27.9697 141.61 26.9081 143.56 26.2004C143.173 26.0235 142.92 25.8171 142.816 25.537C142.697 25.2716 142.652 24.8441 142.652 24.2543C142.652 23.6646 142.935 23.0454 143.486 22.3819C144.037 21.7185 144.722 21.173 145.526 20.7602C147.313 19.8019 148.922 19.3301 150.322 19.3301C150.664 19.3301 150.992 19.4038 151.349 19.566C151.707 19.7281 151.87 19.9493 151.87 20.2442Z" fill="#B1B1B1"/>
<path d="M0.907715 35.7245C4.82437 37.3463 8.81548 38.5995 12.8811 39.5578C16.9169 40.5604 21.0271 41.268 25.1374 41.7103C27.1925 41.9905 29.2625 42.0199 31.3028 42.2116C33.3728 42.2263 35.4279 42.3885 37.4831 42.2706L40.5658 42.1969C41.5933 42.1821 42.6209 42.0494 43.6484 41.9905C44.676 41.902 45.7036 41.8578 46.7162 41.7251L49.7691 41.2975C53.8645 40.8552 57.8407 39.9116 61.8021 38.7764C65.8081 37.6854 69.5907 36.2406 73.5967 34.7367C77.6921 33.2477 82.13 32.2746 86.6274 32.7464C88.8464 33.0265 91.0802 33.7342 92.8971 35.0316C94.7288 36.3143 96.0393 38.1424 96.8733 40.0591C95.6224 38.3489 94.0587 36.9482 92.2567 36.0784C90.4547 35.2085 88.4741 34.8547 86.5083 34.9137C82.5321 34.9726 78.6154 36.2848 74.937 37.936C71.1991 39.7642 67.1484 41.4155 63.0679 42.7866C58.9576 44.0987 54.7134 45.1455 50.4095 45.6763C41.8465 46.7968 33.075 46.8115 24.6162 45.116C20.3719 44.3494 16.2318 43.1552 12.2258 41.6366C8.24958 40.0591 4.36271 38.2162 0.907715 35.7245Z" fill="#B1B1B1"/>
<path d="M143.322 11.1773C140.001 9.7767 136.621 8.6857 133.195 7.83059C129.785 6.93124 126.33 6.29728 122.86 5.85498C121.133 5.58961 119.375 5.53063 117.648 5.32422C115.906 5.27999 114.178 5.10307 112.436 5.17679C111.572 5.19153 110.693 5.19153 109.829 5.17679C108.966 5.17679 108.087 5.26525 107.223 5.29474C106.36 5.35371 105.481 5.36845 104.617 5.45691L102.026 5.76652C98.5561 6.04665 95.1904 6.75433 91.8248 7.62418C88.4145 8.43506 85.1828 9.58504 81.7427 10.735C78.2133 11.8997 74.386 12.6074 70.5438 12.0766C68.6524 11.767 66.7462 11.1036 65.2421 9.92414C63.7082 8.75942 62.6658 7.16714 62.0254 5.50114C63.0827 6.96073 64.3933 8.15494 65.8974 8.89211C67.4015 9.62927 69.0545 9.93888 70.7076 9.92414C74.0434 9.92414 77.3495 8.86262 80.4769 7.53572C83.6638 6.0319 87.1635 4.70501 90.6483 3.614C94.1628 2.56722 97.8263 1.77108 101.49 1.38776C108.802 0.62111 116.278 0.798029 123.441 2.47876C127.03 3.23067 130.53 4.38065 133.88 5.79601C137.246 7.24086 140.493 8.92159 143.322 11.1773Z" fill="#B1B1B1"/>
</g>
<defs>
<clipPath id="clip0_2_353">
<rect width="152" height="47" fill="white"/>
</clipPath>
</defs>
</svg>
