<svg width="123" height="50" viewBox="0 0 123 50" fill="none" xmlns="http://www.w3.org/2000/svg">
<g clip-path="url(#clip0_2_333)">
<path d="M0.282227 31.0515V0.886719H18.2274V31.0368H0.282227V31.0515ZM16.0531 24.0337L16.5148 20.7017L14.8468 20.5396L14.3405 23.1049C13.298 23.6209 12.0173 23.8716 10.4834 23.8716C8.39851 23.8716 6.74546 23.2228 5.53919 21.9107C4.31802 20.5985 3.72233 18.8736 3.72233 16.721C3.72233 14.6275 4.31802 12.9025 5.49451 11.5461C6.671 10.1898 8.21983 9.51156 10.1409 9.51156C11.1238 9.51156 11.9578 9.62951 12.6279 9.85065C13.2981 10.0718 13.9086 10.3667 14.4894 10.75L14.9809 13.2858L16.6786 13.1237L16.1872 9.79168C15.4723 9.18721 14.6235 8.70068 13.6406 8.31735C12.6577 7.94877 11.4365 7.7571 9.992 7.7571C8.27939 7.7571 6.80506 8.16992 5.569 9.01029C4.33294 9.85066 3.36494 10.9564 2.6799 12.3275C1.99486 13.7134 1.65233 15.2025 1.65233 16.7948C1.65233 19.3159 2.44162 21.4242 4.02019 23.1049C5.59877 24.7856 7.65389 25.626 10.2005 25.626C12.7024 25.626 14.6533 25.0952 16.0531 24.0337Z" fill="#B1B1B1"/>
<path d="M24.3184 31.0515V0.886719H32.0325V31.0368H24.3184V31.0515ZM25.1374 25.3606H31.2283V23.842H29.1286V7.0052H25.1076V8.52376H27.2372V23.842H25.1374V25.3606Z" fill="#B1B1B1"/>
<path d="M38.1235 31.0515V0.886719H51.6755V31.0368H38.1235V31.0515ZM40.5807 14.3916L40.1489 17.1338L41.7126 17.3255L42.1742 15.2762C42.8444 14.9518 43.6039 14.7896 44.4974 14.7896C45.5697 14.7896 46.2994 15.055 46.6717 15.5858C47.044 16.1165 47.2227 16.8095 47.2227 17.6646V18.7261C46.8951 18.6966 46.5525 18.6671 46.1802 18.6524C45.8079 18.6376 45.4506 18.6229 45.0931 18.6229C43.7528 18.6229 42.4721 18.8588 41.2807 19.3306C40.0893 19.8024 39.4936 20.7902 39.4936 22.2792C39.4936 23.5472 39.8957 24.417 40.7148 24.8888C41.5339 25.3753 42.3381 25.6112 43.1274 25.6112C44.0953 25.6112 44.9293 25.3606 45.6143 24.8593C46.2994 24.358 46.8355 23.7978 47.2227 23.1491V23.2081C47.2525 24.8151 47.9822 25.6112 49.4119 25.6112C49.9629 25.6112 50.4841 25.4785 50.9755 25.2132L50.9458 23.9895C50.7075 24.0927 50.4394 24.1516 50.1416 24.1516C49.4565 24.1516 49.114 23.7241 49.114 22.869V17.2223C49.114 14.5685 47.6844 13.2416 44.825 13.2416C44.0358 13.2416 43.2911 13.33 42.5912 13.507C41.8764 13.6986 41.2062 13.9935 40.5807 14.3916ZM47.2078 20.9081C47.1333 21.8812 46.7313 22.6626 46.0015 23.2228C45.2718 23.7978 44.4974 24.0779 43.6635 24.0779C43.1422 24.0779 42.6359 23.9305 42.1594 23.6504C41.6679 23.3702 41.4296 22.8395 41.4296 22.0728C41.4296 21.144 41.8019 20.5543 42.5168 20.2741C43.2465 19.994 44.0506 19.8613 44.9591 19.8613C45.3612 19.8613 45.7484 19.8761 46.1207 19.9203C46.493 19.9498 46.8653 19.9793 47.1929 19.994V20.9081H47.2078Z" fill="#B1B1B1"/>
<path d="M57.7814 31.0515V0.886719H70.0972V31.0368H57.7814V31.0515ZM68.8016 21.9254C68.8016 20.9818 68.5484 20.2889 68.0421 19.8319C67.5358 19.3748 66.9252 19.0652 66.1806 18.8883C65.436 18.7114 64.7063 18.5639 63.9765 18.446C63.2468 18.328 62.6214 18.1364 62.115 17.8857C61.6087 17.6351 61.3555 17.1928 61.3555 16.5588C61.3555 15.9544 61.5938 15.5121 62.0852 15.2172C62.5766 14.9223 63.1872 14.7896 63.9467 14.7896C64.8254 14.7896 65.6445 14.9813 66.404 15.3794L66.7019 17.296L68.2655 17.1043L67.9677 14.3326C67.4613 14.023 66.8508 13.7723 66.121 13.5659C65.3913 13.3595 64.6169 13.2416 63.7829 13.2416C62.6809 13.2416 61.6683 13.507 60.7301 14.023C59.7918 14.539 59.3302 15.4236 59.3302 16.6915C59.3302 17.6204 59.5833 18.2985 60.0897 18.7261C60.596 19.1684 61.2215 19.4633 61.981 19.6402C62.7405 19.8171 63.4851 19.9645 64.2297 20.0972C64.9743 20.2152 65.5998 20.4216 66.1061 20.687C66.6125 20.9523 66.8656 21.4094 66.8656 22.0728C66.8656 22.751 66.538 23.2523 65.8827 23.5767C65.2274 23.901 64.4829 24.0632 63.634 24.0632C62.6809 24.0632 61.7874 23.8715 60.9683 23.4735L61.0428 21.8959L59.5386 21.7337L59.1663 24.4318C59.6876 24.7709 60.3726 25.051 61.2066 25.2721C62.0405 25.4933 62.8745 25.6112 63.7234 25.6112C65.1679 25.6112 66.3742 25.2869 67.3422 24.6234C68.3102 23.9895 68.8016 23.0754 68.8016 21.9254Z" fill="#B1B1B1"/>
<path d="M76.1879 31.0515V0.886719H88.5037V31.0368H76.1879V31.0515ZM87.2081 21.9254C87.2081 20.9818 86.9549 20.2889 86.4486 19.8319C85.9422 19.3748 85.3316 19.0652 84.587 18.8883C83.8424 18.7114 83.1127 18.5639 82.383 18.446C81.6533 18.328 81.0278 18.1364 80.5215 17.8857C80.0151 17.6351 79.7619 17.1928 79.7619 16.5588C79.7619 15.9544 80.0002 15.5121 80.4917 15.2172C80.9831 14.9223 81.5937 14.7896 82.3532 14.7896C83.2318 14.7896 84.0509 14.9813 84.8104 15.3794L85.1083 17.296L86.672 17.1043L86.3741 14.3326C85.8678 14.023 85.2572 13.7723 84.5275 13.5659C83.7978 13.3595 83.0234 13.2416 82.1894 13.2416C81.0874 13.2416 80.0747 13.507 79.1365 14.023C78.1983 14.539 77.7366 15.4236 77.7366 16.6915C77.7366 17.6204 77.9898 18.2985 78.4961 18.7261C79.0025 19.1684 79.628 19.4633 80.3875 19.6402C81.147 19.8171 81.8915 19.9645 82.6361 20.0972C83.3808 20.2152 84.0062 20.4216 84.5126 20.687C85.0189 20.9523 85.2721 21.4094 85.2721 22.0728C85.2721 22.751 84.9445 23.2523 84.2892 23.5767C83.634 23.901 82.8894 24.0632 82.0405 24.0632C81.0874 24.0632 80.1938 23.8715 79.3747 23.4735L79.4493 21.8959L77.9451 21.7337L77.5728 24.4318C78.0941 24.7709 78.7791 25.051 79.6131 25.2721C80.447 25.4933 81.281 25.6112 82.1299 25.6112C83.5744 25.6112 84.7807 25.2869 85.7487 24.6234C86.7167 23.9895 87.2081 23.0754 87.2081 21.9254Z" fill="#B1B1B1"/>
<path d="M94.595 31.0515V0.886719H102.711V31.0368H94.595V31.0515ZM95.7863 25.3606H101.877V23.842H99.7774V13.4922H95.7417V15.0108H97.901V23.842H95.8012V25.3606H95.7863ZM97.6926 7.993V10.4256H99.7477V7.993H97.6926Z" fill="#B1B1B1"/>
<path d="M108.802 31.0515V0.886719H121.773V31.0368H108.802V31.0515ZM120.612 21.3652L118.988 21.0113C118.631 23.0164 117.544 24.019 115.757 24.019C114.565 24.019 113.657 23.6209 113.031 22.8247C112.406 22.0286 112.093 20.9081 112.093 19.4928C112.093 18.2101 112.376 17.1191 112.927 16.205C113.478 15.2909 114.401 14.8486 115.682 14.8486C116.665 14.8486 117.529 15.0698 118.244 15.5121L118.705 17.5171L120.269 17.3255L119.807 14.4653C119.197 14.0082 118.556 13.6839 117.886 13.507C117.216 13.33 116.486 13.2416 115.697 13.2416C113.836 13.2416 112.421 13.8903 111.497 15.1877C110.559 16.4851 110.098 17.9594 110.098 19.596C110.098 21.4978 110.589 22.9869 111.587 24.0337C112.57 25.0952 113.895 25.626 115.548 25.626C117.201 25.626 118.422 25.1689 119.197 24.2696C119.971 23.3555 120.448 22.3972 120.612 21.3652Z" fill="#B1B1B1"/>
<path d="M8.04115 47.5198C7.69863 48.139 7.19228 48.6256 6.53702 48.9647C5.86687 49.3038 5.07757 49.4807 4.15425 49.4807H1.48853V41.1655H4.15425C5.07757 41.1655 5.88176 41.3276 6.53702 41.6667C7.19228 42.0058 7.69863 42.4776 8.04115 43.1116C8.38367 43.7455 8.54747 44.468 8.54747 45.3231C8.54747 46.1634 8.38367 46.9006 8.04115 47.5198ZM6.56678 47.682C7.14758 47.1218 7.43056 46.3404 7.43056 45.3231C7.43056 44.3058 7.14758 43.5244 6.56678 42.9641C5.98599 42.4039 5.15202 42.1238 4.04999 42.1238H2.54591V48.5224H4.04999C5.15202 48.5224 5.98599 48.2422 6.56678 47.682Z" fill="#B1B1B1"/>
<path d="M14.0725 42.0353V44.8808H17.2595V45.7064H14.0725V48.6108H17.6169V49.4807H12.9854V41.1655H17.6169V42.0353H14.0725Z" fill="#B1B1B1"/>
<path d="M27.0289 48.4188C26.8353 48.7579 26.5524 49.0381 26.1652 49.2445C25.778 49.4509 25.3014 49.5688 24.7206 49.5688C24.1696 49.5688 23.6633 49.4656 23.2314 49.274C22.7995 49.0676 22.457 48.8022 22.189 48.4483C21.9358 48.0945 21.7868 47.6964 21.7422 47.2541H22.9037C22.9335 47.49 23.008 47.7259 23.142 47.9471C23.2761 48.1682 23.4845 48.3599 23.7377 48.5073C23.9909 48.6547 24.3036 48.7285 24.6759 48.7285C25.1525 48.7285 25.5248 48.6105 25.778 48.3451C26.0312 48.0797 26.1652 47.7701 26.1652 47.3721C26.1652 47.033 26.0758 46.7528 25.8971 46.5464C25.7184 46.34 25.495 46.1631 25.2418 46.0452C24.9887 45.9272 24.6164 45.7945 24.1696 45.6471C23.6335 45.4702 23.2165 45.308 22.8889 45.1606C22.5613 45.0131 22.2932 44.7772 22.0698 44.4676C21.8464 44.158 21.7273 43.76 21.7273 43.2587C21.7273 42.8311 21.8315 42.4478 22.04 42.1087C22.2485 41.7844 22.5463 41.519 22.9484 41.3421C23.3356 41.1651 23.8122 41.0767 24.3334 41.0767C25.1525 41.0767 25.8226 41.2683 26.2992 41.6664C26.7906 42.0645 27.0587 42.5657 27.148 43.185H25.9865C25.9269 42.8606 25.7482 42.5657 25.4801 42.3151C25.1972 42.0645 24.8248 41.9318 24.3483 41.9318C23.9164 41.9318 23.559 42.0497 23.3059 42.2709C23.0378 42.492 22.9187 42.8164 22.9187 43.2145C22.9187 43.5388 23.008 43.8042 23.1718 43.9958C23.3506 44.2023 23.559 44.3497 23.8122 44.4676C24.0654 44.5856 24.4228 44.7035 24.8546 44.851C25.3907 45.0279 25.8226 45.1901 26.1652 45.3522C26.4928 45.5144 26.7757 45.7503 26.9991 46.0599C27.2225 46.3695 27.3417 46.7971 27.3417 47.3278C27.3119 47.7112 27.2225 48.0797 27.0289 48.4188Z" fill="#B1B1B1"/>
<path d="M32.8367 41.1655V49.4807H31.7495V41.1655H32.8367Z" fill="#B1B1B1"/>
<path d="M43.8273 41.7993C44.4974 42.2858 44.9442 42.9345 45.1676 43.7601H44.0209C43.8273 43.2589 43.4847 42.846 43.0231 42.5512C42.5614 42.2416 42.0104 42.0941 41.3701 42.0941C40.8042 42.0941 40.2829 42.2268 39.8361 42.4922C39.3894 42.7576 39.032 43.1262 38.7639 43.6127C38.5108 44.0992 38.3767 44.6742 38.3767 45.3377C38.3767 46.0159 38.5108 46.6056 38.7639 47.0921C39.0171 47.5787 39.3894 47.962 39.851 48.2274C40.3127 48.4927 40.8488 48.6254 41.4594 48.6254C41.9806 48.6254 42.4423 48.5075 42.8742 48.3011C43.306 48.0799 43.6485 47.7556 43.9315 47.3428C44.2144 46.9299 44.3634 46.4287 44.423 45.8684H41.1169V45.0723H45.3314V46.0601C45.2569 46.7235 45.0484 47.3133 44.7059 47.8588C44.3634 48.4043 43.9017 48.8171 43.3209 49.1267C42.7401 49.4363 42.0849 49.5985 41.3403 49.5985C40.5361 49.5985 39.8212 49.4216 39.1958 49.0677C38.5703 48.7139 38.0937 48.2126 37.7512 47.5639C37.4087 46.9299 37.23 46.1928 37.23 45.3672C37.23 44.5415 37.4087 43.8044 37.7512 43.1704C38.0937 42.5364 38.5852 42.0204 39.1958 41.6666C39.8063 41.3127 40.5212 41.1211 41.3253 41.1211C42.338 41.0916 43.1571 41.3275 43.8273 41.7993Z" fill="#B1B1B1"/>
<path d="M56.3216 49.4807H55.2345L50.871 42.9052V49.4807H49.7839V41.1655H50.871L55.2345 47.741V41.1655H56.3216V49.4807Z" fill="#B1B1B1"/>
<path d="M71.9882 48.4188C71.7946 48.7579 71.5116 49.0381 71.1244 49.2445C70.7372 49.4509 70.2607 49.5688 69.6799 49.5688C69.1289 49.5688 68.6225 49.4656 68.1907 49.274C67.7588 49.0676 67.4162 48.8022 67.1482 48.4483C66.895 48.0945 66.7461 47.6964 66.7014 47.2541H67.863C67.8928 47.49 67.9673 47.7259 68.1013 47.9471C68.2353 48.1682 68.4438 48.3599 68.6969 48.5073C68.9501 48.6547 69.2629 48.7285 69.6352 48.7285C70.1117 48.7285 70.484 48.6105 70.7372 48.3451C70.9903 48.0797 71.1244 47.7701 71.1244 47.3721C71.1244 47.033 71.035 46.7528 70.8563 46.5464C70.6776 46.34 70.4542 46.1631 70.2011 46.0452C69.9479 45.9272 69.5756 45.7945 69.1289 45.6471C68.5928 45.4702 68.1757 45.308 67.8481 45.1606C67.5204 45.0131 67.2524 44.7772 67.029 44.4676C66.8056 44.158 66.6865 43.76 66.6865 43.2587C66.6865 42.8311 66.7907 42.4478 66.9992 42.1087C67.2077 41.7844 67.5056 41.519 67.9077 41.3421C68.2949 41.1651 68.7714 41.0767 69.2927 41.0767C70.1117 41.0767 70.7819 41.2683 71.2585 41.6664C71.7499 42.0645 72.018 42.5657 72.1073 43.185H70.9457C70.8861 42.8606 70.7074 42.5657 70.4393 42.3151C70.1564 42.0645 69.7841 41.9318 69.3076 41.9318C68.8757 41.9318 68.5183 42.0497 68.2651 42.2709C67.997 42.492 67.8779 42.8164 67.8779 43.2145C67.8779 43.5388 67.9672 43.8042 68.131 43.9958C68.3097 44.2023 68.5182 44.3497 68.7714 44.4676C69.0246 44.5856 69.382 44.7035 69.8139 44.851C70.35 45.0279 70.7819 45.1901 71.1244 45.3522C71.452 45.5144 71.735 45.7503 71.9583 46.0599C72.1817 46.3695 72.3008 46.7971 72.3008 47.3278C72.2711 47.7112 72.1818 48.0797 71.9882 48.4188Z" fill="#B1B1B1"/>
<path d="M81.8617 41.1655V42.0353H79.4938V49.4807H78.3918V42.0353H76.0239V41.1655H81.8617Z" fill="#B1B1B1"/>
<path d="M86.9256 41.1655V46.1487C86.9256 46.9596 87.1043 47.5641 87.4766 47.9621C87.8489 48.3454 88.3404 48.5519 88.9956 48.5519C89.636 48.5519 90.1274 48.3602 90.4848 47.9621C90.8423 47.5641 91.0209 46.9743 91.0209 46.1634V41.1802H92.1081V46.1634C92.1081 47.2987 91.8252 48.1538 91.2593 48.714C90.6934 49.289 89.9338 49.5691 88.9807 49.5691C88.0425 49.5691 87.2831 49.289 86.7172 48.714C86.1512 48.139 85.8683 47.2987 85.8683 46.1634V41.1802H86.9256V41.1655Z" fill="#B1B1B1"/>
<path d="M103.322 47.5198C102.979 48.139 102.473 48.6256 101.817 48.9647C101.147 49.3038 100.358 49.4807 99.4347 49.4807H96.769V41.1655H99.4347C100.358 41.1655 101.162 41.3276 101.817 41.6667C102.473 42.0058 102.979 42.4776 103.322 43.1116C103.664 43.7455 103.828 44.468 103.828 45.3231C103.828 46.1634 103.664 46.9006 103.322 47.5198ZM101.862 47.682C102.443 47.1218 102.726 46.3404 102.726 45.3231C102.726 44.3058 102.443 43.5244 101.862 42.9641C101.281 42.4039 100.447 42.1238 99.3454 42.1238H97.8412V48.5224H99.3454C100.433 48.5224 101.281 48.2422 101.862 47.682Z" fill="#B1B1B1"/>
<path d="M109.368 41.1655V49.4807H108.281V41.1655H109.368Z" fill="#B1B1B1"/>
<path d="M120.031 41.6075C120.656 41.9761 121.148 42.4774 121.505 43.1261C121.862 43.7748 122.041 44.512 122.041 45.3228C122.041 46.1337 121.862 46.8709 121.505 47.5196C121.148 48.1683 120.656 48.6696 120.031 49.0382C119.405 49.4067 118.705 49.5837 117.931 49.5837C117.156 49.5837 116.442 49.4067 115.816 49.0382C115.191 48.6696 114.684 48.1683 114.327 47.5196C113.969 46.8709 113.791 46.1337 113.791 45.3228C113.791 44.512 113.969 43.7748 114.327 43.1261C114.684 42.4774 115.176 41.9761 115.816 41.6075C116.456 41.2389 117.156 41.062 117.931 41.062C118.705 41.062 119.405 41.2389 120.031 41.6075ZM116.367 42.4626C115.905 42.728 115.548 43.0966 115.295 43.5979C115.042 44.0844 114.908 44.6594 114.908 45.3228C114.908 45.9715 115.042 46.5465 115.295 47.0478C115.548 47.5491 115.905 47.9177 116.367 48.183C116.829 48.4484 117.335 48.5811 117.916 48.5811C118.482 48.5811 119.003 48.4484 119.465 48.183C119.926 47.9177 120.284 47.5343 120.537 47.0478C120.79 46.5613 120.924 45.9863 120.924 45.3376C120.924 44.6741 120.79 44.0991 120.537 43.6126C120.284 43.1261 119.926 42.7428 119.465 42.4774C119.003 42.212 118.497 42.0793 117.916 42.0793C117.35 42.0646 116.829 42.1973 116.367 42.4626Z" fill="#B1B1B1"/>
</g>
<defs>
<clipPath id="clip0_2_333">
<rect width="123" height="50" fill="white"/>
</clipPath>
</defs>
</svg>
