<svg width="120" height="120" viewBox="0 0 120 120" fill="none" xmlns="http://www.w3.org/2000/svg">
<rect x="1" y="1" width="118" height="118" stroke="#D1B06B" stroke-width="2"/>
<g clip-path="url(#clip0_2_274)">
<path d="M60 29L62.9187 37.9828H72.3637L64.7225 43.5344L67.6412 52.5172L60 46.9656L52.3588 52.5172L55.2775 43.5344L47.6363 37.9828H57.0813L60 29Z" fill="#D1B06B"/>
</g>
<path d="M38.1575 83L44.4275 74.45L45.4475 73.91C45.2075 74.31 44.9175 74.66 44.5775 74.96C44.2375 75.26 43.8175 75.49 43.3175 75.65C42.8375 75.81 42.2475 75.89 41.5475 75.89C40.3475 75.89 39.2375 75.6 38.2175 75.02C37.2175 74.44 36.4175 73.64 35.8175 72.62C35.2175 71.58 34.9175 70.41 34.9175 69.11C34.9175 67.77 35.2475 66.56 35.9075 65.48C36.5675 64.38 37.4475 63.51 38.5475 62.87C39.6475 62.21 40.8675 61.88 42.2075 61.88C43.5675 61.88 44.7975 62.2 45.8975 62.84C46.9975 63.48 47.8675 64.34 48.5075 65.42C49.1475 66.48 49.4675 67.68 49.4675 69.02C49.4675 70.86 48.8275 72.69 47.5475 74.51L41.4275 83H38.1575ZM42.2075 73.67C43.0475 73.67 43.7975 73.47 44.4575 73.07C45.1375 72.65 45.6675 72.1 46.0475 71.42C46.4475 70.72 46.6475 69.95 46.6475 69.11C46.6475 68.23 46.4475 67.45 46.0475 66.77C45.6675 66.07 45.1375 65.52 44.4575 65.12C43.7975 64.72 43.0475 64.52 42.2075 64.52C41.3675 64.52 40.6075 64.72 39.9275 65.12C39.2675 65.52 38.7375 66.07 38.3375 66.77C37.9375 67.45 37.7375 68.23 37.7375 69.11C37.7375 69.97 37.9375 70.74 38.3375 71.42C38.7375 72.1 39.2775 72.65 39.9575 73.07C40.6375 73.47 41.3875 73.67 42.2075 73.67ZM58.8037 83.3C57.4237 83.3 56.2037 83.04 55.1437 82.52C54.1037 82 53.2937 81.28 52.7137 80.36C52.1337 79.44 51.8437 78.4 51.8437 77.24C51.8437 76.3 52.0237 75.44 52.3837 74.66C52.7437 73.88 53.2737 73.22 53.9737 72.68C54.6737 72.12 55.4937 71.72 56.4337 71.48L56.5237 72.29C55.7237 72.07 55.0437 71.72 54.4837 71.24C53.9237 70.74 53.4937 70.16 53.1937 69.5C52.9137 68.82 52.7737 68.1 52.7737 67.34C52.7737 66.26 53.0337 65.31 53.5537 64.49C54.0737 63.67 54.7837 63.03 55.6837 62.57C56.6037 62.09 57.6437 61.85 58.8037 61.85C59.9837 61.85 61.0237 62.09 61.9237 62.57C62.8237 63.03 63.5337 63.67 64.0537 64.49C64.5737 65.31 64.8337 66.26 64.8337 67.34C64.8337 68.1 64.6837 68.82 64.3837 69.5C64.1037 70.16 63.6837 70.74 63.1237 71.24C62.5837 71.72 61.9137 72.07 61.1137 72.29L61.1737 71.48C62.1337 71.72 62.9537 72.12 63.6337 72.68C64.3337 73.22 64.8637 73.88 65.2237 74.66C65.6037 75.44 65.7937 76.3 65.7937 77.24C65.7937 78.4 65.5037 79.44 64.9237 80.36C64.3437 81.28 63.5237 82 62.4637 82.52C61.4237 83.04 60.2037 83.3 58.8037 83.3ZM58.8037 80.75C59.6437 80.75 60.3737 80.59 60.9937 80.27C61.6337 79.93 62.1337 79.47 62.4937 78.89C62.8737 78.31 63.0637 77.64 63.0637 76.88C63.0637 76.14 62.8737 75.48 62.4937 74.9C62.1337 74.32 61.6337 73.87 60.9937 73.55C60.3737 73.21 59.6437 73.04 58.8037 73.04C57.9837 73.04 57.2537 73.21 56.6137 73.55C55.9737 73.87 55.4637 74.32 55.0837 74.9C54.7237 75.48 54.5437 76.14 54.5437 76.88C54.5437 77.64 54.7237 78.31 55.0837 78.89C55.4637 79.47 55.9737 79.93 56.6137 80.27C57.2537 80.59 57.9837 80.75 58.8037 80.75ZM58.8037 70.85C59.8037 70.85 60.6237 70.54 61.2637 69.92C61.9037 69.3 62.2237 68.5 62.2237 67.52C62.2237 66.56 61.9037 65.78 61.2637 65.18C60.6237 64.56 59.8037 64.25 58.8037 64.25C57.8237 64.25 57.0137 64.56 56.3737 65.18C55.7337 65.78 55.4137 66.56 55.4137 67.52C55.4137 68.5 55.7337 69.3 56.3737 69.92C57.0137 70.54 57.8237 70.85 58.8037 70.85ZM73.1479 70.31C72.3879 70.31 71.6879 70.12 71.0479 69.74C70.4079 69.36 69.8979 68.85 69.5179 68.21C69.1379 67.57 68.9479 66.86 68.9479 66.08C68.9479 65.28 69.1279 64.57 69.4879 63.95C69.8679 63.33 70.3779 62.83 71.0179 62.45C71.6579 62.07 72.3679 61.88 73.1479 61.88C73.9479 61.88 74.6679 62.07 75.3079 62.45C75.9479 62.83 76.4579 63.33 76.8379 63.95C77.2179 64.57 77.4079 65.28 77.4079 66.08C77.4079 66.86 77.2179 67.57 76.8379 68.21C76.4579 68.85 75.9479 69.36 75.3079 69.74C74.6879 70.12 73.9679 70.31 73.1479 70.31ZM73.1479 68.18C73.7479 68.18 74.2379 67.99 74.6179 67.61C74.9979 67.21 75.1879 66.7 75.1879 66.08C75.1879 65.46 74.9879 64.96 74.5879 64.58C74.2079 64.2 73.7279 64.01 73.1479 64.01C72.5679 64.01 72.0879 64.2 71.7079 64.58C71.3479 64.96 71.1679 65.46 71.1679 66.08C71.1679 66.7 71.3479 67.21 71.7079 67.61C72.0879 67.99 72.5679 68.18 73.1479 68.18ZM81.5179 83.3C80.7379 83.3 80.0279 83.11 79.3879 82.73C78.7479 82.35 78.2379 81.85 77.8579 81.23C77.4779 80.59 77.2879 79.87 77.2879 79.07C77.2879 78.29 77.4779 77.59 77.8579 76.97C78.2379 76.33 78.7479 75.82 79.3879 75.44C80.0279 75.06 80.7379 74.87 81.5179 74.87C82.2979 74.87 83.0079 75.06 83.6479 75.44C84.3079 75.82 84.8279 76.33 85.2079 76.97C85.5879 77.59 85.7779 78.29 85.7779 79.07C85.7779 79.87 85.5879 80.59 85.2079 81.23C84.8279 81.85 84.3179 82.35 83.6779 82.73C83.0379 83.11 82.3179 83.3 81.5179 83.3ZM81.5179 81.17C82.1179 81.17 82.6079 80.98 82.9879 80.6C83.3679 80.2 83.5579 79.69 83.5579 79.07C83.5579 78.47 83.3579 77.98 82.9579 77.6C82.5779 77.2 82.0979 77 81.5179 77C80.9379 77 80.4579 77.2 80.0779 77.6C79.6979 77.98 79.5079 78.47 79.5079 79.07C79.5079 79.69 79.6979 80.2 80.0779 80.6C80.4579 80.98 80.9379 81.17 81.5179 81.17ZM69.3079 83L82.6579 62.18H85.3879L72.0379 83H69.3079Z" fill="#1F2732"/>
<defs>
<clipPath id="clip0_2_274">
<rect width="26" height="24" fill="white" transform="translate(47 29)"/>
</clipPath>
</defs>
</svg>
