<svg width="118" height="120" viewBox="0 0 118 120" fill="none" xmlns="http://www.w3.org/2000/svg">
<rect x="1" y="1" width="116" height="118" stroke="#D1B06B" stroke-width="2"/>
<path d="M29.3354 81L37.1354 61.83L39.9254 61.92L32.3054 81H29.3354ZM26.0654 62.7V60.18H39.9254V61.92L38.6954 62.7H26.0654ZM41.9941 79.29L49.6741 71.19C50.4541 70.39 51.0641 69.7 51.5041 69.12C51.9441 68.52 52.2541 67.97 52.4341 67.47C52.6341 66.97 52.7341 66.45 52.7341 65.91C52.7341 64.85 52.3941 64.02 51.7141 63.42C51.0341 62.82 50.1541 62.52 49.0741 62.52C48.0141 62.52 47.0841 62.78 46.2841 63.3C45.4841 63.8 44.7741 64.58 44.1541 65.64L42.1741 63.99C42.9941 62.63 43.9841 61.61 45.1441 60.93C46.3041 60.23 47.6441 59.88 49.1641 59.88C50.4441 59.88 51.5541 60.13 52.4941 60.63C53.4541 61.13 54.1941 61.83 54.7141 62.73C55.2341 63.63 55.4941 64.68 55.4941 65.88C55.4941 66.74 55.3841 67.51 55.1641 68.19C54.9641 68.87 54.5941 69.57 54.0541 70.29C53.5341 70.99 52.8041 71.83 51.8641 72.81L45.6541 79.2L41.9941 79.29ZM41.9941 81V79.29L44.3941 78.48H55.9741V81H41.9941ZM65.0446 81.3C63.6846 81.3 62.4446 81.05 61.3246 80.55C60.2246 80.03 59.2946 79.28 58.5346 78.3L60.4546 76.38C60.9146 77.08 61.5446 77.64 62.3446 78.06C63.1446 78.46 64.0346 78.66 65.0146 78.66C65.9346 78.66 66.7246 78.49 67.3846 78.15C68.0646 77.79 68.5946 77.29 68.9746 76.65C69.3746 76.01 69.5746 75.27 69.5746 74.43C69.5746 73.57 69.3746 72.83 68.9746 72.21C68.5946 71.57 68.0546 71.08 67.3546 70.74C66.6546 70.4 65.8246 70.23 64.8646 70.23C64.5046 70.23 64.1446 70.26 63.7846 70.32C63.4246 70.36 63.0746 70.43 62.7346 70.53L63.9346 68.91C64.3146 68.73 64.7246 68.59 65.1646 68.49C65.6046 68.39 66.0446 68.34 66.4846 68.34C67.6046 68.34 68.6046 68.6 69.4846 69.12C70.3846 69.64 71.0946 70.37 71.6146 71.31C72.1546 72.25 72.4246 73.34 72.4246 74.58C72.4246 75.9 72.1046 77.07 71.4646 78.09C70.8446 79.09 69.9846 79.88 68.8846 80.46C67.7846 81.02 66.5046 81.3 65.0446 81.3ZM62.7346 70.53V68.82L68.8246 61.89L72.1846 61.86L65.9146 68.97L62.7346 70.53ZM59.5246 62.7V60.18H72.1846V61.86L69.7246 62.7H59.5246ZM84.0772 81.3C82.5172 81.3 81.0872 80.86 79.7872 79.98C78.5072 79.1 77.4872 77.86 76.7272 76.26C75.9672 74.64 75.5872 72.74 75.5872 70.56C75.5872 68.38 75.9572 66.49 76.6972 64.89C77.4572 63.29 78.4772 62.06 79.7572 61.2C81.0372 60.32 82.4472 59.88 83.9872 59.88C85.5672 59.88 86.9972 60.32 88.2772 61.2C89.5572 62.06 90.5672 63.29 91.3072 64.89C92.0672 66.49 92.4472 68.39 92.4472 70.59C92.4472 72.77 92.0672 74.67 91.3072 76.29C90.5672 77.89 89.5572 79.13 88.2772 80.01C87.0172 80.87 85.6172 81.3 84.0772 81.3ZM84.0172 78.63C85.1172 78.63 86.0772 78.33 86.8972 77.73C87.7372 77.11 88.3972 76.2 88.8772 75C89.3572 73.8 89.5972 72.32 89.5972 70.56C89.5972 68.8 89.3572 67.33 88.8772 66.15C88.3972 64.95 87.7372 64.05 86.8972 63.45C86.0572 62.83 85.0872 62.52 83.9872 62.52C82.9072 62.52 81.9472 62.83 81.1072 63.45C80.2672 64.05 79.6072 64.95 79.1272 66.15C78.6672 67.33 78.4372 68.8 78.4372 70.56C78.4372 72.32 78.6672 73.8 79.1272 75C79.6072 76.2 80.2672 77.11 81.1072 77.73C81.9472 78.33 82.9172 78.63 84.0172 78.63Z" fill="#1F2732"/>
<g clip-path="url(#clip0_2_286)">
<path d="M59 51C59.3397 50.9996 59.6713 50.8985 59.9519 50.7099C64.1079 47.9312 65.9074 46.026 66.9 44.8349C69.0153 42.2958 70.028 39.6891 69.9994 36.8661C69.9661 33.6312 67.331 31 64.1253 31C61.7943 31 60.1798 32.2932 59.2396 33.3703C59.2098 33.4041 59.173 33.4312 59.1316 33.4497C59.0903 33.4683 59.0454 33.4779 59 33.4779C58.9546 33.4779 58.9097 33.4683 58.8684 33.4497C58.827 33.4312 58.7902 33.4041 58.7604 33.3703C57.8202 32.2922 56.2057 31 53.8747 31C50.669 31 48.0339 33.6313 48.0006 36.8667C47.972 39.6901 48.9858 42.2969 51.1 44.8354C52.0926 46.0266 53.8922 47.9318 58.0481 50.7104C58.3287 50.8988 58.6604 50.9997 59 51Z" fill="#D1B06B"/>
</g>
<defs>
<clipPath id="clip0_2_286">
<rect width="22" height="20" fill="white" transform="translate(48 31)"/>
</clipPath>
</defs>
</svg>
