<svg width="58" height="56" viewBox="0 0 58 56" fill="none" xmlns="http://www.w3.org/2000/svg">
<g clip-path="url(#clip0_2_94)">
<path d="M51.931 4.55926L48.0862 13.0446C47.9099 13.4335 47.8187 13.8557 47.8187 14.2827V52.1315C47.8187 53.2361 48.7142 54.1315 49.8187 54.1315H54.9541C56.0587 54.1315 56.9541 53.2361 56.9541 52.1315V14.2827C56.9541 13.8557 56.8629 13.4335 56.6867 13.0446L52.8418 4.55926C52.6644 4.16774 52.1084 4.16774 51.931 4.55926Z" stroke="#D1B06B" stroke-width="2"/>
<path d="M47.8187 14.2827H52.9574H56.9541" stroke="#D1B06B" stroke-width="2"/>
<path d="M33.6711 24.3362H8.00094C7.35651 24.3362 6.83411 24.8586 6.83411 25.503C6.83411 26.1474 7.35651 26.6698 8.00094 26.6698H33.6711C34.3155 26.6698 34.8379 26.1474 34.8379 25.503C34.8379 24.8586 34.3155 24.3362 33.6711 24.3362Z" fill="#D1B06B"/>
<path d="M16.8355 8.16748H9.66772C8.8393 8.16748 8.16772 8.83905 8.16772 9.66748V14.5016C8.16772 15.33 8.8393 16.0016 9.66772 16.0016H16.8355C17.664 16.0016 18.3355 15.33 18.3355 14.5016V9.66748C18.3355 8.83905 17.664 8.16748 16.8355 8.16748Z" stroke="#D1B06B" stroke-width="2"/>
<path d="M33.6711 36.0046H8.00094C7.35651 36.0046 6.83411 36.527 6.83411 37.1715C6.83411 37.8159 7.35651 38.3383 8.00094 38.3383H33.6711C34.3155 38.3383 34.8379 37.8159 34.8379 37.1715C34.8379 36.527 34.3155 36.0046 33.6711 36.0046Z" fill="#D1B06B"/>
<path d="M23.1697 41.8386H8.00094C7.35651 41.8386 6.83411 42.361 6.83411 43.0054C6.83411 43.6499 7.35651 44.1723 8.00094 44.1723H23.1697C23.8141 44.1723 24.3365 43.6499 24.3365 43.0054C24.3365 42.361 23.8141 41.8386 23.1697 41.8386Z" fill="#D1B06B"/>
<path d="M33.6711 30.1704H8.00094C7.35651 30.1704 6.83411 30.6928 6.83411 31.3372C6.83411 31.9817 7.35651 32.5041 8.00094 32.5041H33.6711C34.3155 32.5041 34.8379 31.9817 34.8379 31.3372C34.8379 30.6928 34.3155 30.1704 33.6711 30.1704Z" fill="#D1B06B"/>
<path d="M47.8187 49.0225H56.9541" stroke="#D1B06B" stroke-width="2"/>
<path d="M1 7.99975V47.3846C1 51.2506 4.13401 54.3846 8 54.3846H34.2603C38.1263 54.3846 41.2603 51.2506 41.2603 47.3846V15.728C41.2603 13.7405 40.4154 11.8467 38.9365 10.519L30.3278 2.7908C29.0432 1.63762 27.3778 0.999756 25.6516 0.999756H8C4.13401 0.999756 1 4.13376 1 7.99975Z" stroke="#D1B06B" stroke-width="2"/>
<path d="M25.9808 1.2168V10.8885C25.9808 13.0977 27.7717 14.8885 29.9808 14.8885H40.2902" stroke="#D1B06B" stroke-width="2" stroke-linecap="round"/>
</g>
<defs>
<clipPath id="clip0_2_94">
<rect width="58" height="56" fill="white"/>
</clipPath>
</defs>
</svg>
