<svg width="81" height="59" viewBox="0 0 81 59" fill="none" xmlns="http://www.w3.org/2000/svg">
<path d="M0 5C0 2.23858 2.23858 0 5 0H76C78.7614 0 81 2.23858 81 5V54C81 56.7614 78.7614 59 76 59H5C2.23858 59 0 56.7614 0 54V5Z" fill="#161D27"/>
<path d="M22.41 40.3C21.05 40.3 19.81 40.05 18.69 39.55C17.59 39.03 16.66 38.28 15.9 37.3L17.82 35.38C18.28 36.08 18.91 36.64 19.71 37.06C20.51 37.46 21.4 37.66 22.38 37.66C23.3 37.66 24.09 37.49 24.75 37.15C25.43 36.79 25.96 36.29 26.34 35.65C26.74 35.01 26.94 34.27 26.94 33.43C26.94 32.57 26.74 31.83 26.34 31.21C25.96 30.57 25.42 30.08 24.72 29.74C24.02 29.4 23.19 29.23 22.23 29.23C21.87 29.23 21.51 29.26 21.15 29.32C20.79 29.36 20.44 29.43 20.1 29.53L21.3 27.91C21.68 27.73 22.09 27.59 22.53 27.49C22.97 27.39 23.41 27.34 23.85 27.34C24.97 27.34 25.97 27.6 26.85 28.12C27.75 28.64 28.46 29.37 28.98 30.31C29.52 31.25 29.79 32.34 29.79 33.58C29.79 34.9 29.47 36.07 28.83 37.09C28.21 38.09 27.35 38.88 26.25 39.46C25.15 40.02 23.87 40.3 22.41 40.3ZM20.1 29.53V27.82L26.19 20.89L29.55 20.86L23.28 27.97L20.1 29.53ZM16.89 21.7V19.18H29.55V20.86L27.09 21.7H16.89ZM38.9826 40.3C37.5626 40.3 36.2926 40.05 35.1726 39.55C34.0726 39.03 33.1426 38.28 32.3826 37.3L34.3026 35.38C34.7626 36.08 35.3926 36.64 36.1926 37.06C37.0126 37.46 37.9226 37.66 38.9226 37.66C39.8626 37.66 40.6826 37.48 41.3826 37.12C42.1026 36.76 42.6626 36.26 43.0626 35.62C43.4826 34.96 43.6926 34.18 43.6926 33.28C43.6926 32.36 43.4926 31.58 43.0926 30.94C42.6926 30.3 42.1526 29.82 41.4726 29.5C40.8126 29.16 40.0826 28.99 39.2826 28.99C38.4626 28.99 37.7126 29.09 37.0326 29.29C36.3726 29.49 35.7426 29.83 35.1426 30.31L35.1726 28.51C35.5126 28.09 35.9026 27.75 36.3426 27.49C36.7826 27.23 37.2826 27.03 37.8426 26.89C38.4026 26.75 39.0526 26.68 39.7926 26.68C41.2326 26.68 42.4526 26.98 43.4526 27.58C44.4526 28.18 45.2126 28.99 45.7326 30.01C46.2726 31.03 46.5426 32.17 46.5426 33.43C46.5426 34.75 46.2126 35.93 45.5526 36.97C44.9126 38.01 44.0226 38.83 42.8826 39.43C41.7426 40.01 40.4426 40.3 38.9826 40.3ZM35.1426 30.31L33.6126 28.78L34.5426 19.18H37.1226L36.0726 29.05L35.1426 30.31ZM35.1126 21.7L34.5426 19.18H45.4926V21.7H35.1126ZM49.943 31.18V28.75H62.663V31.18H49.943ZM55.073 23.29H57.563V36.64H55.073V23.29Z" fill="white"/>
</svg>
