<svg width="53" height="46" viewBox="0 0 53 46" fill="none" xmlns="http://www.w3.org/2000/svg">
<g clip-path="url(#clip0_2_139)">
<path d="M1.24219 4.18191C1.24219 2.56522 2.53986 1.25464 4.14062 1.25464H23.0515C24.6523 1.25464 25.95 2.56522 25.95 4.18191V44.7455H4.14062C2.53986 44.7455 1.24219 43.435 1.24219 41.8183V4.18191Z" stroke="#BB9F64" stroke-width="3"/>
<path d="M26.3948 23.4058C26.3948 21.7891 27.6925 20.4785 29.2933 20.4785H48.2043C49.805 20.4785 51.1027 21.7891 51.1027 23.4058V41.8183C51.1027 43.4349 49.805 44.7455 48.2043 44.7455H26.3948V23.4058Z" stroke="#BB9F64" stroke-width="3"/>
<path d="M10.7287 8.23877H6.26672C5.80936 8.23877 5.4386 8.61322 5.4386 9.07513V10.8352C5.4386 11.2972 5.80936 11.6716 6.26672 11.6716H10.7287C11.1861 11.6716 11.5568 11.2972 11.5568 10.8352V9.07513C11.5568 8.61322 11.1861 8.23877 10.7287 8.23877Z" fill="#BB9F64"/>
<path d="M35.8814 26.0896H31.4194C30.962 26.0896 30.5912 26.4641 30.5912 26.926V28.6861C30.5912 29.148 30.962 29.5224 31.4194 29.5224H35.8814C36.3387 29.5224 36.7095 29.148 36.7095 28.6861V26.926C36.7095 26.4641 36.3387 26.0896 35.8814 26.0896Z" fill="#BB9F64"/>
<path d="M10.7287 17.1643H6.26672C5.80936 17.1643 5.4386 17.5388 5.4386 18.0007V19.7608C5.4386 20.2227 5.80936 20.5971 6.26672 20.5971H10.7287C11.1861 20.5971 11.5568 20.2227 11.5568 19.7608V18.0007C11.5568 17.5388 11.1861 17.1643 10.7287 17.1643Z" fill="#BB9F64"/>
<path d="M35.8814 34.3284H31.4194C30.962 34.3284 30.5912 34.7028 30.5912 35.1647V36.9248C30.5912 37.3868 30.962 37.7612 31.4194 37.7612H35.8814C36.3387 37.7612 36.7095 37.3868 36.7095 36.9248V35.1647C36.7095 34.7028 36.3387 34.3284 35.8814 34.3284Z" fill="#BB9F64"/>
<path d="M10.7287 26.0896H6.26672C5.80936 26.0896 5.4386 26.4641 5.4386 26.926V28.6861C5.4386 29.148 5.80936 29.5224 6.26672 29.5224H10.7287C11.1861 29.5224 11.5568 29.148 11.5568 28.6861V26.926C11.5568 26.4641 11.1861 26.0896 10.7287 26.0896Z" fill="#BB9F64"/>
<path d="M10.7287 35.0149H6.26672C5.80936 35.0149 5.4386 35.3893 5.4386 35.8513V37.6114C5.4386 38.0733 5.80936 38.4477 6.26672 38.4477H10.7287C11.1861 38.4477 11.5568 38.0733 11.5568 37.6114V35.8513C11.5568 35.3893 11.1861 35.0149 10.7287 35.0149Z" fill="#BB9F64"/>
<path d="M20.9254 8.23877H16.4634C16.0061 8.23877 15.6353 8.61322 15.6353 9.07513V10.8352C15.6353 11.2972 16.0061 11.6716 16.4634 11.6716H20.9254C21.3828 11.6716 21.7536 11.2972 21.7536 10.8352V9.07513C21.7536 8.61322 21.3828 8.23877 20.9254 8.23877Z" fill="#BB9F64"/>
<path d="M46.0785 26.0896H41.6165C41.1592 26.0896 40.7884 26.4641 40.7884 26.926V28.6861C40.7884 29.148 41.1592 29.5224 41.6165 29.5224H46.0785C46.5359 29.5224 46.9066 29.148 46.9066 28.6861V26.926C46.9066 26.4641 46.5359 26.0896 46.0785 26.0896Z" fill="#BB9F64"/>
<path d="M20.9254 17.1643H16.4634C16.0061 17.1643 15.6353 17.5388 15.6353 18.0007V19.7608C15.6353 20.2227 16.0061 20.5971 16.4634 20.5971H20.9254C21.3828 20.5971 21.7536 20.2227 21.7536 19.7608V18.0007C21.7536 17.5388 21.3828 17.1643 20.9254 17.1643Z" fill="#BB9F64"/>
<path d="M46.0785 34.3284H41.6165C41.1592 34.3284 40.7884 34.7028 40.7884 35.1647V36.9248C40.7884 37.3868 41.1592 37.7612 41.6165 37.7612H46.0785C46.5359 37.7612 46.9066 37.3868 46.9066 36.9248V35.1647C46.9066 34.7028 46.5359 34.3284 46.0785 34.3284Z" fill="#BB9F64"/>
<path d="M20.9254 26.0896H16.4634C16.0061 26.0896 15.6353 26.4641 15.6353 26.926V28.6861C15.6353 29.148 16.0061 29.5224 16.4634 29.5224H20.9254C21.3828 29.5224 21.7536 29.148 21.7536 28.6861V26.926C21.7536 26.4641 21.3828 26.0896 20.9254 26.0896Z" fill="#BB9F64"/>
<path d="M20.9254 35.0149H16.4634C16.0061 35.0149 15.6353 35.3893 15.6353 35.8513V37.6114C15.6353 38.0733 16.0061 38.4477 16.4634 38.4477H20.9254C21.3828 38.4477 21.7536 38.0733 21.7536 37.6114V35.8513C21.7536 35.3893 21.3828 35.0149 20.9254 35.0149Z" fill="#BB9F64"/>
</g>
<defs>
<clipPath id="clip0_2_139">
<rect width="53" height="46" fill="white"/>
</clipPath>
</defs>
</svg>
