<svg width="53" height="36" viewBox="0 0 53 36" fill="none" xmlns="http://www.w3.org/2000/svg">
<mask id="mask0_2_232" style="mask-type:alpha" maskUnits="userSpaceOnUse" x="0" y="0" width="32" height="32">
<path d="M30.2857 0H1.51429C0.677969 0 0 0.685862 0 1.53191V29.8723C0 30.7184 0.677969 31.4043 1.51429 31.4043H30.2857C31.122 31.4043 31.8 30.7184 31.8 29.8723V1.53191C31.8 0.685862 31.122 0 30.2857 0Z" fill="white"/>
</mask>
<g mask="url(#mask0_2_232)">
<path d="M30.2857 0H1.51429C0.677969 0 0 0.685862 0 1.53191V29.8723C0 30.7184 0.677969 31.4043 1.51429 31.4043H30.2857C31.122 31.4043 31.8 30.7184 31.8 29.8723V1.53191C31.8 0.685862 31.122 0 30.2857 0Z" stroke="#D1B06B" stroke-width="6"/>
</g>
<mask id="mask1_2_232" style="mask-type:alpha" maskUnits="userSpaceOnUse" x="29" y="7" width="24" height="25">
<path d="M29.5408 7.93956C29.5408 7.51651 29.8797 7.17358 30.2979 7.17358H43.5357C48.5536 7.17358 52.6214 11.2888 52.6214 16.3651V30.6218C52.6214 31.0448 52.2825 31.3877 51.8643 31.3877H30.2979C29.8797 31.3877 29.5408 31.0448 29.5408 30.6218V7.93956Z" fill="white"/>
</mask>
<g mask="url(#mask1_2_232)">
<path d="M29.5408 7.93956C29.5408 7.51651 29.8797 7.17358 30.2979 7.17358H43.5357C48.5536 7.17358 52.6214 11.2888 52.6214 16.3651V30.6218C52.6214 31.0448 52.2825 31.3877 51.8643 31.3877H30.2979C29.8797 31.3877 29.5408 31.0448 29.5408 30.6218V7.93956Z" stroke="#D1B06B" stroke-width="6"/>
</g>
<mask id="mask2_2_232" style="mask-type:alpha" maskUnits="userSpaceOnUse" x="38" y="7" width="15" height="13">
<path d="M38.944 7.17358H43.5357C48.5536 7.17358 52.6215 11.2888 52.6215 16.3651V18.5147C52.6215 18.9377 52.2825 19.2806 51.8643 19.2806H41.2154C39.961 19.2806 38.944 18.2519 38.944 16.9828V7.17358Z" fill="white"/>
</mask>
<g mask="url(#mask2_2_232)">
<path d="M38.944 7.17358H43.5357C48.5536 7.17358 52.6215 11.2888 52.6215 16.3651V18.5147C52.6215 18.9377 52.2825 19.2806 51.8643 19.2806H41.2154C39.961 19.2806 38.944 18.2519 38.944 16.9828V7.17358Z" stroke="#D1B06B" stroke-width="6"/>
</g>
</svg>
