<svg width="53" height="60" viewBox="0 0 53 60" fill="none" xmlns="http://www.w3.org/2000/svg">
<g clip-path="url(#clip0_2_165)">
<path d="M6.73729 21.0448C6.73729 10.1639 15.5853 1.34326 26.5 1.34326C37.4147 1.34326 46.2627 10.1639 46.2627 21.0448V50.597H6.73729V21.0448Z" stroke="#D1B06B" stroke-width="3"/>
<path d="M2.00522 51.2526C1.58158 51.675 1.44533 52.1768 1.39236 52.5697C1.34714 52.905 1.34729 53.3022 1.34744 53.6696C1.34744 53.6903 1.34745 53.7109 1.34745 53.7313V55.5223C1.34745 55.5427 1.34744 55.5633 1.34744 55.584C1.34729 55.9514 1.34714 56.3486 1.39236 56.6839C1.44533 57.0768 1.58158 57.5786 2.00522 58.0009C2.42886 58.4233 2.93225 58.559 3.32629 58.6119C3.66265 58.657 4.06113 58.6568 4.42963 58.6566C4.45036 58.6566 4.471 58.6566 4.49152 58.6566H48.5085H48.5704C48.9388 58.6568 49.3373 58.657 49.6737 58.6119C50.0677 58.559 50.5712 58.4233 50.9948 58.0009C51.4184 57.5786 51.5546 57.0768 51.6076 56.6839C51.6529 56.3486 51.6527 55.9514 51.6525 55.584V55.5223V53.7313V53.6696C51.6527 53.3022 51.6529 52.905 51.6076 52.5697C51.5546 52.1768 51.4184 51.675 50.9948 51.2526C50.5712 50.8303 50.0677 50.6946 49.6737 50.6417C49.3373 50.5966 48.9388 50.5968 48.5704 50.5969H48.5085H4.49152C4.471 50.5969 4.45036 50.5969 4.42964 50.5969C4.06113 50.5968 3.66265 50.5966 3.32629 50.6417C2.93225 50.6946 2.42886 50.8303 2.00522 51.2526Z" stroke="#D1B06B" stroke-width="3"/>
<path d="M17.6382 27.7173V26.271H20.3412C20.8808 26.271 21.2982 26.134 21.5935 25.8599C21.8989 25.5758 22.0516 25.185 22.0516 24.6877C22.0516 24.2411 21.904 23.8656 21.6087 23.5611C21.3135 23.2567 20.8961 23.1044 20.3565 23.1044H17.6382V21.582H20.4328C21.1048 21.582 21.6952 21.719 22.2043 21.9931C22.7134 22.257 23.1053 22.6224 23.3802 23.0892C23.6652 23.5459 23.8078 24.0686 23.8078 24.6573C23.8078 25.2763 23.6652 25.8143 23.3802 26.271C23.1053 26.7277 22.7134 27.083 22.2043 27.3367C21.6952 27.5904 21.1048 27.7173 20.4328 27.7173H17.6382ZM16.4318 32.2387V21.582H18.188V32.2387H16.4318ZM22.2959 32.2387L18.5545 27.6107L20.1885 27.017L24.5103 32.2387H22.2959ZM25.8123 32.2387V21.582H27.5684V32.2387H25.8123ZM31.09 28.2196V26.6973H33.7624C34.1289 26.6973 34.4496 26.6262 34.7245 26.4841C35.0096 26.3319 35.2336 26.1239 35.3965 25.8599C35.5593 25.5859 35.6408 25.2662 35.6408 24.9008C35.6408 24.5355 35.5593 24.2209 35.3965 23.957C35.2336 23.6829 35.0096 23.4749 34.7245 23.3328C34.4496 23.1805 34.1289 23.1044 33.7624 23.1044H31.09V21.582H33.8541C34.526 21.582 35.1267 21.719 35.6561 21.9931C36.1957 22.2671 36.6181 22.6528 36.9236 23.1501C37.2391 23.6474 37.397 24.231 37.397 24.9008C37.397 25.5707 37.2391 26.1543 36.9236 26.6516C36.6181 27.1489 36.1957 27.5346 35.6561 27.8086C35.1267 28.0826 34.526 28.2196 33.8541 28.2196H31.09ZM29.8836 32.2387V21.582H31.6397V32.2387H29.8836Z" fill="#D1B06B"/>
<path d="M16.3042 36.582H36.6958" stroke="#D1B06B" stroke-width="2.3" stroke-linecap="round"/>
<path d="M11.8127 41.9553H41.1873" stroke="#D1B06B" stroke-width="2.3" stroke-linecap="round"/>
</g>
<defs>
<clipPath id="clip0_2_165">
<rect width="53" height="60" fill="white"/>
</clipPath>
</defs>
</svg>
