<svg width="53" height="56" viewBox="0 0 53 56" fill="none" xmlns="http://www.w3.org/2000/svg">
<g clip-path="url(#clip0_2_211)">
<path d="M11.7778 53.8556C17.4541 53.8556 22.0556 49.2541 22.0556 43.5779C22.0556 37.9016 17.4541 33.3 11.7778 33.3C6.10153 33.3 1.5 37.9016 1.5 43.5779C1.5 49.2541 6.10153 53.8556 11.7778 53.8556Z" stroke="#D1B06B" stroke-width="3"/>
<path d="M41.2221 30.3C46.8983 30.3 51.4999 25.6985 51.4999 20.0222C51.4999 14.3459 46.8983 9.74438 41.2221 9.74438C35.5458 9.74438 30.9443 14.3459 30.9443 20.0222C30.9443 25.6985 35.5458 30.3 41.2221 30.3Z" stroke="#D1B06B" stroke-width="3"/>
<path d="M14.2415 5.94481L10.7091 9.39338C9.47856 10.5947 9.4549 12.5662 10.6562 13.7967C11.8576 15.0272 13.829 15.0509 15.0595 13.8495L18.5919 10.401C19.8225 9.19963 19.8461 7.2282 18.6448 5.99767C17.4434 4.76713 15.472 4.74346 14.2415 5.94481Z" stroke="#D1B06B" stroke-width="2"/>
<path d="M30.9426 1.92129L26.0319 1.41593C24.3212 1.23988 22.7917 2.48395 22.6156 4.19464C22.4396 5.90533 23.6836 7.43482 25.3943 7.61087L30.305 8.11623C32.0157 8.29228 33.5452 7.04821 33.7213 5.33752C33.8973 3.62683 32.6533 2.09734 30.9426 1.92129Z" stroke="#D1B06B" stroke-width="2"/>
<path d="M5.31704 20.7219L4.2338 25.5382C3.85645 27.216 4.91067 28.8821 6.58848 29.2594C8.26629 29.6368 9.93233 28.5826 10.3097 26.9048L11.3929 22.0884C11.7703 20.4106 10.7161 18.7446 9.03825 18.3672C7.36044 17.9899 5.6944 19.0441 5.31704 20.7219Z" stroke="#D1B06B" stroke-width="2"/>
<path d="M12.3031 13.0908L9.55756 19.497" stroke="#D1B06B" stroke-width="2" stroke-linecap="round"/>
<path d="M8.21771 27.9109L9.06669 33.0047" stroke="#D1B06B" stroke-width="2" stroke-linecap="round"/>
<path d="M24.0466 4.76978L17.7252 6.5759" stroke="#D1B06B" stroke-width="2" stroke-linecap="round"/>
<path d="M35.1057 10.4438L31.6439 6.1167" stroke="#D1B06B" stroke-width="2" stroke-linecap="round"/>
</g>
<defs>
<clipPath id="clip0_2_211">
<rect width="53" height="56" fill="white"/>
</clipPath>
</defs>
</svg>
