<svg width="53" height="38" viewBox="0 0 53 38" fill="none" xmlns="http://www.w3.org/2000/svg">
<g clip-path="url(#clip0_2_182)">
<path d="M48.7136 32.358C50.3534 32.358 51.549 30.683 51.1596 28.9518C49.754 22.7144 44.5701 18.0825 38.3913 18.0825C32.2125 18.0825 27.0254 22.7144 25.623 28.9551C25.2336 30.6863 26.4292 32.358 28.069 32.358H48.7136Z" fill="#1F2732" stroke="#D1B06B" stroke-width="3" stroke-miterlimit="10"/>
<path d="M24.9313 32.358C26.5711 32.358 27.7667 30.683 27.3772 28.9518C25.9718 22.7144 20.7877 18.0825 14.609 18.0825C8.43017 18.0825 3.24315 22.7144 1.84068 28.9551C1.45128 30.6863 2.64688 32.358 4.28664 32.358H24.9313Z" fill="#1F2732" stroke="#D1B06B" stroke-width="3" stroke-miterlimit="10"/>
<path d="M34.1463 36.1645C35.361 36.1645 36.2466 34.9362 35.9581 33.6666C34.917 29.0925 31.0771 25.6958 26.5001 25.6958C21.9232 25.6958 18.081 29.0925 17.0421 33.6691C16.7537 34.9385 17.6393 36.1645 18.854 36.1645H34.1463Z" fill="#1F2732" stroke="#D1B06B" stroke-width="3" stroke-miterlimit="10"/>
<path d="M44.2005 7.61369C44.2005 11.0865 41.3865 13.9017 37.9153 13.9017C34.444 13.9017 31.63 11.0865 31.63 7.61369C31.63 4.14093 34.444 1.32568 37.9153 1.32568C41.3865 1.32568 44.2005 4.14093 44.2005 7.61369Z" stroke="#D1B06B" stroke-width="3" stroke-miterlimit="10"/>
<path d="M21.3698 7.61369C21.3698 11.0865 18.5557 13.9017 15.0845 13.9017C11.6133 13.9017 8.79926 11.0865 8.79926 7.61369C8.79926 4.14093 11.6133 1.32568 15.0845 1.32568C18.5557 1.32568 21.3698 4.14093 21.3698 7.61369Z" stroke="#D1B06B" stroke-width="3" stroke-miterlimit="10"/>
<path d="M30.8828 18.0823C30.8828 20.5039 28.9206 22.467 26.5001 22.467C24.0796 22.467 22.1174 20.5039 22.1174 18.0823C22.1174 15.6609 24.0796 13.6978 26.5001 13.6978C28.9206 13.6978 30.8828 15.6609 30.8828 18.0823Z" stroke="#D1B06B" stroke-width="3" stroke-miterlimit="10"/>
</g>
<defs>
<clipPath id="clip0_2_182">
<rect width="53" height="38" fill="white"/>
</clipPath>
</defs>
</svg>
