<svg width="21" height="20" viewBox="0 0 21 20" fill="none" xmlns="http://www.w3.org/2000/svg">
<path d="M10.7459 0C5.25387 0 0.800781 4.4511 0.800781 9.94064C0.800781 14.0101 3.25153 17.5071 6.75451 19.047C6.72787 18.3547 6.75007 17.5204 6.92766 16.766C7.11857 15.9583 8.20631 11.3474 8.20631 11.3474C8.20631 11.3474 7.88665 10.7128 7.88665 9.77644C7.88665 8.3031 8.73908 7.20253 9.80463 7.20253C10.7103 7.20253 11.1454 7.88151 11.1454 8.69362C11.1454 9.60337 10.5638 10.9613 10.2664 12.2217C10.0177 13.2779 10.7947 14.1343 11.838 14.1343C13.7205 14.1343 14.9903 11.7158 14.9903 8.84894C14.9903 6.66999 13.5207 5.04132 10.8524 5.04132C7.83781 5.04132 5.95535 7.29128 5.95535 9.80307C5.95535 10.6684 6.21286 11.2808 6.61243 11.7513C6.79447 11.9687 6.8211 12.0575 6.75451 12.306C6.70567 12.4879 6.59912 12.9273 6.55028 13.1048C6.48368 13.3577 6.27945 13.4465 6.05302 13.3533C4.66338 12.7853 4.01517 11.2675 4.01517 9.55455C4.01517 6.73212 6.39933 3.34609 11.1232 3.34609C14.9192 3.34609 17.4188 6.09308 17.4188 9.03977C17.4188 12.9406 15.2478 15.8518 12.0511 15.8518C10.9767 15.8518 9.9689 15.2704 9.6226 14.6136C9.6226 14.6136 9.04543 16.9035 8.92111 17.3473C8.71244 18.115 8.29955 18.8783 7.92217 19.4774C8.83759 19.7474 9.78698 19.8849 10.7414 19.8857C16.2334 19.8857 20.6865 15.4346 20.6865 9.94508C20.6865 4.45554 16.2378 0 10.7459 0Z" fill="white"/>
</svg>
