<svg width="22" height="18" viewBox="0 0 22 18" fill="none" xmlns="http://www.w3.org/2000/svg">
<path d="M21.3599 2.64532C20.5732 2.98716 19.7408 3.21237 18.889 3.31384C19.7842 2.78968 20.4574 1.95695 20.7823 0.971832C19.936 1.46671 19.0116 1.81394 18.0488 1.99865C17.6433 1.57373 17.1557 1.2357 16.6156 1.0051C16.0754 0.774503 15.494 0.656148 14.9067 0.657234C12.5289 0.657234 10.6046 2.55356 10.6046 4.8912C10.6029 5.21636 10.6402 5.54055 10.7156 5.85684C9.01051 5.77691 7.34088 5.34194 5.81353 4.57977C4.28618 3.8176 2.93474 2.74501 1.84567 1.43062C1.46359 2.07473 1.26153 2.80963 1.2606 3.55853C1.2606 5.02665 2.02656 6.32437 3.18315 7.08465C2.4979 7.06839 1.8267 6.88702 1.22652 6.55595V6.60838C1.22652 8.66201 2.71212 10.3705 4.67836 10.7593C4.30862 10.8579 3.9276 10.9078 3.54494 10.9079C3.27341 10.9084 3.0025 10.882 2.73616 10.8292C3.28277 12.5115 4.87368 13.7349 6.75821 13.7699C5.22689 14.95 3.34683 15.5879 1.41353 15.5832C1.07037 15.5827 0.727518 15.5622 0.386719 15.522C2.35347 16.7779 4.63967 17.4422 6.97318 17.4358C14.8976 17.4358 19.2268 10.9822 19.2268 5.38494C19.2268 5.20143 19.222 5.01791 19.2132 4.83877C20.0535 4.24106 20.7805 3.49828 21.3599 2.64532Z" fill="white"/>
</svg>
