<svg width="400" height="79" viewBox="0 0 400 79" fill="none" xmlns="http://www.w3.org/2000/svg">
<path d="M116.215 59.22C116.432 59.22 116.54 59.35 116.54 59.61C116.54 59.87 116.432 60 116.215 60C115.392 60 114.07 59.9567 112.25 59.87C110.43 59.7833 109.108 59.74 108.285 59.74C107.202 59.74 105.923 59.7833 104.45 59.87C102.977 59.9567 101.828 60 101.005 60C100.832 60 100.745 59.87 100.745 59.61C100.745 59.35 100.832 59.22 101.005 59.22C102.262 59.22 103.172 59.09 103.735 58.83C104.342 58.5267 104.645 58.05 104.645 57.4C104.645 56.75 104.277 55.645 103.54 54.085L98.6 44.075H82.87L79.75 51.095C79.1867 52.395 78.905 53.565 78.905 54.605C78.905 56.1217 79.4467 57.27 80.53 58.05C81.6133 58.83 83.13 59.22 85.08 59.22C85.2967 59.22 85.405 59.35 85.405 59.61C85.405 59.87 85.2967 60 85.08 60C84.3 60 83.1733 59.9567 81.7 59.87C80.0533 59.7833 78.6233 59.74 77.41 59.74C76.24 59.74 74.875 59.7833 73.315 59.87C71.9283 59.9567 70.78 60 69.87 60C69.6533 60 69.545 59.87 69.545 59.61C69.545 59.35 69.6533 59.22 69.87 59.22C71.0833 59.22 72.1017 58.9817 72.925 58.505C73.7483 58.0283 74.55 57.1833 75.33 55.97C76.11 54.7133 77.0417 52.8717 78.125 50.445L92.1 18.985C92.1867 18.855 92.3817 18.79 92.685 18.79C92.9883 18.79 93.1617 18.855 93.205 18.985L109.13 51.095C110.647 54.215 111.903 56.36 112.9 57.53C113.94 58.6567 115.045 59.22 116.215 59.22ZM83.585 42.45H97.82L90.345 27.305L83.585 42.45ZM137.011 55.84C137.141 55.84 137.249 55.9267 137.336 56.1C137.466 56.2733 137.466 56.4033 137.336 56.49C135.733 58.0067 134.216 59.1117 132.786 59.805C131.356 60.455 129.839 60.78 128.236 60.78C126.373 60.78 124.791 60.3467 123.491 59.48C122.234 58.57 121.606 57.075 121.606 54.995V40.305C121.606 38.875 121.368 37.9217 120.891 37.445C120.458 36.9683 119.591 36.73 118.291 36.73C118.248 36.73 118.183 36.6867 118.096 36.6C118.053 36.47 118.031 36.34 118.031 36.21C118.031 36.08 118.053 35.9717 118.096 35.885C118.183 35.755 118.248 35.69 118.291 35.69C122.364 35.5167 124.921 33.7617 125.961 30.425C126.048 30.2517 126.221 30.165 126.481 30.165C126.784 30.165 126.936 30.2517 126.936 30.425V35.56C128.973 35.5167 131.854 35.3 135.581 34.91C135.668 34.91 135.754 35.0833 135.841 35.43C135.971 35.7333 136.036 36.08 136.036 36.47C136.036 36.86 135.949 37.25 135.776 37.64C135.646 38.03 135.494 38.2033 135.321 38.16C132.894 37.5967 130.099 37.25 126.936 37.12V52.85C126.936 54.54 127.348 55.7967 128.171 56.62C129.038 57.4 130.229 57.79 131.746 57.79C133.566 57.79 135.278 57.1617 136.881 55.905L137.011 55.84ZM158.91 55.84C159.04 55.84 159.149 55.9267 159.235 56.1C159.365 56.2733 159.365 56.4033 159.235 56.49C157.632 58.0067 156.115 59.1117 154.685 59.805C153.255 60.455 151.739 60.78 150.135 60.78C148.272 60.78 146.69 60.3467 145.39 59.48C144.134 58.57 143.505 57.075 143.505 54.995V40.305C143.505 38.875 143.267 37.9217 142.79 37.445C142.357 36.9683 141.49 36.73 140.19 36.73C140.147 36.73 140.082 36.6867 139.995 36.6C139.952 36.47 139.93 36.34 139.93 36.21C139.93 36.08 139.952 35.9717 139.995 35.885C140.082 35.755 140.147 35.69 140.19 35.69C144.264 35.5167 146.82 33.7617 147.86 30.425C147.947 30.2517 148.12 30.165 148.38 30.165C148.684 30.165 148.835 30.2517 148.835 30.425V35.56C150.872 35.5167 153.754 35.3 157.48 34.91C157.567 34.91 157.654 35.0833 157.74 35.43C157.87 35.7333 157.935 36.08 157.935 36.47C157.935 36.86 157.849 37.25 157.675 37.64C157.545 38.03 157.394 38.2033 157.22 38.16C154.794 37.5967 151.999 37.25 148.835 37.12V52.85C148.835 54.54 149.247 55.7967 150.07 56.62C150.937 57.4 152.129 57.79 153.645 57.79C155.465 57.79 157.177 57.1617 158.78 55.905L158.91 55.84ZM175.285 60.845C172.685 60.845 170.388 60.2383 168.395 59.025C166.401 57.7683 164.863 56.1 163.78 54.02C162.696 51.8967 162.155 49.6 162.155 47.13C162.155 44.3133 162.848 41.93 164.235 39.98C165.665 37.9867 167.463 36.5133 169.63 35.56C171.84 34.5633 174.093 34.065 176.39 34.065C179.033 34.065 181.33 34.6933 183.28 35.95C185.273 37.2067 186.79 38.875 187.83 40.955C188.87 42.9917 189.39 45.18 189.39 47.52C189.39 50.12 188.74 52.4383 187.44 54.475C186.183 56.5117 184.471 58.0933 182.305 59.22C180.138 60.3033 177.798 60.845 175.285 60.845ZM177.235 59.545C179.141 59.545 180.593 58.7 181.59 57.01C182.63 55.32 183.15 52.85 183.15 49.6C183.15 46.6967 182.738 44.1617 181.915 41.995C181.135 39.8283 180.051 38.1817 178.665 37.055C177.321 35.9283 175.848 35.365 174.245 35.365C172.295 35.365 170.821 36.1667 169.825 37.77C168.828 39.3733 168.33 41.735 168.33 44.855C168.33 47.6717 168.698 50.2067 169.435 52.46C170.215 54.67 171.276 56.4033 172.62 57.66C174.006 58.9167 175.545 59.545 177.235 59.545ZM210.536 34.26C211.533 34.26 212.486 34.585 213.396 35.235C214.306 35.885 214.761 36.665 214.761 37.575C214.761 38.3983 214.501 39.07 213.981 39.59C213.504 40.11 212.833 40.37 211.966 40.37C211.403 40.37 210.926 40.2617 210.536 40.045C210.189 39.785 209.821 39.4383 209.431 39.005C209.041 38.615 208.694 38.3333 208.391 38.16C208.088 37.9433 207.719 37.835 207.286 37.835C206.809 37.835 206.289 38.03 205.726 38.42C205.206 38.7667 204.383 39.525 203.256 40.695V54.735C203.256 55.9483 203.429 56.88 203.776 57.53C204.123 58.1367 204.708 58.57 205.531 58.83C206.354 59.09 207.568 59.22 209.171 59.22C209.344 59.22 209.431 59.35 209.431 59.61C209.431 59.87 209.344 60 209.171 60C207.741 60 206.593 59.9783 205.726 59.935L200.591 59.87L196.821 59.935C196.214 59.9783 195.369 60 194.286 60C194.156 60 194.091 59.87 194.091 59.61C194.091 59.35 194.156 59.22 194.286 59.22C195.759 59.22 196.734 58.9167 197.211 58.31C197.688 57.7033 197.926 56.5117 197.926 54.735V42.32C197.926 40.9333 197.753 39.915 197.406 39.265C197.103 38.615 196.583 38.29 195.846 38.29C195.196 38.29 194.113 38.615 192.596 39.265H192.531C192.358 39.265 192.228 39.1567 192.141 38.94C192.054 38.7233 192.076 38.5933 192.206 38.55L200.721 34.39C200.981 34.3033 201.133 34.26 201.176 34.26C201.609 34.26 202.043 34.7367 202.476 35.69C202.909 36.6 203.169 37.8133 203.256 39.33C204.946 37.4233 206.354 36.1017 207.481 35.365C208.608 34.6283 209.626 34.26 210.536 34.26ZM248.693 59.22C248.823 59.22 248.888 59.35 248.888 59.61C248.888 59.87 248.823 60 248.693 60C247.609 60 246.764 59.9783 246.158 59.935L242.388 59.87L238.683 59.935C238.033 59.9783 237.166 60 236.083 60C235.953 60 235.888 59.87 235.888 59.61C235.888 59.35 235.953 59.22 236.083 59.22C237.556 59.22 238.531 58.9167 239.008 58.31C239.484 57.7033 239.723 56.5117 239.723 54.735V44.985C239.723 42.5583 239.268 40.7817 238.358 39.655C237.491 38.485 236.104 37.9 234.198 37.9C233.071 37.9 231.923 38.16 230.753 38.68C229.583 39.2 228.521 39.8933 227.568 40.76V54.735C227.568 56.5117 227.806 57.7033 228.283 58.31C228.759 58.9167 229.734 59.22 231.208 59.22C231.338 59.22 231.403 59.35 231.403 59.61C231.403 59.87 231.338 60 231.208 60C230.124 60 229.279 59.9783 228.673 59.935L224.903 59.87L221.133 59.935C220.526 59.9783 219.681 60 218.598 60C218.468 60 218.403 59.87 218.403 59.61C218.403 59.35 218.468 59.22 218.598 59.22C220.071 59.22 221.046 58.9167 221.523 58.31C221.999 57.7033 222.238 56.5117 222.238 54.735V42.32C222.238 40.9333 222.064 39.915 221.718 39.265C221.414 38.615 220.894 38.29 220.158 38.29C219.508 38.29 218.424 38.615 216.908 39.265H216.843C216.669 39.265 216.539 39.1567 216.453 38.94C216.366 38.7233 216.388 38.5933 216.518 38.55L225.033 34.39C225.293 34.3033 225.444 34.26 225.488 34.26C225.921 34.26 226.354 34.7583 226.788 35.755C227.264 36.7083 227.524 37.965 227.568 39.525C230.601 35.9283 233.894 34.13 237.448 34.13C239.831 34.13 241.694 34.8667 243.038 36.34C244.381 37.77 245.053 39.72 245.053 42.19V54.735C245.053 56.5117 245.291 57.7033 245.768 58.31C246.244 58.9167 247.219 59.22 248.693 59.22ZM274.591 55.905C274.678 55.905 274.764 55.9917 274.851 56.165C274.981 56.3383 275.003 56.4683 274.916 56.555C273.313 58.0283 271.709 59.1117 270.106 59.805C268.503 60.455 266.769 60.78 264.906 60.78C262.263 60.78 259.966 60.195 258.016 59.025C256.109 57.855 254.636 56.3167 253.596 54.41C252.599 52.5033 252.101 50.445 252.101 48.235C252.101 45.6783 252.729 43.3383 253.986 41.215C255.243 39.0917 256.954 37.4233 259.121 36.21C261.331 34.9533 263.779 34.325 266.466 34.325C269.066 34.325 271.081 34.9533 272.511 36.21C273.941 37.4667 274.656 39.33 274.656 41.8C274.656 43.0567 274.396 43.685 273.876 43.685L258.016 43.75C257.973 44.14 257.951 44.725 257.951 45.505C257.951 49.3183 258.818 52.3517 260.551 54.605C262.328 56.815 264.841 57.92 268.091 57.92C269.304 57.92 270.323 57.79 271.146 57.53C271.969 57.2267 273.074 56.7067 274.461 55.97L274.591 55.905ZM264.126 35.625C262.523 35.625 261.201 36.2533 260.161 37.51C259.164 38.7233 258.493 40.4133 258.146 42.58L268.546 42.385C268.459 37.8783 266.986 35.625 264.126 35.625ZM305.404 34.91C305.49 34.91 305.534 35.04 305.534 35.3C305.534 35.56 305.49 35.69 305.404 35.69C304.104 35.69 302.977 36.21 302.024 37.25C301.114 38.29 300.269 39.8717 299.489 41.995L292.014 61.82C290.454 65.98 288.959 69.2517 287.529 71.635C286.099 74.0183 284.647 75.7083 283.174 76.705C281.7 77.745 280.075 78.265 278.299 78.265C277.085 78.265 276.154 78.005 275.504 77.485C274.81 77.0083 274.464 76.2717 274.464 75.275C274.464 74.4083 274.745 73.7367 275.309 73.26C275.829 72.8267 276.479 72.61 277.259 72.61C277.779 72.61 278.212 72.675 278.559 72.805C278.949 72.9783 279.339 73.195 279.729 73.455C280.162 73.715 280.53 73.91 280.834 74.04C281.18 74.17 281.592 74.235 282.069 74.235C283.065 74.235 283.975 73.8233 284.799 73C285.665 72.22 286.554 70.8983 287.464 69.035C288.417 67.1717 289.544 64.5283 290.844 61.105L280.574 40.305C279.62 38.4417 278.862 37.2067 278.299 36.6C277.779 35.9933 277.129 35.69 276.349 35.69C276.219 35.69 276.154 35.56 276.154 35.3C276.154 35.04 276.219 34.91 276.349 34.91C277.475 34.91 278.342 34.9317 278.949 34.975L281.484 35.04L285.904 34.975C286.554 34.9317 287.442 34.91 288.569 34.91C288.699 34.91 288.764 35.04 288.764 35.3C288.764 35.56 288.699 35.69 288.569 35.69C287.399 35.69 286.532 35.7983 285.969 36.015C285.449 36.1883 285.189 36.535 285.189 37.055C285.189 37.445 285.297 37.835 285.514 38.225L293.444 54.605L297.799 41.995C298.189 40.8683 298.384 39.915 298.384 39.135C298.384 36.8383 296.932 35.69 294.029 35.69C293.942 35.69 293.899 35.56 293.899 35.3C293.899 35.04 293.942 34.91 294.029 34.91C295.199 34.91 296.087 34.9317 296.694 34.975L300.594 35.04L303.129 34.975C303.605 34.9317 304.364 34.91 305.404 34.91ZM312.143 38.29C312.143 39.6333 312.598 40.76 313.508 41.67C314.462 42.58 315.827 43.5333 317.603 44.53C319.163 45.3967 320.355 46.1117 321.178 46.675C322.045 47.2383 322.782 47.9967 323.388 48.95C324.038 49.9033 324.363 51.0517 324.363 52.395C324.363 53.8683 323.995 55.2333 323.258 56.49C322.522 57.7467 321.417 58.765 319.943 59.545C318.513 60.325 316.802 60.715 314.808 60.715C312.425 60.715 310.237 60.1083 308.243 58.895C307.983 58.635 307.853 58.375 307.853 58.115L307.723 52.135C307.723 52.005 307.832 51.94 308.048 51.94C308.308 51.8967 308.46 51.9183 308.503 52.005C309.24 54.1717 310.345 55.9483 311.818 57.335C313.335 58.7217 314.938 59.415 316.628 59.415C317.712 59.415 318.557 59.1333 319.163 58.57C319.77 58.0067 320.073 57.1617 320.073 56.035C320.073 54.3883 319.597 53.0883 318.643 52.135C317.69 51.1383 316.303 50.1633 314.483 49.21C313.01 48.43 311.862 47.78 311.038 47.26C310.215 46.6967 309.5 45.96 308.893 45.05C308.33 44.0967 308.048 42.9267 308.048 41.54C308.048 39.07 308.937 37.2283 310.713 36.015C312.533 34.8017 314.722 34.195 317.278 34.195C318.968 34.195 320.702 34.52 322.478 35.17C322.868 35.3433 323.063 35.5817 323.063 35.885C323.063 36.8817 323.042 37.6617 322.998 38.225L322.933 41.345C322.933 41.475 322.803 41.54 322.543 41.54C322.283 41.54 322.153 41.475 322.153 41.345C322.153 40.4783 321.807 39.59 321.113 38.68C320.42 37.7267 319.532 36.9467 318.448 36.34C317.365 35.7333 316.26 35.43 315.133 35.43C313.14 35.43 312.143 36.3833 312.143 38.29ZM347.563 55.84C347.693 55.84 347.801 55.9267 347.888 56.1C348.018 56.2733 348.018 56.4033 347.888 56.49C346.284 58.0067 344.768 59.1117 343.338 59.805C341.908 60.455 340.391 60.78 338.788 60.78C336.924 60.78 335.343 60.3467 334.043 59.48C332.786 58.57 332.158 57.075 332.158 54.995V40.305C332.158 38.875 331.919 37.9217 331.443 37.445C331.009 36.9683 330.143 36.73 328.843 36.73C328.799 36.73 328.734 36.6867 328.648 36.6C328.604 36.47 328.583 36.34 328.583 36.21C328.583 36.08 328.604 35.9717 328.648 35.885C328.734 35.755 328.799 35.69 328.843 35.69C332.916 35.5167 335.473 33.7617 336.513 30.425C336.599 30.2517 336.773 30.165 337.033 30.165C337.336 30.165 337.488 30.2517 337.488 30.425V35.56C339.524 35.5167 342.406 35.3 346.133 34.91C346.219 34.91 346.306 35.0833 346.393 35.43C346.523 35.7333 346.588 36.08 346.588 36.47C346.588 36.86 346.501 37.25 346.328 37.64C346.198 38.03 346.046 38.2033 345.873 38.16C343.446 37.5967 340.651 37.25 337.488 37.12V52.85C337.488 54.54 337.899 55.7967 338.723 56.62C339.589 57.4 340.781 57.79 342.298 57.79C344.118 57.79 345.829 57.1617 347.433 55.905L347.563 55.84ZM373.297 55.905C373.384 55.905 373.47 55.9917 373.557 56.165C373.687 56.3383 373.709 56.4683 373.622 56.555C372.019 58.0283 370.415 59.1117 368.812 59.805C367.209 60.455 365.475 60.78 363.612 60.78C360.969 60.78 358.672 60.195 356.722 59.025C354.815 57.855 353.342 56.3167 352.302 54.41C351.305 52.5033 350.807 50.445 350.807 48.235C350.807 45.6783 351.435 43.3383 352.692 41.215C353.949 39.0917 355.66 37.4233 357.827 36.21C360.037 34.9533 362.485 34.325 365.172 34.325C367.772 34.325 369.787 34.9533 371.217 36.21C372.647 37.4667 373.362 39.33 373.362 41.8C373.362 43.0567 373.102 43.685 372.582 43.685L356.722 43.75C356.679 44.14 356.657 44.725 356.657 45.505C356.657 49.3183 357.524 52.3517 359.257 54.605C361.034 56.815 363.547 57.92 366.797 57.92C368.01 57.92 369.029 57.79 369.852 57.53C370.675 57.2267 371.78 56.7067 373.167 55.97L373.297 55.905ZM362.832 35.625C361.229 35.625 359.907 36.2533 358.867 37.51C357.87 38.7233 357.199 40.4133 356.852 42.58L367.252 42.385C367.165 37.8783 365.692 35.625 362.832 35.625ZM394.555 34.26C395.551 34.26 396.505 34.585 397.415 35.235C398.325 35.885 398.78 36.665 398.78 37.575C398.78 38.3983 398.52 39.07 398 39.59C397.523 40.11 396.851 40.37 395.985 40.37C395.421 40.37 394.945 40.2617 394.555 40.045C394.208 39.785 393.84 39.4383 393.45 39.005C393.06 38.615 392.713 38.3333 392.41 38.16C392.106 37.9433 391.738 37.835 391.305 37.835C390.828 37.835 390.308 38.03 389.745 38.42C389.225 38.7667 388.401 39.525 387.275 40.695V54.735C387.275 55.9483 387.448 56.88 387.795 57.53C388.141 58.1367 388.726 58.57 389.55 58.83C390.373 59.09 391.586 59.22 393.19 59.22C393.363 59.22 393.45 59.35 393.45 59.61C393.45 59.87 393.363 60 393.19 60C391.76 60 390.611 59.9783 389.745 59.935L384.61 59.87L380.84 59.935C380.233 59.9783 379.388 60 378.305 60C378.175 60 378.11 59.87 378.11 59.61C378.11 59.35 378.175 59.22 378.305 59.22C379.778 59.22 380.753 58.9167 381.23 58.31C381.706 57.7033 381.945 56.5117 381.945 54.735V42.32C381.945 40.9333 381.771 39.915 381.425 39.265C381.121 38.615 380.601 38.29 379.865 38.29C379.215 38.29 378.131 38.615 376.615 39.265H376.55C376.376 39.265 376.246 39.1567 376.16 38.94C376.073 38.7233 376.095 38.5933 376.225 38.55L384.74 34.39C385 34.3033 385.151 34.26 385.195 34.26C385.628 34.26 386.061 34.7367 386.495 35.69C386.928 36.6 387.188 37.8133 387.275 39.33C388.965 37.4233 390.373 36.1017 391.5 35.365C392.626 34.6283 393.645 34.26 394.555 34.26Z" fill="white"/>
<path d="M58.44 23.8236C58.44 19.6883 55.009 16.3362 50.7765 16.3362H9.66352C5.43101 16.3362 2 19.6883 2 23.8236" stroke="url(#paint0_radial_2_11)" stroke-width="3.5" stroke-miterlimit="10"/>
<path d="M4 61.6953C4 65.6965 7.25233 68.9407 11.2634 68.9407H50.2295C54.2406 68.9407 57.4929 65.6965 57.4929 61.6953" stroke="url(#paint1_radial_2_11)" stroke-width="3.5" stroke-miterlimit="10"/>
<path d="M18.5782 27H15V57.7272H18.5782V27Z" fill="url(#paint2_radial_2_11)"/>
<path d="M25.2317 27H21.6534V57.7272H25.2317V27Z" fill="url(#paint3_radial_2_11)"/>
<path d="M32.0104 27H28.4321V57.7272H32.0104V27Z" fill="url(#paint4_radial_2_11)"/>
<path d="M38.6003 27H35.0221V57.7272H38.6003V27Z" fill="url(#paint5_radial_2_11)"/>
<path d="M45.3489 27H41.7706V57.7272H45.3489V27Z" fill="url(#paint6_radial_2_11)"/>
<path d="M18.5782 73.5918H15V79H18.5782V73.5918Z" fill="url(#paint7_radial_2_11)"/>
<path d="M25.2317 73.5918H21.6534V79H25.2317V73.5918Z" fill="url(#paint8_radial_2_11)"/>
<path d="M32.0105 73.5918H28.4323V79H32.0105V73.5918Z" fill="url(#paint9_radial_2_11)"/>
<path d="M38.602 73.5918H35.0238V79H38.602V73.5918Z" fill="url(#paint10_radial_2_11)"/>
<path d="M45.349 73.5918H41.7708V79H45.349V73.5918Z" fill="url(#paint11_radial_2_11)"/>
<path d="M25.23 1H21.6517V6.40822H25.23V1Z" fill="url(#paint12_radial_2_11)"/>
<path d="M32.0104 1H28.4321V6.40822H32.0104V1Z" fill="url(#paint13_radial_2_11)"/>
<path d="M38.6002 1H35.022V6.40822H38.6002V1Z" fill="url(#paint14_radial_2_11)"/>
<path d="M48.4865 24.5694V21H13V24.5694H48.4865Z" fill="url(#paint15_radial_2_11)"/>
<path d="M48 64.3699V60.8005H12.5136V64.3699H48Z" fill="url(#paint16_radial_2_11)"/>
<path d="M48 11.8438V8.27441H12.5136V11.8438H48Z" fill="url(#paint17_radial_2_11)"/>
<defs>
<radialGradient id="paint0_radial_2_11" cx="0" cy="0" r="1" gradientUnits="userSpaceOnUse" gradientTransform="translate(30.22 20.0799) rotate(90) scale(3.7437 28.22)">
<stop stop-color="#DBBC80"/>
<stop offset="1" stop-color="#AB8219"/>
</radialGradient>
<radialGradient id="paint1_radial_2_11" cx="0" cy="0" r="1" gradientUnits="userSpaceOnUse" gradientTransform="translate(30.7464 65.318) rotate(90) scale(3.62271 26.7464)">
<stop stop-color="#DBBC80"/>
<stop offset="1" stop-color="#AB8219"/>
</radialGradient>
<radialGradient id="paint2_radial_2_11" cx="0" cy="0" r="1" gradientUnits="userSpaceOnUse" gradientTransform="translate(16.7891 42.3636) rotate(90) scale(15.3636 1.78911)">
<stop stop-color="#DBBC80"/>
<stop offset="1" stop-color="#AB8219"/>
</radialGradient>
<radialGradient id="paint3_radial_2_11" cx="0" cy="0" r="1" gradientUnits="userSpaceOnUse" gradientTransform="translate(23.4426 42.3636) rotate(90) scale(15.3636 1.78911)">
<stop stop-color="#DBBC80"/>
<stop offset="1" stop-color="#AB8219"/>
</radialGradient>
<radialGradient id="paint4_radial_2_11" cx="0" cy="0" r="1" gradientUnits="userSpaceOnUse" gradientTransform="translate(30.2212 42.3636) rotate(90) scale(15.3636 1.78911)">
<stop stop-color="#DBBC80"/>
<stop offset="1" stop-color="#AB8219"/>
</radialGradient>
<radialGradient id="paint5_radial_2_11" cx="0" cy="0" r="1" gradientUnits="userSpaceOnUse" gradientTransform="translate(36.8112 42.3636) rotate(90) scale(15.3636 1.78911)">
<stop stop-color="#DBBC80"/>
<stop offset="1" stop-color="#AB8219"/>
</radialGradient>
<radialGradient id="paint6_radial_2_11" cx="0" cy="0" r="1" gradientUnits="userSpaceOnUse" gradientTransform="translate(43.5597 42.3636) rotate(90) scale(15.3636 1.78911)">
<stop stop-color="#DBBC80"/>
<stop offset="1" stop-color="#AB8219"/>
</radialGradient>
<radialGradient id="paint7_radial_2_11" cx="0" cy="0" r="1" gradientUnits="userSpaceOnUse" gradientTransform="translate(16.7891 76.2959) rotate(90) scale(2.70411 1.78911)">
<stop stop-color="#DBBC80"/>
<stop offset="1" stop-color="#AB8219"/>
</radialGradient>
<radialGradient id="paint8_radial_2_11" cx="0" cy="0" r="1" gradientUnits="userSpaceOnUse" gradientTransform="translate(23.4426 76.2959) rotate(90) scale(2.70411 1.78911)">
<stop stop-color="#DBBC80"/>
<stop offset="1" stop-color="#AB8219"/>
</radialGradient>
<radialGradient id="paint9_radial_2_11" cx="0" cy="0" r="1" gradientUnits="userSpaceOnUse" gradientTransform="translate(30.2214 76.2959) rotate(90) scale(2.70411 1.78911)">
<stop stop-color="#DBBC80"/>
<stop offset="1" stop-color="#AB8219"/>
</radialGradient>
<radialGradient id="paint10_radial_2_11" cx="0" cy="0" r="1" gradientUnits="userSpaceOnUse" gradientTransform="translate(36.8129 76.2959) rotate(90) scale(2.70411 1.78911)">
<stop stop-color="#DBBC80"/>
<stop offset="1" stop-color="#AB8219"/>
</radialGradient>
<radialGradient id="paint11_radial_2_11" cx="0" cy="0" r="1" gradientUnits="userSpaceOnUse" gradientTransform="translate(43.5599 76.2959) rotate(90) scale(2.70411 1.78911)">
<stop stop-color="#DBBC80"/>
<stop offset="1" stop-color="#AB8219"/>
</radialGradient>
<radialGradient id="paint12_radial_2_11" cx="0" cy="0" r="1" gradientUnits="userSpaceOnUse" gradientTransform="translate(23.4408 3.70411) rotate(90) scale(2.70411 1.78911)">
<stop stop-color="#DBBC80"/>
<stop offset="1" stop-color="#AB8219"/>
</radialGradient>
<radialGradient id="paint13_radial_2_11" cx="0" cy="0" r="1" gradientUnits="userSpaceOnUse" gradientTransform="translate(30.2212 3.70411) rotate(90) scale(2.70411 1.78911)">
<stop stop-color="#DBBC80"/>
<stop offset="1" stop-color="#AB8219"/>
</radialGradient>
<radialGradient id="paint14_radial_2_11" cx="0" cy="0" r="1" gradientUnits="userSpaceOnUse" gradientTransform="translate(36.8111 3.70411) rotate(90) scale(2.70411 1.78911)">
<stop stop-color="#DBBC80"/>
<stop offset="1" stop-color="#AB8219"/>
</radialGradient>
<radialGradient id="paint15_radial_2_11" cx="0" cy="0" r="1" gradientUnits="userSpaceOnUse" gradientTransform="translate(30.7432 22.7847) rotate(-180) scale(17.7432 1.78468)">
<stop stop-color="#DBBC80"/>
<stop offset="1" stop-color="#AB8219"/>
</radialGradient>
<radialGradient id="paint16_radial_2_11" cx="0" cy="0" r="1" gradientUnits="userSpaceOnUse" gradientTransform="translate(30.2568 62.5852) rotate(180) scale(17.7432 1.78469)">
<stop stop-color="#DBBC80"/>
<stop offset="1" stop-color="#AB8219"/>
</radialGradient>
<radialGradient id="paint17_radial_2_11" cx="0" cy="0" r="1" gradientUnits="userSpaceOnUse" gradientTransform="translate(30.2568 10.0591) rotate(-180) scale(17.7432 1.78468)">
<stop stop-color="#DBBC80"/>
<stop offset="1" stop-color="#AB8219"/>
</radialGradient>
</defs>
</svg>
