<svg width="62" height="62" viewBox="0 0 62 62" fill="none" xmlns="http://www.w3.org/2000/svg">
<path d="M31 61C14.4315 61 1 47.5685 1 31C1 14.4315 14.4315 1 31 1C47.5685 1 61 14.4315 61 31C61 47.5685 47.5685 61 31 61Z" stroke="#D1B06B" stroke-width="2"/>
<g clip-path="url(#clip0_2_36)">
<path d="M38.9602 34.8312C38.7621 34.6202 38.0627 33.9964 36.7771 33.171C35.4819 32.3385 34.5268 31.8193 34.2528 31.6983C34.2287 31.6876 34.2021 31.6837 34.1759 31.6869C34.1496 31.6902 34.1248 31.7006 34.1041 31.7169C33.6627 32.0611 32.9197 32.6933 32.8799 32.7274C32.6226 32.9479 32.6226 32.9479 32.412 32.8792C32.0416 32.7578 30.8911 32.1468 29.8885 31.142C28.8859 30.1371 28.2435 28.9581 28.122 28.5881C28.0526 28.3772 28.0526 28.3772 28.2738 28.1199C28.308 28.08 28.9406 27.337 29.2847 26.8961C29.3011 26.8753 29.3114 26.8505 29.3147 26.8243C29.318 26.7981 29.314 26.7715 29.3033 26.7473C29.1823 26.473 28.6632 25.5182 27.8306 24.2231C27.0041 22.9378 26.381 22.2384 26.17 22.0404C26.1507 22.0221 26.1267 22.0094 26.1007 22.0036C26.0748 21.9978 26.0477 21.9991 26.0224 22.0073C25.2849 22.2608 24.5733 22.5842 23.8973 22.9731C23.2448 23.3524 22.627 23.7886 22.0512 24.2766C22.0311 24.2937 22.016 24.3159 22.0076 24.3409C21.9992 24.3659 21.9977 24.3927 22.0034 24.4185C22.0827 24.7881 22.4618 26.331 23.6382 28.4682C24.8384 30.6494 25.6702 31.767 27.4329 33.5235C29.1956 35.2801 30.3484 36.162 32.5319 37.3623C34.6691 38.5386 36.2128 38.9181 36.5817 38.9967C36.6075 39.0023 36.6343 39.0008 36.6594 38.9924C36.6844 38.984 36.7068 38.9689 36.724 38.9488C37.2118 38.373 37.6479 37.7553 38.0271 37.1027C38.4159 36.4267 38.7393 35.7152 38.9928 34.9777C39.0009 34.9526 39.0022 34.9258 38.9965 34.9C38.9907 34.8742 38.9782 34.8505 38.9602 34.8312Z" fill="#CCAA60"/>
</g>
<defs>
<clipPath id="clip0_2_36">
<rect width="17" height="17" fill="white" transform="translate(22 22)"/>
</clipPath>
</defs>
</svg>
