<svg width="62" height="62" viewBox="0 0 62 62" fill="none" xmlns="http://www.w3.org/2000/svg">
<path d="M31 61C14.4315 61 1 47.5685 1 31C1 14.4315 14.4315 1 31 1C47.5685 1 61 14.4315 61 31C61 47.5685 47.5685 61 31 61Z" stroke="#D1B06B" stroke-width="2"/>
<g clip-path="url(#clip0_2_44)">
<path d="M39.3571 23.8H22.6429C22.4724 23.8 22.3088 23.869 22.1883 23.9918C22.0677 24.1145 22 24.281 22 24.4546V37.5455C22 37.7191 22.0677 37.8856 22.1883 38.0083C22.3088 38.1311 22.4724 38.2 22.6429 38.2H39.3571C39.5276 38.2 39.6912 38.1311 39.8117 38.0083C39.9323 37.8856 40 37.7191 40 37.5455V24.4546C40 24.281 39.9323 24.1145 39.8117 23.9918C39.6912 23.869 39.5276 23.8 39.3571 23.8ZM31.3946 32.1713C31.2817 32.2606 31.1429 32.3091 31 32.3091C30.8571 32.3091 30.7183 32.2606 30.6054 32.1713L24.3123 27.1877L25.1014 26.1544L31 30.8254L36.8986 26.1544L37.6877 27.1877L31.3946 32.1713Z" fill="#CCAA60"/>
</g>
<defs>
<clipPath id="clip0_2_44">
<rect width="18" height="16" fill="white" transform="translate(22 23)"/>
</clipPath>
</defs>
</svg>
